<?xml version="1.0" standalone="no"?>
<!DOCTYPE svg PUBLIC "-//W3C//DTD SVG 1.1//EN" "http://www.w3.org/Graphics/SVG/1.1/DTD/svg11.dtd" >
<svg xmlns="http://www.w3.org/2000/svg" xmlns:xlink="http://www.w3.org/1999/xlink" version="1.1">
<metadata>
Created by FontForge 20190801 at Tue Sep 19 22:01:08 2017
 By www-data
Copyright 2015 Google Inc. All Rights Reserved.
</metadata>
<defs>
<font id="NotoSerifExtraBold" horiz-adv-x="0" >
  <font-face 
    font-family="NotoSerifExtraBold"
    font-weight="800"
    font-stretch="normal"
    units-per-em="1000"
    panose-1="2 2 9 2 6 5 5 2 2 4"
    ascent="800"
    descent="-200"
    x-height="536"
    cap-height="714"
    bbox="-722 -389 2797 1072"
    underline-thickness="50"
    underline-position="-125"
    unicode-range="U+000D-FFFD"
  />
<missing-glyph horiz-adv-x="592" 
d="M85 0v714h411v-714h-411zM136 51h309v612h-309v-612z" />
    <glyph glyph-name="f_f" unicode="ff" horiz-adv-x="784" 
d="M16 0v57h26q11 0 26.5 4.5t27.5 17.5t12 41v340h-88v76h88v18q0 101 50 155.5t165 54.5q63 0 96 -13.5t44.5 -32t11.5 -35.5q0 -31 -25 -48t-80 -17q0 34 -8 59.5t-33 25.5q-15 0 -25 -11t-15.5 -39.5t-5.5 -81.5v-35h187v19q0 59 23.5 107.5t72 77t121.5 28.5
q69 0 105.5 -11t50 -28t13.5 -35q0 -32 -27.5 -52t-99.5 -20q0 15 -3.5 35t-11.5 35t-23 15q-24 0 -35 -31.5t-11 -98.5v-41h137v-76h-137v-340q0 -28 11.5 -41t26.5 -17.5t28 -4.5h51v-57h-370v57h11q11 0 27 4.5t28 17.5t12 41v340h-187v-337q0 -41 19.5 -53.5t41.5 -12.5
h19v-57h-347z" />
    <glyph glyph-name="f_i" unicode="fi" horiz-adv-x="756" 
d="M16 0v57h26q11 0 26.5 4.5t27.5 17.5t12 41v340h-88v76h88v18q0 68 28 115.5t90 73t165 25.5q77 0 125 -8t73.5 -21.5t35.5 -30.5t10 -35q0 -35 -35 -56t-122 -21q0 26 -7.5 51.5t-28 42.5t-59.5 17q-53 0 -76.5 -29.5t-23.5 -91.5v-50h375v-411q0 -41 21 -54.5t46 -13.5
h11v-57h-331v57h12q25 0 45.5 14t20.5 56v333h-200v-340q0 -28 11.5 -41t27 -17.5t28.5 -4.5h25v-57h-359z" />
    <glyph glyph-name="f_l" unicode="fl" horiz-adv-x="755" 
d="M16 0v57h26q11 0 26.5 4.5t27.5 17.5t12 41v340h-88v76h88v18q0 101 66 157.5t213 56.5q31 0 57.5 -2t48.5 -6h165v-635q0 -41 21 -54.5t46 -13.5h11v-57h-327v57h7q26 0 46.5 13.5t20.5 54.5v455q-1 32 -13 61t-35 47.5t-55 18.5q-46 0 -71.5 -26.5t-25.5 -94.5v-50h131
v-76h-131v-340q0 -28 11.5 -41t27 -17.5t28.5 -4.5h21v-57h-355z" />
    <glyph glyph-name="f_f_i" unicode="ffi" horiz-adv-x="1103" 
d="M16 0v57h26q11 0 26.5 4.5t27.5 17.5t12 41v340h-88v76h88v18q0 101 50 155.5t165 54.5q63 0 96 -13.5t44.5 -32t11.5 -35.5q0 -31 -25 -48t-80 -17q0 34 -8 59.5t-33 25.5q-15 0 -25 -11t-15.5 -39.5t-5.5 -81.5v-35h186v8q0 114 68 168.5t219 54.5q93 0 144.5 -13
t72.5 -36t21 -52q0 -40 -38 -60t-133 -20q0 26 -6.5 53.5t-25.5 46.5t-56 19q-43 0 -67 -27.5t-24 -85.5v-56h362v-416q0 -28 12 -41t27.5 -17.5t26.5 -4.5h12v-57h-329v57h14q11 0 25.5 4.5t25 18.5t10.5 42v338h-186v-335q0 -41 18 -54.5t43 -13.5h20v-57h-333v57h11
q11 0 26.5 4.5t27.5 17.5t12 41v340h-186v-337q0 -41 19.5 -53.5t41.5 -12.5h19v-57h-347z" />
    <glyph glyph-name="f_f_l" unicode="ffl" horiz-adv-x="1103" 
d="M16 0v57h26q11 0 26.5 4.5t27.5 17.5t12 41v340h-88v76h88v18q0 101 50 155.5t165 54.5q63 0 96 -13.5t44.5 -32t11.5 -35.5q0 -31 -25 -48t-80 -17q0 34 -8 59.5t-33 25.5q-15 0 -25 -11t-15.5 -39.5t-5.5 -81.5v-35h186v8q0 114 69 169t202 55q34 0 61 -2t51 -6h154
v-635q0 -41 21 -54.5t46 -13.5h11v-57h-324v57h6q26 0 45.5 13.5t19.5 54.5v451q-1 30 -11.5 59.5t-32 49.5t-55.5 20q-44 0 -66 -27.5t-22 -85.5v-56h114v-76h-114v-335q0 -41 19 -54.5t41 -13.5h17v-57h-328v57h10q25 0 45.5 13.5t20.5 54.5v335h-186v-337
q0 -41 19.5 -53.5t41.5 -12.5h14v-57h-342z" />
    <glyph glyph-name=".notdef" horiz-adv-x="592" 
d="M85 0v714h411v-714h-411zM136 51h309v612h-309v-612z" />
    <glyph glyph-name=".null" 
 />
    <glyph glyph-name="nonmarkingreturn" horiz-adv-x="333" 
 />
    <glyph glyph-name="NULL" 
 />
    <glyph glyph-name="NULL" 
 />
    <glyph glyph-name="CR" unicode="&#xd;" horiz-adv-x="260" 
 />
    <glyph glyph-name="space" unicode=" " horiz-adv-x="260" 
 />
    <glyph glyph-name="exclam" unicode="!" horiz-adv-x="380" 
d="M152 233l-61 481h198l-60 -481h-77zM191 -9q-37 0 -62.5 19t-25.5 68q0 50 25.5 68.5t62.5 18.5q35 0 61.5 -18.5t26.5 -68.5q0 -49 -26.5 -68t-61.5 -19z" />
    <glyph glyph-name="quotedbl" unicode="&#x22;" horiz-adv-x="549" 
d="M352 423l-51 291h177l-51 -291h-75zM122 423l-51 291h176l-51 -291h-74z" />
    <glyph glyph-name="numbersign" unicode="#" horiz-adv-x="564" 
d="M92 0l38 199h-98v73h111l34 175h-113v74h127l35 193h76l-35 -193h95l37 193h75l-37 -193h96v-74h-109l-33 -175h110v-73h-125l-37 -199h-75l36 199h-95l-38 -199h-75zM219 272h96l34 175h-96z" />
    <glyph glyph-name="dollar" unicode="$" horiz-adv-x="564" 
d="M260 -79v121q-62 2 -102.5 17t-64.5 37t-34 46t-10 44q0 32 15.5 51t39 26.5t48.5 7.5q0 -73 26 -116t82 -54v203q-76 32 -117.5 62.5t-57.5 64.5t-16 76q0 73 54 120t137 57v76h59v-76q87 -4 129.5 -31t42.5 -64q0 -31 -26 -53.5t-89 -22.5q0 36 -15 67t-42 44v-184
q34 -15 69.5 -31t65 -37.5t48 -53.5t18.5 -78q0 -76 -53.5 -130t-147.5 -66v-123h-59zM260 469v159q-26 -4 -45 -22.5t-19 -50.5q0 -23 14 -44.5t50 -41.5zM319 102q35 9 53 32.5t18 53.5q0 54 -71 92v-178z" />
    <glyph glyph-name="percent" unicode="%" horiz-adv-x="910" 
d="M216 280q-99 0 -142.5 61t-43.5 162t43.5 161t143.5 60q94 0 140 -60t46 -161t-46.5 -162t-140.5 -61zM242 0l340 714h82l-339 -714h-83zM216 334q36 0 49.5 44.5t13.5 124.5q0 79 -13.5 122.5t-48.5 43.5q-36 0 -50.5 -43.5t-14.5 -122.5q0 -80 14.5 -124.5t49.5 -44.5z
M694 -10q-99 0 -142.5 61t-43.5 162t43.5 161t143.5 60q94 0 140 -60t46 -161t-46.5 -162t-140.5 -61zM694 44q36 0 49.5 44.5t13.5 124.5q0 79 -13.5 122.5t-48.5 43.5q-36 0 -50.5 -43.5t-14.5 -122.5q0 -80 14.5 -124.5t49.5 -44.5z" />
    <glyph glyph-name="ampersand" unicode="&#x26;" horiz-adv-x="825" 
d="M309 -10q-125 0 -193.5 54t-68.5 157q0 59 26 96.5t67.5 60.5t86.5 40q-41 47 -58.5 85.5t-17.5 84.5q0 74 52.5 115t153.5 41t149 -42t48 -100q0 -59 -36.5 -98.5t-108.5 -74.5l136 -144q5 25 7.5 56.5t2.5 60.5v46h229v-57h-19q-23 0 -43.5 -3.5t-37 -16.5t-24.5 -44
q-14 -55 -42 -115l102 -106q16 -18 38 -23.5t43 -5.5h9v-57h-213l-69 71q-35 -34 -90 -57.5t-129 -23.5zM364 457q34 23 48 52t14 72q0 36 -15 57.5t-48 21.5q-31 0 -46 -21t-15 -59q0 -33 16.5 -61.5t45.5 -61.5zM344 64q46 0 80.5 17t55.5 43l-207 221q-35 -27 -45 -63
t-10 -80q0 -62 34 -100t92 -38z" />
    <glyph glyph-name="quotesingle" unicode="'" horiz-adv-x="318" 
d="M122 423l-51 291h176l-51 -291h-74z" />
    <glyph glyph-name="parenleft" unicode="(" horiz-adv-x="422" 
d="M390 -143q-120 47 -193 115.5t-106.5 156t-33.5 190.5q0 153 77 269.5t256 188.5v-70q-60 -41 -92 -102t-44.5 -134t-12.5 -152t12.5 -153.5t44.5 -136t92 -101.5v-71z" />
    <glyph glyph-name="parenright" unicode=")" horiz-adv-x="422" 
d="M32 -143v71q60 40 92 101.5t44.5 136t12.5 153.5t-12.5 152t-44.5 134t-92 102v70q179 -72 256 -188.5t77 -269.5q0 -103 -33.5 -190.5t-106.5 -156t-193 -115.5z" />
    <glyph glyph-name="asterisk" unicode="*" horiz-adv-x="503" 
d="M193 358l35 164l-146 -110l-49 108l157 41l-157 38l49 108l147 -111l-36 165h122l-39 -163l148 108l49 -108l-157 -37l157 -40l-49 -109l-148 109l38 -163h-121z" />
    <glyph glyph-name="plus" unicode="+" horiz-adv-x="564" 
d="M244 139v181h-182v75h182v181h76v-181h182v-75h-182v-181h-76z" />
    <glyph glyph-name="comma" unicode="," horiz-adv-x="312" 
d="M51 -154v56q41 16 63 30.5t22 42.5q0 14 -11 21.5t-25.5 16.5t-25.5 25.5t-11 49.5q0 36 23.5 54.5t54.5 18.5q47 0 71 -32t24 -87q0 -64 -42 -117t-143 -79z" />
    <glyph glyph-name="hyphen" unicode="-" horiz-adv-x="310" 
d="M25 214v117h260v-117h-260z" />
    <glyph glyph-name="period" unicode="." horiz-adv-x="312" 
d="M156 -9q-38 0 -64 19t-26 66q0 49 26 67t64 18q36 0 62.5 -18t26.5 -67q0 -47 -26.5 -66t-62.5 -19z" />
    <glyph glyph-name="slash" unicode="/" horiz-adv-x="288" 
d="M0 -121l213 881h75l-211 -881h-77z" />
    <glyph glyph-name="zero" unicode="0" horiz-adv-x="564" 
d="M283 -10q-95 0 -150 46t-78 129t-23 194t23 193t78 127t151 45q90 0 144.5 -45t79 -127.5t24.5 -193.5t-24.5 -193.5t-79 -128.5t-145.5 -46zM283 59q32 0 47.5 35.5t20.5 102.5t5 161t-5 160.5t-20 101.5t-47 35q-33 0 -49.5 -35t-21.5 -101.5t-5 -160.5t5 -161
t21 -102.5t49 -35.5z" />
    <glyph glyph-name="one" unicode="1" horiz-adv-x="564" 
d="M89 0v57h88q25 0 36.5 14.5t11.5 48.5v491q-38 -47 -68.5 -75.5t-60.5 -28.5q-25 0 -43 22.5t-18 59.5q30 7 68.5 23.5t88.5 53.5l70 52h131v-598q0 -26 9.5 -44.5t40.5 -18.5h77v-57h-431z" />
    <glyph glyph-name="two" unicode="2" horiz-adv-x="564" 
d="M33 0v110l139 139q64 65 98 113.5t47 92.5t13 96q0 60 -19.5 84t-48.5 24q-44 0 -65 -41t-21 -137q-39 0 -71 9t-51 31t-19 61q0 36 25 68.5t75.5 53t126.5 20.5q119 0 179.5 -46.5t60.5 -124.5q0 -35 -11.5 -68.5t-42.5 -74t-88.5 -96t-149.5 -134.5l-64 -58h222
q26 0 49.5 16t33.5 51l10 36h66l-5 -225h-489z" />
    <glyph glyph-name="three" unicode="3" horiz-adv-x="564" 
d="M246 -10q-80 0 -128.5 17.5t-71 47t-22.5 64.5q0 42 28.5 63t65.5 21q0 -68 34.5 -102t86.5 -34q30 0 55.5 11.5t41.5 42.5t16 87q0 55 -37 91.5t-108 36.5h-68v66h74q64 0 89.5 40t25.5 104q0 52 -20 82.5t-53 30.5t-51 -23.5t-25 -59.5t-7 -75q-64 0 -100.5 21
t-36.5 70q0 34 25 64.5t75 49t126 18.5q112 0 176 -43t64 -122q0 -67 -43 -110.5t-107 -67.5q41 -9 81.5 -29.5t67 -55.5t26.5 -89q0 -61 -23 -103t-62 -67t-89.5 -36t-105.5 -11z" />
    <glyph glyph-name="four" unicode="4" horiz-adv-x="564" 
d="M168 0v57h28q34 0 58 12.5t24 59.5v53h-264v69l274 463h157v-462h96v-70h-96v-53q0 -47 24 -59.5t58 -12.5h13v-57h-372zM91 252h188v171q0 43 1.5 91t5.5 95q-5 -12 -15 -33t-21.5 -43t-21.5 -40.5t-14 -25.5z" />
    <glyph glyph-name="five" unicode="5" horiz-adv-x="564" 
d="M248 -10q-76 0 -122 18t-67.5 47t-21.5 64q0 37 24.5 55t62.5 18q0 -28 9 -58t32 -50t64 -20q30 0 56 14t42.5 48t16.5 95q0 73 -33.5 109t-96.5 36q-32 0 -57 -5.5t-49 -11.5l-46 23l32 342h388l4 -195h-63l-9 36q-4 17 -13 27t-30 10h-214l-15 -171q16 7 49 11t58 4
q125 0 196.5 -53.5t71.5 -161.5q0 -71 -26.5 -116t-67.5 -70t-88 -35t-87 -10z" />
    <glyph glyph-name="six" unicode="6" horiz-adv-x="564" 
d="M295 -10q-115 0 -184.5 82.5t-69.5 256.5q0 117 31.5 206t94.5 139t159 50q68 0 109.5 -16t60 -41.5t18.5 -54.5q0 -34 -28 -59.5t-99 -25.5q0 33 -6.5 64t-21.5 50.5t-41 19.5q-54 0 -83.5 -68.5t-35.5 -187.5q25 14 57 24.5t76 10.5q91 0 146 -55t55 -153
q0 -108 -59.5 -175t-178.5 -67zM299 60q33 0 54 36.5t21 125.5q0 81 -23 115.5t-61 34.5q-22 0 -48.5 -12t-42.5 -27q1 -145 29 -209t71 -64z" />
    <glyph glyph-name="seven" unicode="7" horiz-adv-x="564" 
d="M155 0l272 593h-250q-27 0 -40.5 -13t-17.5 -38l-7 -50h-67l5 222h476v-57l-272 -657h-99z" />
    <glyph glyph-name="eight" unicode="8" horiz-adv-x="564" 
d="M276 -10q-87 0 -142.5 26t-81.5 69t-26 93q0 72 42.5 113.5t107.5 68.5q-59 33 -93 75t-34 106q0 49 23.5 90.5t76.5 67t140 25.5q73 0 122.5 -22.5t74.5 -61t25 -84.5q0 -63 -36 -99.5t-98 -65.5q88 -44 124.5 -89.5t36.5 -113.5q0 -90 -68.5 -144t-193.5 -54zM309 426
q27 18 42.5 47.5t15.5 80.5q0 44 -21.5 76t-61.5 32q-37 0 -56 -29t-19 -75q0 -51 26.5 -81t73.5 -51zM281 52q43 0 69 31.5t26 85.5q0 48 -33.5 83t-100.5 67q-29 -22 -47.5 -55t-18.5 -82q0 -63 30 -96.5t75 -33.5z" />
    <glyph glyph-name="nine" unicode="9" horiz-adv-x="564" 
d="M230 -9q-62 0 -99.5 16.5t-54.5 43.5t-17 59q0 22 14 42.5t47 25.5q16 -53 41 -87t77 -34q61 0 92 68.5t36 210.5q-22 -26 -55 -43.5t-83 -17.5q-86 0 -141 54t-55 155q0 72 28 126t81 84t126 30q75 0 133 -35t91 -110t33 -194q0 -113 -30 -202t-94.5 -140.5
t-169.5 -51.5zM278 352q56 0 87 58q-1 131 -24 186.5t-66 55.5q-41 0 -62.5 -39t-21.5 -125q0 -64 22 -100t65 -36z" />
    <glyph glyph-name="colon" unicode=":" horiz-adv-x="311" 
d="M155 377q-37 0 -63 18.5t-26 66.5q0 49 26 67t63 18q36 0 63 -18t27 -67q0 -48 -27 -66.5t-63 -18.5zM155 -9q-37 0 -63 19t-26 66q0 49 26 67t63 18q36 0 63 -18t27 -67q0 -47 -27 -66t-63 -19z" />
    <glyph glyph-name="semicolon" unicode=";" horiz-adv-x="311" 
d="M155 377q-37 0 -63 18.5t-26 66.5q0 49 26 67t63 18q36 0 63 -18t27 -67q0 -48 -27 -66.5t-63 -18.5zM57 -154v56q41 16 63 30t22 43q0 14 -11 21.5t-25.5 16.5t-25.5 25.5t-11 49.5q0 36 23 54.5t55 18.5q47 0 71 -32t24 -87q0 -64 -42 -117t-143 -79z" />
    <glyph glyph-name="less" unicode="&#x3c;" horiz-adv-x="564" 
d="M502 96l-440 240v43l440 241v-84l-327 -179l327 -177v-84z" />
    <glyph glyph-name="equal" unicode="=" horiz-adv-x="564" 
d="M60 422v74h445v-74h-445zM60 218v74h445v-74h-445z" />
    <glyph glyph-name="greater" unicode="&#x3e;" horiz-adv-x="564" 
d="M62 96v84l328 177l-328 179v84l440 -241v-43z" />
    <glyph glyph-name="question" unicode="?" horiz-adv-x="554" 
d="M212 233l-19 117q57 26 86.5 57.5t40.5 68.5t11 78q0 49 -18 77.5t-53 28.5q-38 0 -55.5 -36.5t-17.5 -103.5q-72 0 -113 17.5t-41 60.5q0 33 23.5 61.5t73 46.5t126.5 18q76 0 133 -22t89 -63.5t32 -99.5q0 -79 -48.5 -127t-150.5 -91l-19 -88h-80zM250 -9
q-37 0 -62.5 19t-25.5 68q0 50 25.5 68.5t62.5 18.5q35 0 62 -18.5t27 -68.5q0 -49 -27 -68t-62 -19z" />
    <glyph glyph-name="at" unicode="@" horiz-adv-x="921" 
d="M470 -142q-84 0 -159.5 23.5t-134 71.5t-92 121t-33.5 173q0 108 38 194t105 147t153.5 93.5t182.5 32.5q109 0 188 -40t121.5 -113.5t42.5 -173.5q0 -98 -29.5 -167.5t-76 -106t-98.5 -36.5q-44 0 -76 20t-49 73h-7q-21 -39 -54 -66t-87 -27q-65 0 -111 42.5t-46 128.5
q0 45 16 94t48.5 91.5t83.5 69t121 26.5q34 0 62.5 -9.5t41.5 -20.5l42 21h32l-41 -248q-3 -16 -5 -38t-2 -30q0 -44 14.5 -56.5t27.5 -12.5q25 0 51 27.5t43.5 82t17.5 136.5q0 93 -36 155t-99 93t-143 31q-71 0 -137 -28.5t-119.5 -82.5t-84.5 -131.5t-31 -175.5
q0 -115 43.5 -187.5t118.5 -106.5t170 -34q85 0 156.5 25t118.5 57l25 -43q-56 -39 -132.5 -67t-180.5 -28zM442 137q26 0 43 16t27 41.5t15 54.5l40 207q-6 14 -21.5 21t-30.5 7q-35 0 -60 -26t-41 -65.5t-23.5 -81.5t-7.5 -74q0 -51 16.5 -75.5t42.5 -24.5z" />
    <glyph glyph-name="A" unicode="A" horiz-adv-x="772" 
d="M6 0v57h9q26 0 45.5 13.5t36.5 57.5l214 586h161l207 -587q13 -38 33 -54t46 -16h14v-57h-352v57h40q15 0 28.5 7.5t13.5 27.5q0 14 -3.5 26.5t-6.5 19.5l-33 95h-234l-26 -78q-4 -12 -8.5 -30.5t-4.5 -31.5q0 -36 40 -36h46v-57h-266zM246 299h192l-55 179q-9 29 -19 64
t-17 69q-8 -32 -18.5 -66.5t-21.5 -64.5z" />
    <glyph glyph-name="B" unicode="B" horiz-adv-x="698" 
d="M24 0v57h47q22 0 34 13.5t12 46.5v481q0 35 -15 47t-32 12h-46v57h312q147 0 223.5 -42t76.5 -136q0 -68 -40 -103.5t-99 -51.5v-5q74 -16 121.5 -59.5t47.5 -119.5q0 -197 -300 -197h-342zM297 406h33q62 0 89 29t27 96q0 66 -29 92t-89 26h-31v-243zM297 65h58
q60 0 89 30t29 105q0 72 -27 106.5t-89 34.5h-60v-276z" />
    <glyph glyph-name="C" unicode="C" horiz-adv-x="690" 
d="M410 -10q-119 0 -198 46t-118.5 128.5t-39.5 193.5q0 108 40 190.5t119 129t196 46.5q120 0 179.5 -34t59.5 -84q0 -39 -35 -66t-106 -27q0 33 -10 66t-33.5 55t-63.5 22q-88 0 -121.5 -78t-33.5 -220q0 -148 44 -215.5t151 -67.5q51 0 87.5 15.5t62 38.5t42.5 46
q7 -7 11.5 -20t4.5 -25q0 -22 -11 -46.5t-37.5 -45.5t-73 -34.5t-116.5 -13.5z" />
    <glyph glyph-name="D" unicode="D" horiz-adv-x="783" 
d="M24 0v57h48q20 0 32.5 13.5t12.5 45.5v483q0 34 -14 46t-35 12h-44v57h340q170 0 267.5 -84.5t97.5 -254.5q0 -109 -41.5 -194t-122.5 -133t-201 -48h-340zM297 66h43q64 0 108 38t66 107.5t22 163.5q0 141 -49.5 207.5t-145.5 66.5h-44v-583z" />
    <glyph glyph-name="E" unicode="E" horiz-adv-x="665" 
d="M24 0v57h47q21 0 33.5 12.5t12.5 41.5v487q0 38 -14 48.5t-33 10.5h-46v57h576l3 -188h-77l-5 49q-4 38 -18 56t-47 18h-158v-244h236v-64h-236v-276h188q32 0 47 20.5t20 53.5l8 49h76l-7 -188h-606z" />
    <glyph glyph-name="F" unicode="F" horiz-adv-x="634" 
d="M24 0v57h38q27 0 41 11t14 43v491q0 32 -13.5 43.5t-32.5 11.5h-47v57h574l5 -188h-77l-5 50q-5 43 -23.5 58t-43.5 15h-157v-267h236v-63h-236v-205q0 -32 13.5 -44.5t39.5 -12.5h61v-57h-387z" />
    <glyph glyph-name="G" unicode="G" horiz-adv-x="791" 
d="M432 -10q-127 0 -211 46t-125.5 128.5t-41.5 193.5q0 108 43.5 190.5t129 129t210.5 46.5q130 0 195.5 -34t65.5 -84q0 -36 -35 -63.5t-108 -27.5q0 67 -30.5 104t-90.5 37q-102 0 -145.5 -78t-43.5 -220t46 -219t156 -77q14 0 29 1.5t31 3.5v142q0 38 -15 55t-51 17h-17
v57h330v-57h-11q-31 0 -43 -17.5t-12 -58.5v-158q-62 -29 -124 -43t-132 -14z" />
    <glyph glyph-name="H" unicode="H" horiz-adv-x="829" 
d="M24 0v57h48q19 0 32 13.5t13 43.5v486q0 33 -15 45t-35 12h-43v57h356v-57h-40q-19 0 -30.5 -12t-11.5 -44v-196h234v194q0 34 -12 46t-34 12h-36v57h356v-57h-48q-20 0 -32.5 -12t-12.5 -46v-486q0 -30 13 -43t32 -13h48v-57h-356v57h37q21 0 33 14t12 46v223h-234v-226
q0 -30 11.5 -43.5t30.5 -13.5h40v-57h-356z" />
    <glyph glyph-name="I" unicode="I" horiz-adv-x="415" 
d="M24 0v57h48q17 0 31 12t14 44v485q0 34 -14 46.5t-31 12.5h-48v57h367v-57h-49q-20 0 -32 -12.5t-12 -46.5v-484q0 -32 13 -44.5t31 -12.5h49v-57h-367z" />
    <glyph glyph-name="J" unicode="J" horiz-adv-x="412" 
d="M-24 -240v62h21q28 0 56 17t47.5 56t19.5 104v602q0 32 -14 44t-30 12h-49v57h367v-57h-48q-17 0 -31 -12t-14 -46v-599q0 -68 -24 -114t-64.5 -74t-90.5 -40t-103 -12h-43z" />
    <glyph glyph-name="K" unicode="K" horiz-adv-x="760" 
d="M24 0v57h43q20 0 35 11.5t15 43.5v491q0 31 -13.5 42.5t-33.5 11.5h-46v57h356v-57h-38q-20 0 -32 -12t-12 -44v-239l143 158q31 34 45.5 58t14.5 47q0 18 -13.5 25.5t-45.5 7.5v56h288v-56q-43 0 -78.5 -24.5t-69.5 -61.5l-132 -140l191 -290q32 -49 56 -67t58 -18h5
v-57h-77q-55 0 -92 6t-61.5 19.5t-43 35t-37.5 52.5l-119 200l-32 -24v-176q0 -32 14.5 -44t35.5 -12h32v-57h-356z" />
    <glyph glyph-name="L" unicode="L" horiz-adv-x="667" 
d="M24 0v57h48q17 0 31 12t14 44v486q0 34 -14.5 46t-34.5 12h-44v57h367v-57h-46q-24 0 -35 -11.5t-11 -43.5v-537h181q31 0 50.5 20t30.5 66l19 75h57l-7 -226h-606z" />
    <glyph glyph-name="M" unicode="M" horiz-adv-x="957" 
d="M24 0v57h37q25 0 40.5 11.5t15.5 46.5v484q0 34 -14.5 46t-32.5 12h-46v57h312l150 -447l140 447h308v-57h-48q-17 0 -30.5 -12t-13.5 -44v-488q0 -32 13 -44t36 -12h43v-57h-342v57h13q31 0 45 12t14 47v489l-191 -605h-74l-202 606v-486q0 -41 19.5 -52t55.5 -11h7v-57
h-255z" />
    <glyph glyph-name="N" unicode="N" horiz-adv-x="798" 
d="M24 0v57h37q25 0 40.5 11t15.5 52v478q0 38 -15.5 48.5t-35.5 10.5h-42v57h238l351 -477v361q0 35 -14.5 47t-34.5 12h-43v57h265v-57h-43q-22 0 -36 -12.5t-14 -50.5v-594h-100l-396 541v-421q0 -41 13 -52t36 -11h43v-57h-265z" />
    <glyph glyph-name="O" unicode="O" horiz-adv-x="805" 
d="M403 -10q-117 0 -194.5 46t-116 129t-38.5 194t38.5 193t116 127.5t195.5 45.5q111 0 188.5 -45.5t118 -128t40.5 -193.5t-40.5 -193.5t-118.5 -128.5t-189 -46zM403 59q86 0 121.5 79t35.5 220t-35 219.5t-121 78.5t-122.5 -78.5t-36.5 -219.5t36.5 -220t121.5 -79z" />
    <glyph glyph-name="P" unicode="P" horiz-adv-x="652" 
d="M24 0v57h41q22 0 37 11t15 52v478q0 38 -15 48.5t-34 10.5h-44v57h323q149 0 219 -55t70 -158q0 -63 -30.5 -115.5t-98.5 -83.5t-182 -31h-27v-156q0 -38 14.5 -48t34.5 -10h64v-57h-387zM297 333h19q69 0 100 38t31 126q0 79 -27.5 116.5t-89.5 37.5h-33v-318z" />
    <glyph glyph-name="Q" unicode="Q" horiz-adv-x="805" 
d="M584 -240q-62 0 -120.5 24.5t-98 77t-46.5 136.5q-133 23 -199 119.5t-66 241.5q0 111 38.5 193t116 127.5t195.5 45.5q111 0 188.5 -45.5t118 -128t40.5 -193.5q0 -138 -62 -231.5t-180 -124.5q5 -76 28 -114.5t54 -52t61 -13.5h16v-62h-84zM403 59q86 0 121.5 79
t35.5 220t-35 219.5t-121 78.5t-122.5 -78.5t-36.5 -219.5t36.5 -220t121.5 -79z" />
    <glyph glyph-name="R" unicode="R" horiz-adv-x="732" 
d="M24 0v57h40q20 0 36.5 10t16.5 48v483q0 38 -18 48.5t-35 10.5h-40v57h344q104 0 167.5 -22.5t92 -64.5t28.5 -100q0 -55 -19.5 -92.5t-51 -60t-68.5 -33.5l116 -199q26 -45 47.5 -65t47.5 -20h6v-57h-41q-88 0 -142 17t-83 73l-112 218h-58v-193q0 -38 14 -48t36 -10h32
v-57h-356zM298 370h50q63 0 89.5 36t26.5 108q0 74 -29 105.5t-89 31.5h-48v-281z" />
    <glyph glyph-name="S" unicode="S" horiz-adv-x="596" 
d="M275 -10q-75 0 -123 13.5t-75.5 34.5t-38.5 45.5t-11 45.5q0 40 18 62.5t46.5 32t59.5 9.5q0 -63 20.5 -102.5t53 -58t69.5 -18.5q56 0 86.5 30.5t30.5 70.5q0 49 -45 79.5t-127 63.5q-73 30 -115 63.5t-59 73t-17 85.5q0 63 34 108.5t92 70.5t132 25q78 0 127 -17.5
t72.5 -45t23.5 -58.5q0 -37 -31.5 -62t-103.5 -25q0 31 -12 64t-36 56t-60 23q-39 0 -66 -20.5t-27 -63.5q0 -23 13 -45.5t50 -46.5t108 -53q72 -29 114.5 -61.5t60.5 -71t18 -86.5q0 -65 -34.5 -115t-97.5 -78t-150 -28z" />
    <glyph glyph-name="T" unicode="T" horiz-adv-x="669" 
d="M150 0v57h37q25 0 41 11t16 54v527h-74q-45 0 -62 -17t-21 -50l-8 -70h-73l5 202h647l5 -202h-73l-7 70q-4 33 -21 50t-62 17h-74v-529q0 -41 16 -52t41 -11h37v-57h-370z" />
    <glyph glyph-name="U" unicode="U" horiz-adv-x="759" 
d="M392 -10q-85 0 -148.5 23t-98.5 73.5t-35 132.5v379q0 38 -17.5 48.5t-40.5 10.5h-35v57h366v-57h-34q-24 0 -41 -11t-17 -52v-384q0 -82 37.5 -113.5t104.5 -31.5q59 0 97.5 34.5t38.5 114.5v384q0 38 -16.5 48.5t-40.5 10.5h-35v57h266v-57h-36q-24 0 -41 -11t-17 -52
v-382q0 -67 -26 -117t-82.5 -77.5t-148.5 -27.5z" />
    <glyph glyph-name="V" unicode="V" horiz-adv-x="707" 
d="M297 0l-211 611q-10 27 -27 36.5t-32 9.5h-27v57h347v-57h-47q-14 0 -24 -6.5t-10 -20.5q0 -10 3.5 -24t7.5 -25l98 -298q3 -11 8 -30.5t9 -40.5t5 -37q3 21 11 51.5t16 52.5l98 294l10 32t5 25q0 27 -33 27h-55v57h258v-57h-41q-18 0 -29 -13.5t-26 -57.5l-203 -586
h-111z" />
    <glyph glyph-name="W" unicode="W" horiz-adv-x="1075" 
d="M264 0l-183 604q-10 32 -26 42.5t-45 10.5h-13v57h357v-57h-23q-60 0 -60 -48q0 -8 3.5 -27.5t7.5 -33.5l61 -218q10 -34 19.5 -74t13.5 -70q7 30 14.5 58t18.5 61l131 402h89l123 -361q16 -47 28 -90.5t18 -72.5q6 34 18 85t23 95l44 179q5 16 9 36.5t4 31.5
q0 26 -14.5 36.5t-47.5 10.5h-23v57h268v-57h-19q-29 0 -45.5 -14.5t-30.5 -63.5l-155 -579h-131l-154 455l-144 -455h-136z" />
    <glyph glyph-name="X" unicode="X" horiz-adv-x="761" 
d="M11 0v57h6q36 0 58 20.5t46 49.5l178 224l-165 253q-16 26 -32.5 39.5t-53.5 13.5h-13v57h355v-57h-5q-35 0 -46.5 -9.5t-11.5 -21.5q0 -10 8.5 -26t18.5 -31l80 -116l84 114q8 11 18 29t10 32q0 18 -16.5 23.5t-39.5 5.5h-4v57h240v-57h-9q-29 0 -49.5 -16t-49.5 -56
l-145 -194l184 -281q19 -30 40 -41.5t40 -11.5h13v-57h-354v57h5q60 0 60 33q0 11 -5.5 24.5t-27.5 44.5l-89 131l-107 -138q-9 -13 -17.5 -28.5t-8.5 -31.5t12.5 -25.5t45.5 -9.5h4v-57h-257z" />
    <glyph glyph-name="Y" unicode="Y" horiz-adv-x="720" 
d="M166 0v57h41q29 0 46.5 11t17.5 54v118l-185 364q-15 29 -27.5 41t-43.5 12h-13v57h359v-57h-10q-31 0 -48.5 -13.5t-17.5 -37.5q0 -25 15 -55l74 -147q14 -29 23 -51t17 -45q10 27 23.5 57.5t29.5 63.5l56 116q11 24 13.5 39t2.5 21q0 28 -16.5 40t-51.5 12h-21v57h269
v-57h-15q-27 0 -41.5 -15.5t-37.5 -62.5l-171 -340v-118q0 -42 16.5 -53t39.5 -11h49v-57h-393z" />
    <glyph glyph-name="Z" unicode="Z" horiz-adv-x="696" 
d="M44 0v54l375 595h-189q-48 0 -63 -25.5t-19 -69.5l-5 -59h-80l5 219h558v-55l-376 -594h202q46 0 69.5 16t33 40.5t11.5 50.5l5 47h80l-5 -219h-602z" />
    <glyph glyph-name="bracketleft" unicode="[" horiz-adv-x="436" 
d="M100 -128v888h299v-57h-43q-34 0 -58 -12.5t-24 -59.5v-630q0 -47 24 -59.5t58 -12.5h43v-57h-299z" />
    <glyph glyph-name="backslash" unicode="\" horiz-adv-x="288" 
d="M211 -121l-211 881h76l212 -881h-77z" />
    <glyph glyph-name="bracketright" unicode="]" horiz-adv-x="436" 
d="M37 -128v57h43q34 0 58 12.5t24 59.5v630q0 47 -24 59.5t-58 12.5h-43v57h299v-888h-299z" />
    <glyph glyph-name="asciicircum" unicode="^" horiz-adv-x="564" 
d="M41 249l217 465h46l218 -465h-83l-158 349l-158 -349h-82z" />
    <glyph glyph-name="underscore" unicode="_" horiz-adv-x="459" 
d="M-5 -142v59h469v-59h-469z" />
    <glyph glyph-name="grave" unicode="`" horiz-adv-x="358" 
d="M238 606q-25 14 -55.5 33.5t-59.5 41.5t-51.5 42t-31.5 33v10h177q11 -22 29 -49t38 -53t34 -45v-13h-80z" />
    <glyph glyph-name="a" unicode="a" horiz-adv-x="614" 
d="M200 -10q-65 0 -111 40.5t-46 123.5q0 82 55 121t167 43l82 3v54q0 53 -12 81.5t-45 28.5q-30 0 -44.5 -29t-14.5 -79q-73 0 -109.5 15.5t-36.5 53.5t29.5 60.5t78.5 33t108 10.5q110 0 165.5 -37.5t55.5 -131.5v-253q0 -41 13 -56t47 -15h4v-57h-207l-23 62h-9
q-23 -26 -42 -42t-43.5 -23t-61.5 -7zM268 67q36 0 57.5 34t21.5 90v73l-37 -3q-50 -3 -69.5 -30.5t-19.5 -79.5q0 -84 47 -84z" />
    <glyph glyph-name="b" unicode="b" horiz-adv-x="663" 
d="M414 -10q-58 0 -95 24.5t-59 63.5h-9l-33 -78h-202v57h7q17 0 34.5 5t28.5 19.5t11 45.5v509q0 42 -22.5 54.5t-54.5 12.5h-4v57h256v-166q0 -25 -2.5 -59.5t-5.5 -57.5h7q21 31 56.5 51.5t92.5 20.5q97 0 148 -66.5t51 -211.5q0 -146 -52.5 -213.5t-152.5 -67.5zM362 69
q43 0 62 52.5t19 150.5q0 100 -19.5 149.5t-62.5 49.5q-53 0 -71 -49.5t-18 -150.5q0 -97 18.5 -149.5t71.5 -52.5z" />
    <glyph glyph-name="c" unicode="c" horiz-adv-x="541" 
d="M300 -10q-76 0 -134 25.5t-90 86t-32 165.5q0 108 33.5 169.5t91 87.5t128.5 26q74 0 120 -15t67 -39t21 -52q0 -21 -10.5 -43t-41.5 -36.5t-93 -14.5q0 36 -5 66.5t-17.5 49.5t-34.5 19q-25 0 -43.5 -19.5t-28.5 -66.5t-10 -131q0 -100 25 -149.5t81 -49.5q54 0 93.5 25
t55.5 60q14 -8 20.5 -22t6.5 -27q0 -25 -20.5 -52t-65.5 -45t-117 -18z" />
    <glyph glyph-name="d" unicode="d" horiz-adv-x="663" 
d="M246 -10q-98 0 -151 66.5t-53 210.5q0 145 53 213.5t149 68.5q56 0 89.5 -21t54.5 -52h6q-2 25 -3.5 57.5t-1.5 59.5v50q0 40 -23.5 50t-56.5 10h-8v57h264v-626q0 -46 21 -61.5t56 -15.5h6v-57h-208l-32 73h-7q-23 -38 -60 -60.5t-95 -22.5zM300 69q52 0 70.5 49.5
t18.5 151.5q0 97 -18.5 149t-70.5 52q-44 0 -62.5 -52.5t-18.5 -149.5q0 -101 18.5 -150.5t62.5 -49.5z" />
    <glyph glyph-name="e" unicode="e" horiz-adv-x="586" 
d="M314 -10q-136 0 -203 72.5t-67 203.5q0 141 67.5 212.5t190.5 71.5q114 0 179.5 -61t65.5 -180v-54h-326q2 -97 36 -141t97 -44q52 0 85 25t49 62q36 -13 36 -50q0 -29 -21.5 -56t-68 -44t-120.5 -17zM223 323h150q0 76 -16 117t-51 41q-37 0 -59.5 -40.5t-23.5 -117.5z
" />
    <glyph glyph-name="f" unicode="f" horiz-adv-x="422" 
d="M16 0v57h26q11 0 26.5 4.5t27.5 17.5t12 41v340h-88v76h88v32q0 94 50 147t165 53q69 0 106 -11t51 -28t14 -35q0 -32 -27.5 -52t-98.5 -20q0 15 -4 35t-13 35t-24 15q-22 0 -33 -25.5t-11 -92.5v-53h137v-76h-137v-340q0 -28 11.5 -41t27 -17.5t28.5 -4.5h51v-57h-385z
" />
    <glyph glyph-name="g" unicode="g" horiz-adv-x="569" 
d="M238 -236q-245 0 -245 134q0 50 37 80t102 34q-29 11 -54.5 31.5t-25.5 57.5q0 34 27.5 59t71.5 48q-48 15 -80.5 53.5t-32.5 103.5q0 89 54 137t169 48q37 0 68 -7t56 -20q25 28 50 43t61 15q35 0 53.5 -18t18.5 -42q0 -25 -16 -43.5t-59 -18.5q0 24 -12.5 34.5
t-24.5 10.5q-10 0 -18.5 -3t-14.5 -7q23 -21 39.5 -53.5t16.5 -72.5q0 -80 -52.5 -130t-165.5 -50q-11 0 -30 1t-28 2q-12 -4 -22.5 -17.5t-10.5 -29.5t13 -23t32 -7h120q104 0 153.5 -39.5t49.5 -114.5q0 -92 -74 -144t-226 -52zM259 251q41 0 53 32.5t12 81.5
q0 50 -12.5 85.5t-53.5 35.5q-40 0 -53.5 -36t-13.5 -86q0 -48 14 -80.5t54 -32.5zM240 -172q163 0 163 90q0 24 -17.5 38t-55.5 14h-123q-17 0 -35.5 -6t-31.5 -21.5t-13 -44.5q0 -37 31.5 -53.5t81.5 -16.5z" />
    <glyph glyph-name="h" unicode="h" horiz-adv-x="680" 
d="M21 0v57h3q31 0 52 12t21 56v519q0 26 -12 38.5t-28 16.5t-27 4h-14v57h256v-150q0 -40 -2 -81t-4 -56h8q24 41 59 59t92 18q81 0 122.5 -45.5t41.5 -146.5v-230q0 -46 14 -58.5t48 -12.5h4v-57h-242v322q0 64 -15 99.5t-52 35.5q-30 0 -46 -22.5t-21.5 -57.5t-5.5 -72
v-183q0 -41 16.5 -53t49.5 -12h4v-57h-322z" />
    <glyph glyph-name="i" unicode="i" horiz-adv-x="365" 
d="M175 622q-41 0 -68.5 19t-27.5 57q0 40 27.5 58t68.5 18q39 0 68.5 -18t29.5 -58q0 -38 -29.5 -57t-68.5 -19zM14 0v57h12q26 0 46.5 14t20.5 56v288q0 38 -21 51t-46 13h-16v57h258v-411q0 -41 20.5 -54.5t45.5 -13.5h12v-57h-332z" />
    <glyph glyph-name="j" unicode="j" horiz-adv-x="363" 
d="M181 622q-41 0 -69 19t-28 57q0 40 28 58t69 18q39 0 68 -18t29 -58q0 -38 -29 -57t-68 -19zM-23 -240v68h7q55 0 84 37.5t29 138.5v409q0 43 -23.5 54.5t-55.5 11.5h-3v57h257v-544q0 -90 -35 -140.5t-97 -71t-142 -20.5h-21z" />
    <glyph glyph-name="k" unicode="k" horiz-adv-x="657" 
d="M16 0v57h14q12 0 27.5 4.5t27.5 17.5t12 41v524q0 26 -12 38.5t-28 16.5t-27 4h-14v57h256v-383q0 -17 -1 -38t-2 -38t-2 -22l126 142q10 12 13 19.5t3 12.5q0 13 -14 21.5t-39 8.5v53h264v-53q-34 0 -68 -19t-73 -63l-55 -64l133 -198q55 -82 96 -82h3v-57h-14
q-59 0 -99.5 3.5t-68.5 14t-48.5 30t-40.5 51.5l-80 128l-33 -28v-77q0 -28 12 -42t27.5 -18.5t26.5 -4.5h16v-57h-338z" />
    <glyph glyph-name="l" unicode="l" horiz-adv-x="369" 
d="M19 0v57h11q25 0 46 13.5t21 54.5v519q0 26 -12 38.5t-28 16.5t-27 4h-11v57h253v-635q0 -41 21 -54.5t46 -13.5h11v-57h-331z" />
    <glyph glyph-name="m" unicode="m" horiz-adv-x="1002" 
d="M17 0v57h3q34 0 53.5 12t19.5 56v294q0 41 -18.5 52.5t-51.5 11.5h-3v53h231l13 -67h5q24 43 61 62t98 19q56 0 93.5 -19.5t54.5 -61.5h7q23 43 62.5 62t96.5 19q80 0 124.5 -45.5t44.5 -146.5v-230q0 -46 14.5 -58.5t48.5 -12.5h4v-57h-242v322q0 64 -15.5 99.5
t-54.5 35.5q-28 0 -44.5 -19.5t-24.5 -51.5t-8 -70v-188q0 -46 14 -58.5t48 -12.5h4v-57h-241v322q0 64 -15 99.5t-54 35.5q-29 0 -45.5 -21.5t-24 -56t-7.5 -74.5v-183q0 -41 17.5 -53t50.5 -12h3v-57h-322z" />
    <glyph glyph-name="n" unicode="n" horiz-adv-x="676" 
d="M17 0v57h3q34 0 53.5 12t19.5 56v290q0 41 -17.5 52.5t-50.5 11.5h-3v57h229l13 -67h5q24 42 59.5 61.5t92.5 19.5q79 0 121.5 -45.5t42.5 -146.5v-230q0 -46 14 -58.5t48 -12.5h4v-57h-241v322q0 64 -14 99.5t-52 35.5q-29 0 -45.5 -21.5t-23.5 -56t-7 -74.5v-183
q0 -41 17.5 -53t50.5 -12h3v-57h-322z" />
    <glyph glyph-name="o" unicode="o" horiz-adv-x="628" 
d="M312 -10q-124 0 -196 70t-72 211t69 210t202 69q125 0 197 -69t72 -210t-69 -211t-203 -70zM314 57q51 0 71.5 54.5t20.5 159.5t-21 158t-72 53t-71 -53t-20 -158t20.5 -159.5t71.5 -54.5z" />
    <glyph glyph-name="p" unicode="p" horiz-adv-x="658" 
d="M11 -230v58h13q12 0 27.5 4t27.5 17t12 41v518q0 46 -17 58.5t-43 12.5h-6v57h205l21 -73h4q22 36 58.5 59.5t94.5 23.5q100 0 152.5 -68t52.5 -213t-52 -211.5t-153 -66.5q-52 0 -85.5 18t-55.5 50h-6q2 -24 4 -56.5t2 -58.5v-48q0 -28 11.5 -41.5t27.5 -18t27 -4.5h29
v-58h-351zM354 65q44 0 63.5 48.5t19.5 149.5q0 97 -19 150.5t-62 53.5q-52 0 -70.5 -53.5t-18.5 -148.5q0 -103 18 -151.5t69 -48.5z" />
    <glyph glyph-name="q" unicode="q" horiz-adv-x="662" 
d="M287 -230v58h22q32 0 56 9.5t24 48.5v60q0 29 2.5 60.5t4.5 54.5h-7q-20 -30 -55 -50.5t-90 -20.5q-96 0 -149 67.5t-53 212.5q0 144 54 210t156 66q55 0 91.5 -23.5t59.5 -64.5h8l20 78h219v-57h-4q-22 0 -40 -5t-29.5 -19.5t-11.5 -45.5v-521q0 -40 23.5 -50t56.5 -10
h11v-58h-369zM300 68q52 0 70.5 52t18.5 147q0 103 -18.5 151.5t-70.5 48.5q-44 0 -62.5 -48.5t-18.5 -149.5q0 -97 18.5 -149t62.5 -52z" />
    <glyph glyph-name="r" unicode="r" horiz-adv-x="544" 
d="M15 0v57h4q34 0 53.5 12.5t19.5 59.5v282q0 44 -17 56t-50 12h-3v57h219l20 -86h5q23 52 57 75.5t94 23.5q59 0 85.5 -25.5t26.5 -65.5q0 -52 -37.5 -76.5t-101.5 -24.5q0 41 -9 63t-37 22t-45 -26t-24 -63t-7 -68v-161q0 -44 18 -55.5t47 -11.5h34v-57h-352z" />
    <glyph glyph-name="s" unicode="s" horiz-adv-x="496" 
d="M238 -10q-79 0 -125 15.5t-66 42.5t-20 60q0 30 15 47t38 24t47 7q0 -66 31.5 -98t80.5 -32t71 18t22 43q0 31 -28 50t-94 39q-86 27 -130.5 65.5t-44.5 111.5q0 85 62 125.5t164 40.5q66 0 106 -14t58.5 -36t18.5 -45q0 -35 -25 -53t-81 -18q0 49 -25.5 76t-67.5 27
q-31 0 -53.5 -14t-22.5 -41q0 -20 11 -34.5t38.5 -27.5t78.5 -29q49 -16 87 -37t59 -53t21 -80q0 -82 -58 -131t-168 -49z" />
    <glyph glyph-name="t" unicode="t" horiz-adv-x="426" 
d="M254 -10q-73 0 -115.5 35.5t-42.5 123.5v315h-74v55q38 0 64.5 14.5t41.5 31.5q14 15 26 39.5t20 56.5h98v-125h126v-72h-126v-299q0 -43 13 -62.5t49 -19.5q20 0 38.5 2.5t34.5 6.5v-73q-17 -8 -56 -18.5t-97 -10.5z" />
    <glyph glyph-name="u" unicode="u" horiz-adv-x="680" 
d="M257 -10q-85 0 -125.5 49t-40.5 150v218q0 43 -11.5 57.5t-49.5 14.5h-3v57h240v-310q0 -64 13.5 -103.5t50.5 -39.5q41 0 59 40t18 108v187q0 42 -17.5 51.5t-44.5 9.5h-4v57h241v-417q0 -43 16.5 -52.5t44.5 -9.5h10v-57h-215l-26 67h-5q-26 -42 -63 -59.5t-88 -17.5z
" />
    <glyph glyph-name="v" unicode="v" horiz-adv-x="617" 
d="M241 0l-160 433q-11 27 -27 36.5t-50 9.5v57h328v-57h-38q-37 0 -37 -30q0 -12 3 -23t6 -20l66 -189q10 -29 18 -56t12 -51q4 21 10.5 44.5t11.5 39.5l66 204q4 14 7.5 26.5t3.5 26.5q0 28 -41 28h-24v57h222v-57h-23q-19 0 -32.5 -13.5t-28.5 -57.5l-139 -408h-154z" />
    <glyph glyph-name="w" unicode="w" horiz-adv-x="854" 
d="M196 0l-127 426q-11 32 -26 42.5t-44 10.5h-4v57h314v-57h-13q-30 0 -45 -8.5t-15 -33.5q0 -8 2.5 -20.5t5.5 -23.5l30 -114q9 -36 17 -70.5t11 -57.5h4q4 24 11 49t17 52l102 278h65l96 -295q9 -25 13.5 -47t6.5 -38h3q4 24 9 43t14 47l41 140q4 13 6.5 27.5t2.5 22.5
q0 49 -66 49h-7v57h235v-57h-13q-29 0 -44 -15t-31 -63l-129 -401h-119l-98 297l-104 -297h-121z" />
    <glyph glyph-name="x" unicode="x" horiz-adv-x="673" 
d="M13 0v57h9q36 0 57 14t52 50l126 148l-126 157q-42 53 -86 53h-13v57h335v-57h-4q-31 0 -42 -8.5t-11 -20.5q0 -19 23 -46l52 -60l43 50q12 15 19.5 27.5t7.5 26.5q0 18 -12.5 24.5t-34.5 6.5h-3v57h233v-57h-9q-29 0 -48 -13.5t-52 -51.5l-104 -121l147 -183
q44 -53 80 -53h13v-57h-342v57h5q60 0 60 33q0 11 -6 25.5t-32 43.5l-53 61l-66 -82q-9 -12 -15.5 -24t-6.5 -23q0 -17 14 -25.5t47 -8.5h4v-57h-261z" />
    <glyph glyph-name="y" unicode="y" horiz-adv-x="584" 
d="M23 -230v63q70 0 112.5 20t66.5 55.5t40 82.5l-178 442q-11 28 -25 35t-36 8h-5v60h306v-57h-4q-59 0 -59 -35q0 -9 3.5 -20.5t6.5 -20.5l60 -169q12 -33 18 -58.5t8 -44.5q2 22 8 42l9 30l63 188q3 9 7 25.5t4 25.5q0 20 -15.5 28t-46.5 9h-4v57h222v-57h-4
q-27 -1 -44.5 -17.5t-31.5 -53.5l-151 -406q-25 -69 -48.5 -114t-55 -71t-80.5 -36.5t-126 -10.5h-20z" />
    <glyph glyph-name="z" unicode="z" horiz-adv-x="536" 
d="M8 0v42l297 422h-123q-28 0 -43 -12.5t-25 -53.5l-8 -32h-67l13 170h451v-44l-297 -420h159q36 0 53 16.5t26 64.5l7 36h66l-5 -189h-504z" />
    <glyph glyph-name="braceleft" unicode="{" horiz-adv-x="447" 
d="M319 -124q-89 0 -135.5 40.5t-46.5 109.5v170q0 36 -15.5 55t-41.5 26t-58 8v68q32 1 58 8t41.5 25.5t15.5 54.5v172q0 70 46.5 108.5t135.5 38.5h107v-57h-43q-42 0 -54.5 -24t-12.5 -70v-170q0 -43 -25 -71t-84 -43v-11q57 -16 83 -44t26 -71v-171q0 -46 12.5 -70.5
t54.5 -24.5h43v-57h-107z" />
    <glyph glyph-name="bar" unicode="|" horiz-adv-x="564" 
d="M244 -240v1000h76v-1000h-76z" />
    <glyph glyph-name="braceright" unicode="}" horiz-adv-x="447" 
d="M22 -124v57h43q42 0 54 24.5t12 70.5v171q0 43 26.5 71t83.5 44v11q-59 15 -84.5 43t-25.5 71v170q0 46 -12 70t-54 24h-43v57h106q90 0 136 -38.5t46 -108.5v-172q0 -36 15.5 -54.5t42 -25.5t58.5 -8v-68q-32 -1 -58.5 -8t-42 -26t-15.5 -55v-170q0 -69 -46 -109.5
t-136 -40.5h-106z" />
    <glyph glyph-name="asciitilde" unicode="~" horiz-adv-x="564" 
d="M40 259q0 55 13 99.5t43 70t83 25.5q24 0 42 -6t38 -21t51 -40q32 -26 49 -37.5t33 -11.5q26 0 38 27t13 89h81q-3 -91 -30.5 -143t-101.5 -52q-38 0 -66 14.5t-71 51.5q-32 28 -47 39t-32 11q-28 0 -42.5 -26.5t-15.5 -89.5h-78z" />
    <glyph glyph-name="uni00A0" unicode="&#xa0;" horiz-adv-x="260" 
 />
    <glyph glyph-name="exclamdown" unicode="&#xa1;" horiz-adv-x="380" 
d="M228 301l61 -481h-198l60 481h77zM189 543q37 0 62.5 -19t25.5 -68q0 -50 -25.5 -68.5t-62.5 -18.5q-35 0 -61.5 18.5t-26.5 68.5q0 49 26.5 68t61.5 19z" />
    <glyph glyph-name="cent" unicode="&#xa2;" horiz-adv-x="564" 
d="M282 0v81q-72 5 -124 33.5t-80.5 87.5t-28.5 155q0 99 29.5 159.5t82 89t121.5 33.5v75h67v-75q98 -5 140.5 -36t42.5 -69q0 -21 -9.5 -42.5t-39 -36t-90.5 -14.5q0 43 -8.5 79t-35.5 50v-408q52 2 90 25.5t55 58.5q15 -8 21.5 -22t6.5 -27q0 -23 -19 -48t-57 -43.5
t-97 -23.5v-82h-67zM282 176v390q-29 -16 -43.5 -65t-14.5 -143q0 -72 13 -117t45 -65z" />
    <glyph glyph-name="sterling" unicode="&#xa3;" horiz-adv-x="564" 
d="M406 -10q-37 0 -67.5 7.5t-52.5 15.5q-28 9 -52.5 14.5t-50.5 5.5q-31 0 -59 -8.5t-54 -21.5l-34 -17v84l32 22q18 12 38 31.5t34 49t14 69.5q0 28 -5.5 50.5t-14.5 47.5h-117v66h93q-9 22 -19 57.5t-10 72.5q0 88 58.5 138t170.5 50q74 0 119.5 -16t66 -43.5t20.5 -60.5
q0 -36 -32 -60.5t-108 -24.5q0 33 -5.5 65t-21 53.5t-45.5 21.5q-34 0 -53 -27t-19 -84q0 -39 10 -79t20 -63h180v-66l-158 1q11 -39 11 -73q0 -38 -24.5 -72t-67.5 -64l3 -5q8 3 26 7t37 4q20 0 39 -4t45 -11q19 -5 38 -9t42 -4q31 0 58 16.5t47 45.5v-110
q-20 -29 -50 -50.5t-82 -21.5z" />
    <glyph glyph-name="currency" unicode="&#xa4;" horiz-adv-x="564" 
d="M125 147l-55 55l56 55q-28 41 -28 98q0 58 31 103l-57 58l53 53l58 -58q44 28 98 28q56 0 99 -29l60 60l53 -54l-59 -61q31 -43 31 -100q0 -54 -28 -98l56 -57l-53 -53l-56 56q-22 -14 -48.5 -22.5t-54.5 -8.5q-57 0 -101 30zM281 244q48 0 79 32.5t31 78.5
q0 48 -31 80.5t-79 32.5q-46 0 -78 -32.5t-32 -80.5q0 -46 32 -78.5t78 -32.5z" />
    <glyph glyph-name="yen" unicode="&#xa5;" horiz-adv-x="564" 
d="M109 0v57h23q33 0 51.5 13t19.5 49v38h-140v64h140v56h-140v64h123l-115 263q-13 30 -25 41.5t-33 11.5h-5v57h298v-57h-7q-55 0 -55 -39q0 -12 4.5 -26.5t11.5 -32.5l36 -91q13 -31 20.5 -56.5t11.5 -45.5q4 15 10.5 31t14.5 37l41 102q20 51 20 81q0 40 -57 40h-3v57
h200v-57h-3q-23 0 -36.5 -15.5t-33.5 -62.5l-102 -238h134v-64h-140v-56h140v-64h-140v-36q0 -39 18.5 -51.5t52.5 -12.5h23v-57h-358z" />
    <glyph glyph-name="brokenbar" unicode="&#xa6;" horiz-adv-x="564" 
d="M244 360v400h76v-400h-76zM244 -240v400h76v-400h-76z" />
    <glyph glyph-name="section" unicode="&#xa7;" horiz-adv-x="544" 
d="M278 -112q-64 0 -104 12.5t-62 32.5t-30 43t-8 44q0 38 26 60.5t74 22.5q0 -71 30.5 -115.5t88.5 -44.5q43 0 68.5 26.5t25.5 69.5q0 27 -12.5 47t-49.5 43t-109 59q-85 43 -120.5 86.5t-35.5 102.5q0 32 18.5 58.5t48.5 40.5q-17 17 -31 48.5t-14 73.5q0 51 26 87.5
t72 55.5t104 19q91 0 138 -32.5t47 -82.5q0 -30 -26.5 -53t-77.5 -23q0 29 -7 60t-25.5 52.5t-52.5 21.5q-39 0 -64 -24.5t-25 -68.5q0 -30 13 -49t36.5 -32t55.5 -29q76 -36 123.5 -66t69.5 -63t22 -78q0 -36 -19 -68.5t-47 -46.5q17 -22 27 -52t10 -58q0 -80 -52.5 -130
t-151.5 -50zM393 220q4 6 7 15.5t3 22.5q0 34 -24.5 63t-94.5 63q-32 15 -60.5 29t-52.5 29q-6 -8 -9 -18t-3 -20q0 -28 13 -48t43.5 -39.5t82.5 -44.5q33 -17 55 -29.5t40 -22.5z" />
    <glyph glyph-name="dieresis" unicode="&#xa8;" horiz-adv-x="577" 
d="M394 619q-27 0 -47.5 15.5t-20.5 53.5t20.5 53.5t47.5 15.5q25 0 46 -15.5t21 -53.5t-21 -53.5t-46 -15.5zM182 619q-26 0 -46.5 15.5t-20.5 53.5t20.5 53.5t46.5 15.5t47 -15.5t21 -53.5t-21 -53.5t-47 -15.5z" />
    <glyph glyph-name="copyright" unicode="&#xa9;" horiz-adv-x="845" 
d="M422 -10q-106 0 -189 45.5t-130.5 128t-47.5 194.5q0 111 47 193.5t130 128t190 45.5t190 -45.5t130.5 -128t47.5 -194.5q0 -111 -47.5 -193.5t-130.5 -128t-190 -45.5zM423 53q89 0 156 37.5t104 106.5t37 161q0 93 -37.5 161.5t-104.5 105.5t-155 37t-155 -37
t-105 -105.5t-38 -162.5q0 -95 38.5 -163.5t105.5 -104.5t154 -36zM428 124q-105 0 -158 64t-53 170q0 103 57.5 167.5t167.5 64.5q71 0 106 -24t35 -58q0 -24 -20.5 -37.5t-49.5 -13.5q0 30 -16.5 54.5t-56.5 24.5q-70 0 -99 -46t-29 -132t33.5 -132.5t95.5 -46.5
q50 0 81.5 20t44.5 47q18 -10 18 -35q0 -20 -17.5 -40t-52.5 -33.5t-87 -13.5z" />
    <glyph glyph-name="ordfeminine" unicode="&#xaa;" horiz-adv-x="435" 
d="M138 380q-52 0 -81.5 25.5t-29.5 74.5q0 97 170 104l48 2v25q0 28 -6.5 45.5t-32.5 17.5t-32.5 -19t-6.5 -44q-58 0 -85.5 7.5t-27.5 30.5q0 34 42 52t115 18q79 0 119 -24t40 -80v-143q0 -22 9.5 -30t33.5 -8v-48h-128l-24 50h-7q-19 -22 -47 -39t-69 -17zM187 443
q30 0 44 18t14 44v39l-20 -1q-38 -1 -55 -16t-17 -41q0 -22 10.5 -32.5t23.5 -10.5z" />
    <glyph glyph-name="guillemotleft" unicode="&#xab;" horiz-adv-x="570" 
d="M427 66l-153 174v60l153 174h78l-101 -204l101 -204h-78zM218 66l-153 174v60l153 174h78l-101 -204l101 -204h-78z" />
    <glyph glyph-name="logicalnot" unicode="&#xac;" horiz-adv-x="564" 
d="M420 146v179h-358v76h435v-255h-77z" />
    <glyph glyph-name="uni00AD" unicode="&#xad;" horiz-adv-x="310" 
d="M25 214v117h260v-117h-260z" />
    <glyph glyph-name="registered" unicode="&#xae;" horiz-adv-x="845" 
d="M422 -10q-106 0 -189 45.5t-130.5 128t-47.5 194.5q0 111 47 193.5t130 128t190 45.5t190 -45.5t130.5 -128t47.5 -194.5q0 -111 -47.5 -193.5t-130.5 -128t-190 -45.5zM423 50q91 0 158 38t104.5 107t37.5 163t-38 163t-105.5 106.5t-156.5 37.5t-157 -37.5t-106 -106.5
t-38 -164q0 -97 39 -165.5t107 -105t155 -36.5zM232 141v37h13q18 0 32 6t14 29v287q0 23 -14 29t-32 6h-13v44h183q176 0 176 -125q0 -50 -29.5 -76t-65.5 -38l89 -136q10 -16 19.5 -21t31.5 -5v-37h-105l-113 183h-46v-111q0 -23 15 -29t34 -6h14v-37h-203zM372 371h42
q52 0 71.5 20t19.5 62q0 41 -21.5 58.5t-72.5 17.5h-39v-158z" />
    <glyph glyph-name="overscore" unicode="&#xaf;" horiz-adv-x="459" 
d="M-5 760v59h469v-59h-469z" />
    <glyph glyph-name="degree" unicode="&#xb0;" horiz-adv-x="400" 
d="M199 412q-71 0 -116 43.5t-45 113.5q0 69 45 113t116 44q47 0 84 -20t57.5 -55.5t20.5 -81.5q0 -70 -45.5 -113.5t-116.5 -43.5zM200 489q36 0 56.5 22t20.5 59t-21 58.5t-56 21.5q-36 0 -57 -21.5t-21 -58.5t20.5 -59t57.5 -22z" />
    <glyph glyph-name="plusminus" unicode="&#xb1;" horiz-adv-x="564" 
d="M244 139v181h-182v75h182v181h76v-181h182v-75h-182v-181h-76zM62 0v75h440v-75h-440z" />
    <glyph glyph-name="uni00B2" unicode="&#xb2;" horiz-adv-x="400" 
d="M29 387v86l102 82q55 44 78 79.5t23 77.5q0 28 -11.5 44.5t-35.5 16.5q-23 0 -34.5 -14t-14.5 -35.5t-3 -44.5q-47 0 -72.5 13.5t-25.5 44.5q0 37 39.5 62.5t118.5 25.5q89 0 126.5 -32.5t37.5 -81.5q0 -32 -14 -59.5t-52.5 -58t-111.5 -72.5l-67 -43h172q20 0 29 8
t12 22l5 30h38l-4 -151h-335z" />
    <glyph glyph-name="uni00B3" unicode="&#xb3;" horiz-adv-x="400" 
d="M171 380q-76 0 -112.5 25t-36.5 62q0 23 17.5 37t52.5 14q0 -37 19 -59t53 -22t56 17t22 60q0 31 -20 49.5t-70 18.5h-35v53h35q38 0 56.5 21t18.5 58q0 60 -47 60q-32 0 -41 -25t-9 -59q-44 0 -68.5 10t-24.5 36q0 37 38 62.5t118 25.5t119.5 -27t39.5 -74
q0 -43 -26.5 -69t-69.5 -37v-5q48 -7 81 -31t33 -70q0 -43 -26 -72.5t-71 -44t-102 -14.5z" />
    <glyph glyph-name="acute" unicode="&#xb4;" horiz-adv-x="358" 
d="M40 606v13q14 19 34 45t38 53t29 49h177v-10q-9 -13 -31.5 -33t-51.5 -42t-59.5 -41.5t-55.5 -33.5h-80z" />
    <glyph glyph-name="uni00B5" unicode="&#xb5;" horiz-adv-x="685" 
d="M178 -240q-40 0 -69.5 30t-29.5 106q0 40 2.5 84t5.5 103t4 142v311h175v-328q0 -33 6 -61.5t20 -46t40 -17.5q37 0 58 42t21 110v301h176v-394q0 -46 15 -65.5t55 -19.5h8v-57h-100q-55 0 -92 25.5t-51 64.5h-6q-23 -46 -52.5 -73t-82.5 -27q-41 0 -70 15.5t-49 43.5
q0 -55 8 -98.5t33 -70.5t76 -33q0 -37 -27.5 -62t-73.5 -25z" />
    <glyph glyph-name="paragraph" unicode="&#xb6;" horiz-adv-x="631" 
d="M169 -111v57h13q22 0 41 4.5t30 20t11 46.5v369h-71q-59 0 -92 27.5t-47 72t-14 96.5q0 80 35 129t120 49h396v-57h-13q-34 0 -58 -12.5t-24 -59.5v-614q0 -31 11 -46.5t30 -20t41 -4.5h13v-57h-171v805h-80v-805h-171z" />
    <glyph glyph-name="periodcentered" unicode="&#xb7;" horiz-adv-x="312" 
d="M156 270q-38 0 -64 18.5t-26 65.5q0 49 26 67t64 18q36 0 62.5 -18t26.5 -67q0 -47 -26.5 -65.5t-62.5 -18.5z" />
    <glyph glyph-name="cedilla" unicode="&#xb8;" horiz-adv-x="333" 
d="M137 -240q-16 0 -44.5 3t-46.5 8v65q38 -8 68 -8q28 0 44.5 8t16.5 34q0 29 -21.5 37t-53.5 10l21 92h61l-10 -43q49 -4 80 -28t31 -64q0 -53 -41 -83.5t-105 -30.5z" />
    <glyph glyph-name="uni00B9" unicode="&#xb9;" horiz-adv-x="400" 
d="M54 387v53h48q20 0 35 9t15 34v267q-22 -31 -40 -50t-37 -19t-31 16t-12 41q15 4 38.5 15t46.5 27l54 39h97v-336q0 -25 14 -34t34 -9h42v-53h-304z" />
    <glyph glyph-name="ordmasculine" unicode="&#xba;" horiz-adv-x="453" 
d="M226 380q-91 0 -141 42t-50 128q0 169 193 169q88 0 139 -41.5t51 -127.5t-49 -128t-143 -42zM227 434q35 0 49 29.5t14 86.5q0 56 -15 84.5t-49 28.5t-48 -28.5t-14 -84.5q0 -57 14 -86.5t49 -29.5z" />
    <glyph glyph-name="guillemotright" unicode="&#xbb;" horiz-adv-x="570" 
d="M274 66l101 204l-101 204h78l153 -174v-60l-153 -174h-78zM65 66l101 204l-101 204h78l153 -174v-60l-153 -174h-78z" />
    <glyph glyph-name="onequarter" unicode="&#xbc;" horiz-adv-x="840" 
d="M8 287v53h48q20 0 35 9t15 34v267q-22 -31 -40 -50t-37 -19t-31 16t-12 41q15 4 38.5 15t46.5 27l54 39h97v-336q0 -25 14 -34t34 -9h42v-53h-304zM201 0l357 714h82l-356 -714h-83zM560 0v50h34q16 0 28.5 6t12.5 30v31h-188v47l193 268h108v-255h74v-60h-74v-31
q0 -24 13 -30t29 -6h23v-50h-253zM516 177h119v114q0 16 1 31.5t3 34.5q-5 -11 -10 -21t-9 -16z" />
    <glyph glyph-name="onehalf" unicode="&#xbd;" horiz-adv-x="840" 
d="M14 287v53h48q20 0 35 9t15 34v267q-22 -31 -40 -50t-37 -19t-31 16t-12 41q15 4 38.5 15t46.5 27l54 39h97v-336q0 -25 14 -34t34 -9h42v-53h-304zM186 0l357 714h82l-356 -714h-83zM488 0v86l102 82q55 44 78 79.5t23 77.5q0 28 -11.5 44.5t-35.5 16.5q-23 0 -34.5 -14
t-14.5 -35.5t-3 -44.5q-47 0 -72.5 13.5t-25.5 44.5q0 37 39.5 62.5t118.5 25.5q89 0 126.5 -32.5t37.5 -81.5q0 -32 -14 -59.5t-52.5 -58t-111.5 -72.5l-67 -43h172q20 0 29 8t12 22l5 30h38l-4 -151h-335z" />
    <glyph glyph-name="threequarters" unicode="&#xbe;" horiz-adv-x="840" 
d="M171 280q-76 0 -112.5 25t-36.5 62q0 23 17.5 37t52.5 14q0 -37 19 -59t53 -22t56 17t22 60q0 31 -20 49.5t-70 18.5h-35v53h35q38 0 56.5 21t18.5 58q0 60 -47 60q-32 0 -41 -25t-9 -59q-44 0 -68.5 10t-24.5 36q0 37 38 62.5t118 25.5t119.5 -27t39.5 -74
q0 -43 -26.5 -69t-69.5 -37v-5q48 -7 81 -31t33 -70q0 -43 -26 -72.5t-71 -44t-102 -14.5zM221 0l357 714h82l-356 -714h-83zM560 0v50h34q16 0 28.5 6t12.5 30v31h-188v47l193 268h108v-255h74v-60h-74v-31q0 -24 13 -30t29 -6h23v-50h-253zM516 177h119v114q0 16 1 31.5
t3 34.5q-5 -11 -10 -21t-9 -16z" />
    <glyph glyph-name="questiondown" unicode="&#xbf;" horiz-adv-x="554" 
d="M342 299l19 -117q-57 -26 -86.5 -57.5t-40.5 -68.5t-11 -78q0 -49 18 -77.5t53 -28.5q38 0 55.5 36.5t17.5 103.5q72 0 113 -17.5t41 -60.5q0 -33 -23.5 -61.5t-73 -46.5t-126.5 -18q-76 0 -133 22t-89 63.5t-32 99.5q0 79 48.5 127t150.5 91l19 88h80zM304 541
q37 0 62.5 -19t25.5 -68q0 -50 -25.5 -68.5t-62.5 -18.5q-35 0 -62 18.5t-27 68.5q0 49 27 68t62 19z" />
    <glyph glyph-name="Agrave" unicode="&#xc0;" horiz-adv-x="772" 
d="M6 0v57h9q26 0 45.5 13.5t36.5 57.5l214 586h161l207 -587q13 -38 33 -54t46 -16h14v-57h-352v57h40q15 0 28.5 7.5t13.5 27.5q0 14 -3.5 26.5t-6.5 19.5l-33 95h-234l-26 -78q-4 -12 -8.5 -30.5t-4.5 -31.5q0 -36 40 -36h46v-57h-266zM246 299h192l-55 179q-9 29 -19 64
t-17 69q-8 -32 -18.5 -66.5t-21.5 -64.5zM376 771q-25 14 -55.5 33.5t-59.5 41.5t-51.5 42t-31.5 33v10h177q11 -22 29 -49t38 -53t34 -45v-13h-80z" />
    <glyph glyph-name="Aacute" unicode="&#xc1;" horiz-adv-x="772" 
d="M6 0v57h9q26 0 45.5 13.5t36.5 57.5l214 586h161l207 -587q13 -38 33 -54t46 -16h14v-57h-352v57h40q15 0 28.5 7.5t13.5 27.5q0 14 -3.5 26.5t-6.5 19.5l-33 95h-234l-26 -78q-4 -12 -8.5 -30.5t-4.5 -31.5q0 -36 40 -36h46v-57h-266zM246 299h192l-55 179q-9 29 -19 64
t-17 69q-8 -32 -18.5 -66.5t-21.5 -64.5zM314 771v13q14 19 34 45t38 53t29 49h177v-10q-9 -13 -31.5 -33t-51.5 -42t-59.5 -41.5t-55.5 -33.5h-80z" />
    <glyph glyph-name="Acircumflex" unicode="&#xc2;" horiz-adv-x="772" 
d="M6 0v57h9q26 0 45.5 13.5t36.5 57.5l214 586h161l207 -587q13 -38 33 -54t46 -16h14v-57h-352v57h40q15 0 28.5 7.5t13.5 27.5q0 14 -3.5 26.5t-6.5 19.5l-33 95h-234l-26 -78q-4 -12 -8.5 -30.5t-4.5 -31.5q0 -36 40 -36h46v-57h-266zM246 299h192l-55 179q-9 29 -19 64
t-17 69q-8 -32 -18.5 -66.5t-21.5 -64.5zM202 771v13q16 19 38.5 45t44 53t31.5 49h151q11 -22 32 -49t44 -53t38 -45v-13h-81q-12 11 -32 27.5t-41 33.5t-36 29q-15 -12 -36 -29t-40.5 -33.5t-31.5 -27.5h-81z" />
    <glyph glyph-name="Atilde" unicode="&#xc3;" horiz-adv-x="772" 
d="M6 0v57h9q26 0 45.5 13.5t36.5 57.5l214 586h161l207 -587q13 -38 33 -54t46 -16h14v-57h-352v57h40q15 0 28.5 7.5t13.5 27.5q0 14 -3.5 26.5t-6.5 19.5l-33 95h-234l-26 -78q-4 -12 -8.5 -30.5t-4.5 -31.5q0 -36 40 -36h46v-57h-266zM246 299h192l-55 179q-9 29 -19 64
t-17 69q-8 -32 -18.5 -66.5t-21.5 -64.5zM458 771q-27 0 -49 9.5t-40.5 22t-35 22t-32.5 9.5q-20 0 -33 -16.5t-16 -36.5h-73q2 44 20.5 80.5t48 58t65.5 21.5q27 0 48.5 -9.5t40 -22t35 -22t32.5 -9.5q19 0 32.5 16.5t16.5 36.5h73q-2 -44 -20.5 -80.5t-48 -58t-64.5 -21.5
z" />
    <glyph glyph-name="Adieresis" unicode="&#xc4;" horiz-adv-x="772" 
d="M6 0v57h9q26 0 45.5 13.5t36.5 57.5l214 586h161l207 -587q13 -38 33 -54t46 -16h14v-57h-352v57h40q15 0 28.5 7.5t13.5 27.5q0 14 -3.5 26.5t-6.5 19.5l-33 95h-234l-26 -78q-4 -12 -8.5 -30.5t-4.5 -31.5q0 -36 40 -36h46v-57h-266zM246 299h192l-55 179q-9 29 -19 64
t-17 69q-8 -32 -18.5 -66.5t-21.5 -64.5zM490 784q-27 0 -47.5 15.5t-20.5 53.5t20.5 53.5t47.5 15.5q25 0 46 -15.5t21 -53.5t-21 -53.5t-46 -15.5zM278 784q-26 0 -46.5 15.5t-20.5 53.5t20.5 53.5t46.5 15.5t47 -15.5t21 -53.5t-21 -53.5t-47 -15.5z" />
    <glyph glyph-name="Aring" unicode="&#xc5;" horiz-adv-x="772" 
d="M6 0v57h9q26 0 45.5 13.5t36.5 57.5l203 558q-14 14 -22 34t-8 46q0 53 35 81t85 28t85 -28t35 -81q0 -50 -28 -80l192 -549q17 -46 36.5 -63t42.5 -17h19v-57h-352v57h46q9 0 22.5 8.5t13.5 27.5q0 13 -3.5 25.5t-6.5 19.5l-33 95h-234l-26 -78q-4 -12 -8.5 -30.5
t-4.5 -31.5q0 -17 13 -26.5t24 -9.5h49v-57h-266zM390 714q23 0 40 12t17 40t-17 39.5t-40 11.5q-22 0 -39 -11.5t-17 -39.5q0 -26 15 -38t41 -14zM246 299h192l-49 159q-8 30 -20 73t-20 78q-6 -19 -14.5 -46.5t-17.5 -54t-16 -46.5z" />
    <glyph glyph-name="AE" unicode="&#xc6;" horiz-adv-x="1010" 
d="M0 0v57h10q26 0 46.5 19.5t42.5 59.5l278 516l-61 5v57h628l4 -188h-77l-5 49q-4 38 -18.5 56t-47.5 18h-158v-244h236v-64h-236v-276h188q32 0 47.5 20.5t20.5 53.5l8 49h76l-7 -188h-606v57h37q30 0 42.5 16t12.5 47v105h-230l-37 -76q-8 -16 -12 -30t-4 -23
q0 -39 59 -39h16v-57h-253zM265 289h196v360h-8z" />
    <glyph glyph-name="Ccedilla" unicode="&#xc7;" horiz-adv-x="690" 
d="M410 -10q-119 0 -198 46t-118.5 128.5t-39.5 193.5q0 108 40 190.5t119 129t196 46.5q120 0 179.5 -34t59.5 -84q0 -39 -35 -66t-106 -27q0 33 -10 66t-33.5 55t-63.5 22q-88 0 -121.5 -78t-33.5 -220q0 -148 44 -215.5t151 -67.5q51 0 87.5 15.5t62 38.5t42.5 46
q7 -7 11.5 -20t4.5 -25q0 -22 -11 -46.5t-37.5 -45.5t-73 -34.5t-116.5 -13.5zM377 -240q-16 0 -44.5 3t-46.5 8v65q38 -8 68 -8q28 0 44.5 8t16.5 34q0 29 -21.5 37t-53.5 10l21 92h61l-10 -43q49 -4 80 -28t31 -64q0 -53 -41 -83.5t-105 -30.5z" />
    <glyph glyph-name="Egrave" unicode="&#xc8;" horiz-adv-x="665" 
d="M24 0v57h47q21 0 33.5 12.5t12.5 41.5v487q0 38 -14 48.5t-33 10.5h-46v57h576l3 -188h-77l-5 49q-4 38 -18 56t-47 18h-158v-244h236v-64h-236v-276h188q32 0 47 20.5t20 53.5l8 49h76l-7 -188h-606zM341 771q-25 14 -55.5 33.5t-59.5 41.5t-51.5 42t-31.5 33v10h177
q11 -22 29 -49t38 -53t34 -45v-13h-80z" />
    <glyph glyph-name="Eacute" unicode="&#xc9;" horiz-adv-x="665" 
d="M24 0v57h47q21 0 33.5 12.5t12.5 41.5v487q0 38 -14 48.5t-33 10.5h-46v57h576l3 -188h-77l-5 49q-4 38 -18 56t-47 18h-158v-244h236v-64h-236v-276h188q32 0 47 20.5t20 53.5l8 49h76l-7 -188h-606zM251 771v13q14 19 34 45t38 53t29 49h177v-10q-9 -13 -31.5 -33
t-51.5 -42t-59.5 -41.5t-55.5 -33.5h-80z" />
    <glyph glyph-name="Ecircumflex" unicode="&#xca;" horiz-adv-x="665" 
d="M24 0v57h47q21 0 33.5 12.5t12.5 41.5v487q0 38 -14 48.5t-33 10.5h-46v57h576l3 -188h-77l-5 49q-4 38 -18 56t-47 18h-158v-244h236v-64h-236v-276h188q32 0 47 20.5t20 53.5l8 49h76l-7 -188h-606zM129 771v13q16 19 38.5 45t44 53t31.5 49h151q11 -22 32 -49t44 -53
t38 -45v-13h-81q-12 11 -32 27.5t-41 33.5t-36 29q-15 -12 -36 -29t-40.5 -33.5t-31.5 -27.5h-81z" />
    <glyph glyph-name="Edieresis" unicode="&#xcb;" horiz-adv-x="665" 
d="M24 0v57h47q21 0 33.5 12.5t12.5 41.5v487q0 38 -14 48.5t-33 10.5h-46v57h576l3 -188h-77l-5 49q-4 38 -18 56t-47 18h-158v-244h236v-64h-236v-276h188q32 0 47 20.5t20 53.5l8 49h76l-7 -188h-606zM451 784q-27 0 -47.5 15.5t-20.5 53.5t20.5 53.5t47.5 15.5
q25 0 46 -15.5t21 -53.5t-21 -53.5t-46 -15.5zM239 784q-26 0 -46.5 15.5t-20.5 53.5t20.5 53.5t46.5 15.5t47 -15.5t21 -53.5t-21 -53.5t-47 -15.5z" />
    <glyph glyph-name="Igrave" unicode="&#xcc;" horiz-adv-x="415" 
d="M24 0v57h48q17 0 31 12t14 44v485q0 34 -14 46.5t-31 12.5h-48v57h367v-57h-49q-20 0 -32 -12.5t-12 -46.5v-484q0 -32 13 -44.5t31 -12.5h49v-57h-367zM216 771q-25 14 -55.5 33.5t-59.5 41.5t-51.5 42t-31.5 33v10h177q11 -22 29 -49t38 -53t34 -45v-13h-80z" />
    <glyph glyph-name="Iacute" unicode="&#xcd;" horiz-adv-x="415" 
d="M24 0v57h48q17 0 31 12t14 44v485q0 34 -14 46.5t-31 12.5h-48v57h367v-57h-49q-20 0 -32 -12.5t-12 -46.5v-484q0 -32 13 -44.5t31 -12.5h49v-57h-367zM119 771v13q14 19 34 45t38 53t29 49h177v-10q-9 -13 -31.5 -33t-51.5 -42t-59.5 -41.5t-55.5 -33.5h-80z" />
    <glyph glyph-name="Icircumflex" unicode="&#xce;" horiz-adv-x="415" 
d="M24 0v57h48q17 0 31 12t14 44v485q0 34 -14 46.5t-31 12.5h-48v57h367v-57h-49q-20 0 -32 -12.5t-12 -46.5v-484q0 -32 13 -44.5t31 -12.5h49v-57h-367zM18 771v13q16 19 38.5 45t44 53t31.5 49h151q11 -22 32 -49t44 -53t38 -45v-13h-81q-12 11 -32 27.5t-41 33.5
t-36 29q-15 -12 -36 -29t-40.5 -33.5t-31.5 -27.5h-81z" />
    <glyph glyph-name="Idieresis" unicode="&#xcf;" horiz-adv-x="415" 
d="M24 0v57h48q17 0 31 12t14 44v485q0 34 -14 46.5t-31 12.5h-48v57h367v-57h-49q-20 0 -32 -12.5t-12 -46.5v-484q0 -32 13 -44.5t31 -12.5h49v-57h-367zM314 784q-27 0 -47.5 15.5t-20.5 53.5t20.5 53.5t47.5 15.5q25 0 46 -15.5t21 -53.5t-21 -53.5t-46 -15.5zM102 784
q-26 0 -46.5 15.5t-20.5 53.5t20.5 53.5t46.5 15.5t47 -15.5t21 -53.5t-21 -53.5t-47 -15.5z" />
    <glyph glyph-name="Eth" unicode="&#xd0;" horiz-adv-x="783" 
d="M24 0v57h48q20 0 32.5 13.5t12.5 45.5v225h-79v65h79v193q0 34 -14 46t-35 12h-44v57h340q170 0 267.5 -84.5t97.5 -254.5q0 -109 -41.5 -194t-122.5 -133t-201 -48h-340zM297 66h43q64 0 108 38t66 107.5t22 163.5q0 141 -49.5 207.5t-145.5 66.5h-44v-243h107v-65h-107
v-275z" />
    <glyph glyph-name="Ntilde" unicode="&#xd1;" horiz-adv-x="798" 
d="M24 0v57h37q25 0 40.5 11t15.5 52v478q0 38 -15.5 48.5t-35.5 10.5h-42v57h238l351 -477v361q0 35 -14.5 47t-34.5 12h-43v57h265v-57h-43q-22 0 -36 -12.5t-14 -50.5v-594h-100l-396 541v-421q0 -41 13 -52t36 -11h43v-57h-265zM480 771q-27 0 -49 9.5t-40.5 22t-35 22
t-32.5 9.5q-20 0 -33 -16.5t-16 -36.5h-73q2 44 20.5 80.5t48 58t65.5 21.5q27 0 48.5 -9.5t40 -22t35 -22t32.5 -9.5q19 0 32.5 16.5t16.5 36.5h73q-2 -44 -20.5 -80.5t-48 -58t-64.5 -21.5z" />
    <glyph glyph-name="Ograve" unicode="&#xd2;" horiz-adv-x="805" 
d="M403 -10q-117 0 -194.5 46t-116 129t-38.5 194t38.5 193t116 127.5t195.5 45.5q111 0 188.5 -45.5t118 -128t40.5 -193.5t-40.5 -193.5t-118.5 -128.5t-189 -46zM403 59q86 0 121.5 79t35.5 220t-35 219.5t-121 78.5t-122.5 -78.5t-36.5 -219.5t36.5 -220t121.5 -79z
M403 771q-25 14 -55.5 33.5t-59.5 41.5t-51.5 42t-31.5 33v10h177q11 -22 29 -49t38 -53t34 -45v-13h-80z" />
    <glyph glyph-name="Oacute" unicode="&#xd3;" horiz-adv-x="805" 
d="M403 -10q-117 0 -194.5 46t-116 129t-38.5 194t38.5 193t116 127.5t195.5 45.5q111 0 188.5 -45.5t118 -128t40.5 -193.5t-40.5 -193.5t-118.5 -128.5t-189 -46zM403 59q86 0 121.5 79t35.5 220t-35 219.5t-121 78.5t-122.5 -78.5t-36.5 -219.5t36.5 -220t121.5 -79z
M328 771v13q14 19 34 45t38 53t29 49h177v-10q-9 -13 -31.5 -33t-51.5 -42t-59.5 -41.5t-55.5 -33.5h-80z" />
    <glyph glyph-name="Ocircumflex" unicode="&#xd4;" horiz-adv-x="805" 
d="M403 -10q-117 0 -194.5 46t-116 129t-38.5 194t38.5 193t116 127.5t195.5 45.5q111 0 188.5 -45.5t118 -128t40.5 -193.5t-40.5 -193.5t-118.5 -128.5t-189 -46zM403 59q86 0 121.5 79t35.5 220t-35 219.5t-121 78.5t-122.5 -78.5t-36.5 -219.5t36.5 -220t121.5 -79z
M211 771v13q16 19 38.5 45t44 53t31.5 49h151q11 -22 32 -49t44 -53t38 -45v-13h-81q-12 11 -32 27.5t-41 33.5t-36 29q-15 -12 -36 -29t-40.5 -33.5t-31.5 -27.5h-81z" />
    <glyph glyph-name="Otilde" unicode="&#xd5;" horiz-adv-x="805" 
d="M403 -10q-117 0 -194.5 46t-116 129t-38.5 194t38.5 193t116 127.5t195.5 45.5q111 0 188.5 -45.5t118 -128t40.5 -193.5t-40.5 -193.5t-118.5 -128.5t-189 -46zM403 59q86 0 121.5 79t35.5 220t-35 219.5t-121 78.5t-122.5 -78.5t-36.5 -219.5t36.5 -220t121.5 -79z
M476 771q-27 0 -49 9.5t-40.5 22t-35 22t-32.5 9.5q-20 0 -33 -16.5t-16 -36.5h-73q2 44 20.5 80.5t48 58t65.5 21.5q27 0 48.5 -9.5t40 -22t35 -22t32.5 -9.5q19 0 32.5 16.5t16.5 36.5h73q-2 -44 -20.5 -80.5t-48 -58t-64.5 -21.5z" />
    <glyph glyph-name="Odieresis" unicode="&#xd6;" horiz-adv-x="805" 
d="M403 -10q-117 0 -194.5 46t-116 129t-38.5 194t38.5 193t116 127.5t195.5 45.5q111 0 188.5 -45.5t118 -128t40.5 -193.5t-40.5 -193.5t-118.5 -128.5t-189 -46zM403 59q86 0 121.5 79t35.5 220t-35 219.5t-121 78.5t-122.5 -78.5t-36.5 -219.5t36.5 -220t121.5 -79z
M502 784q-27 0 -47.5 15.5t-20.5 53.5t20.5 53.5t47.5 15.5q25 0 46 -15.5t21 -53.5t-21 -53.5t-46 -15.5zM290 784q-26 0 -46.5 15.5t-20.5 53.5t20.5 53.5t46.5 15.5t47 -15.5t21 -53.5t-21 -53.5t-47 -15.5z" />
    <glyph glyph-name="multiply" unicode="&#xd7;" horiz-adv-x="564" 
d="M137 158l-55 55l145 146l-145 145l55 54l145 -145l145 146l54 -55l-146 -146l146 -146l-53 -54l-146 147z" />
    <glyph glyph-name="Oslash" unicode="&#xd8;" horiz-adv-x="805" 
d="M154 -40l44 82q-72 46 -108 128t-36 189q0 111 38.5 193t116 127.5t195.5 45.5q40 0 76.5 -6.5t68.5 -18.5l28 55h75l-45 -84q70 -47 107 -127t37 -186q0 -111 -40.5 -193.5t-118.5 -128.5t-189 -46q-42 0 -77.5 6t-67.5 17l-28 -53h-76zM267 171l234 442
q-17 20 -41 31.5t-56 11.5q-86 0 -122.5 -78.5t-36.5 -219.5q0 -115 22 -187zM403 59q86 0 121.5 79t35.5 220q0 114 -21 186l-234 -443q18 -20 42 -31t56 -11z" />
    <glyph glyph-name="Ugrave" unicode="&#xd9;" horiz-adv-x="759" 
d="M392 -10q-85 0 -148.5 23t-98.5 73.5t-35 132.5v379q0 38 -17.5 48.5t-40.5 10.5h-35v57h366v-57h-34q-24 0 -41 -11t-17 -52v-384q0 -82 37.5 -113.5t104.5 -31.5q59 0 97.5 34.5t38.5 114.5v384q0 38 -16.5 48.5t-40.5 10.5h-35v57h266v-57h-36q-24 0 -41 -11t-17 -52
v-382q0 -67 -26 -117t-82.5 -77.5t-148.5 -27.5zM405 771q-25 14 -55.5 33.5t-59.5 41.5t-51.5 42t-31.5 33v10h177q11 -22 29 -49t38 -53t34 -45v-13h-80z" />
    <glyph glyph-name="Uacute" unicode="&#xda;" horiz-adv-x="759" 
d="M392 -10q-85 0 -148.5 23t-98.5 73.5t-35 132.5v379q0 38 -17.5 48.5t-40.5 10.5h-35v57h366v-57h-34q-24 0 -41 -11t-17 -52v-384q0 -82 37.5 -113.5t104.5 -31.5q59 0 97.5 34.5t38.5 114.5v384q0 38 -16.5 48.5t-40.5 10.5h-35v57h266v-57h-36q-24 0 -41 -11t-17 -52
v-382q0 -67 -26 -117t-82.5 -77.5t-148.5 -27.5zM313 771v13q14 19 34 45t38 53t29 49h177v-10q-9 -13 -31.5 -33t-51.5 -42t-59.5 -41.5t-55.5 -33.5h-80z" />
    <glyph glyph-name="Ucircumflex" unicode="&#xdb;" horiz-adv-x="759" 
d="M392 -10q-85 0 -148.5 23t-98.5 73.5t-35 132.5v379q0 38 -17.5 48.5t-40.5 10.5h-35v57h366v-57h-34q-24 0 -41 -11t-17 -52v-384q0 -82 37.5 -113.5t104.5 -31.5q59 0 97.5 34.5t38.5 114.5v384q0 38 -16.5 48.5t-40.5 10.5h-35v57h266v-57h-36q-24 0 -41 -11t-17 -52
v-382q0 -67 -26 -117t-82.5 -77.5t-148.5 -27.5zM219 771v13q16 19 38.5 45t44 53t31.5 49h151q11 -22 32 -49t44 -53t38 -45v-13h-81q-12 11 -32 27.5t-41 33.5t-36 29q-15 -12 -36 -29t-40.5 -33.5t-31.5 -27.5h-81z" />
    <glyph glyph-name="Udieresis" unicode="&#xdc;" horiz-adv-x="759" 
d="M392 -10q-85 0 -148.5 23t-98.5 73.5t-35 132.5v379q0 38 -17.5 48.5t-40.5 10.5h-35v57h366v-57h-34q-24 0 -41 -11t-17 -52v-384q0 -82 37.5 -113.5t104.5 -31.5q59 0 97.5 34.5t38.5 114.5v384q0 38 -16.5 48.5t-40.5 10.5h-35v57h266v-57h-36q-24 0 -41 -11t-17 -52
v-382q0 -67 -26 -117t-82.5 -77.5t-148.5 -27.5zM519 784q-27 0 -47.5 15.5t-20.5 53.5t20.5 53.5t47.5 15.5q25 0 46 -15.5t21 -53.5t-21 -53.5t-46 -15.5zM307 784q-26 0 -46.5 15.5t-20.5 53.5t20.5 53.5t46.5 15.5t47 -15.5t21 -53.5t-21 -53.5t-47 -15.5z" />
    <glyph glyph-name="Yacute" unicode="&#xdd;" horiz-adv-x="720" 
d="M166 0v57h41q29 0 46.5 11t17.5 54v118l-185 364q-15 29 -27.5 41t-43.5 12h-13v57h359v-57h-10q-31 0 -48.5 -13.5t-17.5 -37.5q0 -25 15 -55l74 -147q14 -29 23 -51t17 -45q10 27 23.5 57.5t29.5 63.5l56 116q11 24 13.5 39t2.5 21q0 28 -16.5 40t-51.5 12h-21v57h269
v-57h-15q-27 0 -41.5 -15.5t-37.5 -62.5l-171 -340v-118q0 -42 16.5 -53t39.5 -11h49v-57h-393zM301 771v13q14 19 34 45t38 53t29 49h177v-10q-9 -13 -31.5 -33t-51.5 -42t-59.5 -41.5t-55.5 -33.5h-80z" />
    <glyph glyph-name="Thorn" unicode="&#xde;" horiz-adv-x="652" 
d="M24 0v57h48q17 0 31 12t14 44v485q0 34 -14 46.5t-31 12.5h-48v57h367v-57h-49q-19 0 -31.5 -11.5t-12.5 -42.5v-15h44q144 -1 214 -59.5t70 -157.5q0 -61 -30 -114t-97 -86.5t-179 -33.5h-22v-26q1 -29 14 -41.5t30 -12.5h49v-57h-367zM298 199h18q62 0 89.5 40
t27.5 128q0 79 -24.5 118.5t-83.5 39.5h-27v-326z" />
    <glyph glyph-name="germandbls" unicode="&#xdf;" horiz-adv-x="730" 
d="M483 -10q-97 0 -140.5 34t-43.5 84q0 39 24.5 53.5t54.5 14.5q12 -58 39.5 -90.5t68.5 -32.5q27 0 44 16t17 47q0 32 -22.5 57t-80.5 54q-68 34 -96.5 74.5t-28.5 96.5q0 51 22 82t58.5 46.5t80.5 20.5q-2 94 -29.5 129.5t-77.5 35.5q-47 0 -76.5 -33t-29.5 -109v-570
h-268v57h55q16 0 27.5 11t11.5 52v338h-80v78h80v2q0 88 37 139t99.5 73.5t141.5 22.5q147 0 208 -70t62 -212h-61q-46 0 -78.5 -13.5t-32.5 -53.5q0 -37 22.5 -55.5t75.5 -44.5q57 -28 91 -68t34 -97q0 -84 -55 -126.5t-154 -42.5z" />
    <glyph glyph-name="agrave" unicode="&#xe0;" horiz-adv-x="614" 
d="M200 -10q-65 0 -111 40.5t-46 123.5q0 82 55 121t167 43l82 3v54q0 53 -12 81.5t-45 28.5q-30 0 -44.5 -29t-14.5 -79q-73 0 -109.5 15.5t-36.5 53.5t29.5 60.5t78.5 33t108 10.5q110 0 165.5 -37.5t55.5 -131.5v-253q0 -41 13 -56t47 -15h4v-57h-207l-23 62h-9
q-23 -26 -42 -42t-43.5 -23t-61.5 -7zM268 67q36 0 57.5 34t21.5 90v73l-37 -3q-50 -3 -69.5 -30.5t-19.5 -79.5q0 -84 47 -84zM306 606q-25 14 -55.5 33.5t-59.5 41.5t-51.5 42t-31.5 33v10h177q11 -22 29 -49t38 -53t34 -45v-13h-80z" />
    <glyph glyph-name="aacute" unicode="&#xe1;" horiz-adv-x="614" 
d="M200 -10q-65 0 -111 40.5t-46 123.5q0 82 55 121t167 43l82 3v54q0 53 -12 81.5t-45 28.5q-30 0 -44.5 -29t-14.5 -79q-73 0 -109.5 15.5t-36.5 53.5t29.5 60.5t78.5 33t108 10.5q110 0 165.5 -37.5t55.5 -131.5v-253q0 -41 13 -56t47 -15h4v-57h-207l-23 62h-9
q-23 -26 -42 -42t-43.5 -23t-61.5 -7zM268 67q36 0 57.5 34t21.5 90v73l-37 -3q-50 -3 -69.5 -30.5t-19.5 -79.5q0 -84 47 -84zM227 606v13q14 19 34 45t38 53t29 49h177v-10q-9 -13 -31.5 -33t-51.5 -42t-59.5 -41.5t-55.5 -33.5h-80z" />
    <glyph glyph-name="acircumflex" unicode="&#xe2;" horiz-adv-x="614" 
d="M200 -10q-65 0 -111 40.5t-46 123.5q0 82 55 121t167 43l82 3v54q0 53 -12 81.5t-45 28.5q-30 0 -44.5 -29t-14.5 -79q-73 0 -109.5 15.5t-36.5 53.5t29.5 60.5t78.5 33t108 10.5q110 0 165.5 -37.5t55.5 -131.5v-253q0 -41 13 -56t47 -15h4v-57h-207l-23 62h-9
q-23 -26 -42 -42t-43.5 -23t-61.5 -7zM268 67q36 0 57.5 34t21.5 90v73l-37 -3q-50 -3 -69.5 -30.5t-19.5 -79.5q0 -84 47 -84zM124 606v13q16 19 38.5 45t44 53t31.5 49h151q11 -22 32 -49t44 -53t38 -45v-13h-81q-12 11 -32 27.5t-41 33.5t-36 29q-15 -12 -36 -29
t-40.5 -33.5t-31.5 -27.5h-81z" />
    <glyph glyph-name="atilde" unicode="&#xe3;" horiz-adv-x="614" 
d="M200 -10q-65 0 -111 40.5t-46 123.5q0 82 55 121t167 43l82 3v54q0 53 -12 81.5t-45 28.5q-30 0 -44.5 -29t-14.5 -79q-73 0 -109.5 15.5t-36.5 53.5t29.5 60.5t78.5 33t108 10.5q110 0 165.5 -37.5t55.5 -131.5v-253q0 -41 13 -56t47 -15h4v-57h-207l-23 62h-9
q-23 -26 -42 -42t-43.5 -23t-61.5 -7zM268 67q36 0 57.5 34t21.5 90v73l-37 -3q-50 -3 -69.5 -30.5t-19.5 -79.5q0 -84 47 -84zM383 606q-27 0 -49 9.5t-40.5 22t-35 22t-32.5 9.5q-20 0 -33 -16.5t-16 -36.5h-73q2 44 20.5 80.5t48 58t65.5 21.5q27 0 48.5 -9.5t40 -22
t35 -22t32.5 -9.5q19 0 32.5 16.5t16.5 36.5h73q-2 -44 -20.5 -80.5t-48 -58t-64.5 -21.5z" />
    <glyph glyph-name="adieresis" unicode="&#xe4;" horiz-adv-x="614" 
d="M200 -10q-65 0 -111 40.5t-46 123.5q0 82 55 121t167 43l82 3v54q0 53 -12 81.5t-45 28.5q-30 0 -44.5 -29t-14.5 -79q-73 0 -109.5 15.5t-36.5 53.5t29.5 60.5t78.5 33t108 10.5q110 0 165.5 -37.5t55.5 -131.5v-253q0 -41 13 -56t47 -15h4v-57h-207l-23 62h-9
q-23 -26 -42 -42t-43.5 -23t-61.5 -7zM268 67q36 0 57.5 34t21.5 90v73l-37 -3q-50 -3 -69.5 -30.5t-19.5 -79.5q0 -84 47 -84zM415 619q-27 0 -47.5 15.5t-20.5 53.5t20.5 53.5t47.5 15.5q25 0 46 -15.5t21 -53.5t-21 -53.5t-46 -15.5zM203 619q-26 0 -46.5 15.5
t-20.5 53.5t20.5 53.5t46.5 15.5t47 -15.5t21 -53.5t-21 -53.5t-47 -15.5z" />
    <glyph glyph-name="aring" unicode="&#xe5;" horiz-adv-x="614" 
d="M200 -10q-65 0 -111 40.5t-46 123.5q0 82 55 121t167 43l82 3v54q0 53 -12 81.5t-45 28.5q-30 0 -44.5 -29t-14.5 -79q-73 0 -109.5 15.5t-36.5 53.5t29.5 60.5t78.5 33t108 10.5q110 0 165.5 -37.5t55.5 -131.5v-253q0 -41 13 -56t47 -15h4v-57h-207l-23 62h-9
q-23 -26 -42 -42t-43.5 -23t-61.5 -7zM268 67q36 0 57.5 34t21.5 90v73l-37 -3q-50 -3 -69.5 -30.5t-19.5 -79.5q0 -84 47 -84zM311 596q-50 0 -85 28t-35 81t35 81t85 28t85 -28t35 -81t-35 -81t-85 -28zM311 653q22 0 39 12t17 40t-17 40t-39 12t-39 -12t-17 -40t17 -40
t39 -12z" />
    <glyph glyph-name="ae" unicode="&#xe6;" horiz-adv-x="889" 
d="M208 -10q-70 0 -117.5 39t-47.5 125q0 82 55 121t167 43l82 3v54q0 48 -11 79t-44 31q-34 0 -47.5 -30.5t-13.5 -77.5q-77 0 -111.5 15.5t-34.5 53.5t29 60.5t76.5 33t104.5 10.5q55 0 95.5 -12.5t68.5 -40.5q29 25 68.5 39t89.5 14q105 0 169 -61t64 -180v-54h-326
q3 -97 36.5 -141t97.5 -44q51 0 84 25t50 62q16 -6 26 -19t10 -31q0 -29 -21.5 -56t-68 -44t-120.5 -17t-128 22.5t-88 64.5q-34 -45 -82 -66t-112 -21zM526 323h150q0 76 -16 117t-51 41q-36 0 -58.5 -40.5t-24.5 -117.5zM268 67q36 0 57.5 34t21.5 90v73l-37 -3
q-50 -3 -69.5 -30.5t-19.5 -79.5q0 -84 47 -84z" />
    <glyph glyph-name="ccedilla" unicode="&#xe7;" horiz-adv-x="541" 
d="M300 -10q-76 0 -134 25.5t-90 86t-32 165.5q0 108 33.5 169.5t91 87.5t128.5 26q74 0 120 -15t67 -39t21 -52q0 -21 -10.5 -43t-41.5 -36.5t-93 -14.5q0 36 -5 66.5t-17.5 49.5t-34.5 19q-25 0 -43.5 -19.5t-28.5 -66.5t-10 -131q0 -100 25 -149.5t81 -49.5q54 0 93.5 25
t55.5 60q14 -8 20.5 -22t6.5 -27q0 -25 -20.5 -52t-65.5 -45t-117 -18zM270 -240q-16 0 -44.5 3t-46.5 8v65q38 -8 68 -8q28 0 44.5 8t16.5 34q0 29 -21.5 37t-53.5 10l21 92h61l-10 -43q49 -4 80 -28t31 -64q0 -53 -41 -83.5t-105 -30.5z" />
    <glyph glyph-name="egrave" unicode="&#xe8;" horiz-adv-x="586" 
d="M314 -10q-136 0 -203 72.5t-67 203.5q0 141 67.5 212.5t190.5 71.5q114 0 179.5 -61t65.5 -180v-54h-326q2 -97 36 -141t97 -44q52 0 85 25t49 62q36 -13 36 -50q0 -29 -21.5 -56t-68 -44t-120.5 -17zM223 323h150q0 76 -16 117t-51 41q-37 0 -59.5 -40.5t-23.5 -117.5z
M320 606q-25 14 -55.5 33.5t-59.5 41.5t-51.5 42t-31.5 33v10h177q11 -22 29 -49t38 -53t34 -45v-13h-80z" />
    <glyph glyph-name="eacute" unicode="&#xe9;" horiz-adv-x="586" 
d="M314 -10q-136 0 -203 72.5t-67 203.5q0 141 67.5 212.5t190.5 71.5q114 0 179.5 -61t65.5 -180v-54h-326q2 -97 36 -141t97 -44q52 0 85 25t49 62q36 -13 36 -50q0 -29 -21.5 -56t-68 -44t-120.5 -17zM223 323h150q0 76 -16 117t-51 41q-37 0 -59.5 -40.5t-23.5 -117.5z
M231 606v13q14 19 34 45t38 53t29 49h177v-10q-9 -13 -31.5 -33t-51.5 -42t-59.5 -41.5t-55.5 -33.5h-80z" />
    <glyph glyph-name="ecircumflex" unicode="&#xea;" horiz-adv-x="586" 
d="M314 -10q-136 0 -203 72.5t-67 203.5q0 141 67.5 212.5t190.5 71.5q114 0 179.5 -61t65.5 -180v-54h-326q2 -97 36 -141t97 -44q52 0 85 25t49 62q36 -13 36 -50q0 -29 -21.5 -56t-68 -44t-120.5 -17zM223 323h150q0 76 -16 117t-51 41q-37 0 -59.5 -40.5t-23.5 -117.5z
M124 606v13q16 19 38.5 45t44 53t31.5 49h151q11 -22 32 -49t44 -53t38 -45v-13h-81q-12 11 -32 27.5t-41 33.5t-36 29q-15 -12 -36 -29t-40.5 -33.5t-31.5 -27.5h-81z" />
    <glyph glyph-name="edieresis" unicode="&#xeb;" horiz-adv-x="586" 
d="M314 -10q-136 0 -203 72.5t-67 203.5q0 141 67.5 212.5t190.5 71.5q114 0 179.5 -61t65.5 -180v-54h-326q2 -97 36 -141t97 -44q52 0 85 25t49 62q36 -13 36 -50q0 -29 -21.5 -56t-68 -44t-120.5 -17zM223 323h150q0 76 -16 117t-51 41q-37 0 -59.5 -40.5t-23.5 -117.5z
M417 619q-27 0 -47.5 15.5t-20.5 53.5t20.5 53.5t47.5 15.5q25 0 46 -15.5t21 -53.5t-21 -53.5t-46 -15.5zM205 619q-26 0 -46.5 15.5t-20.5 53.5t20.5 53.5t46.5 15.5t47 -15.5t21 -53.5t-21 -53.5t-47 -15.5z" />
    <glyph glyph-name="igrave" unicode="&#xec;" horiz-adv-x="365" 
d="M14 0v57h12q26 0 46.5 14t20.5 56v288q0 38 -21 51t-46 13h-16v57h258v-411q0 -41 20.5 -54.5t45.5 -13.5h12v-57h-332zM182 606q-25 14 -55.5 33.5t-59.5 41.5t-51.5 42t-31.5 33v10h177q11 -22 29 -49t38 -53t34 -45v-13h-80z" />
    <glyph glyph-name="iacute" unicode="&#xed;" horiz-adv-x="365" 
d="M14 0v57h12q26 0 46.5 14t20.5 56v288q0 38 -21 51t-46 13h-16v57h258v-411q0 -41 20.5 -54.5t45.5 -13.5h12v-57h-332zM90 606v13q14 19 34 45t38 53t29 49h177v-10q-9 -13 -31.5 -33t-51.5 -42t-59.5 -41.5t-55.5 -33.5h-80z" />
    <glyph glyph-name="icircumflex" unicode="&#xee;" horiz-adv-x="365" 
d="M14 0v57h12q26 0 46.5 14t20.5 56v288q0 38 -21 51t-46 13h-16v57h258v-411q0 -41 20.5 -54.5t45.5 -13.5h12v-57h-332zM-25 606v13q16 19 38.5 45t44 53t31.5 49h151q11 -22 32 -49t44 -53t38 -45v-13h-81q-12 11 -32 27.5t-41 33.5t-36 29q-15 -12 -36 -29t-40.5 -33.5
t-31.5 -27.5h-81z" />
    <glyph glyph-name="idieresis" unicode="&#xef;" horiz-adv-x="365" 
d="M14 0v57h12q26 0 46.5 14t20.5 56v288q0 38 -21 51t-46 13h-16v57h258v-411q0 -41 20.5 -54.5t45.5 -13.5h12v-57h-332zM270 619q-27 0 -47.5 15.5t-20.5 53.5t20.5 53.5t47.5 15.5q25 0 46 -15.5t21 -53.5t-21 -53.5t-46 -15.5zM58 619q-26 0 -46.5 15.5t-20.5 53.5
t20.5 53.5t46.5 15.5t47 -15.5t21 -53.5t-21 -53.5t-47 -15.5z" />
    <glyph glyph-name="eth" unicode="&#xf0;" horiz-adv-x="628" 
d="M311 -10q-124 0 -195.5 66t-71.5 201q0 134 62.5 200.5t174.5 66.5q37 0 67 -8t46 -19q-10 31 -30 61.5t-54 56.5l-142 -69v69l85 42q-25 15 -54 23.5t-60 12.5v68q41 -3 99 -17.5t106 -41.5l125 60v-70l-60 -29q81 -59 128 -151.5t47 -220.5q0 -152 -70 -226.5
t-203 -74.5zM314 57q50 0 71.5 50.5t21.5 148.5q0 102 -21.5 151t-72.5 49q-49 0 -70 -47.5t-21 -152.5q0 -98 20.5 -148.5t71.5 -50.5z" />
    <glyph glyph-name="ntilde" unicode="&#xf1;" horiz-adv-x="676" 
d="M17 0v57h3q34 0 53.5 12t19.5 56v290q0 41 -17.5 52.5t-50.5 11.5h-3v57h229l13 -67h5q24 42 59.5 61.5t92.5 19.5q79 0 121.5 -45.5t42.5 -146.5v-230q0 -46 14 -58.5t48 -12.5h4v-57h-241v322q0 64 -14 99.5t-52 35.5q-29 0 -45.5 -21.5t-23.5 -56t-7 -74.5v-183
q0 -41 17.5 -53t50.5 -12h3v-57h-322zM400 606q-27 0 -49 9.5t-40.5 22t-35 22t-32.5 9.5q-20 0 -33 -16.5t-16 -36.5h-73q2 44 20.5 80.5t48 58t65.5 21.5q27 0 48.5 -9.5t40 -22t35 -22t32.5 -9.5q19 0 32.5 16.5t16.5 36.5h73q-2 -44 -20.5 -80.5t-48 -58t-64.5 -21.5z
" />
    <glyph glyph-name="ograve" unicode="&#xf2;" horiz-adv-x="628" 
d="M312 -10q-124 0 -196 70t-72 211t69 210t202 69q125 0 197 -69t72 -210t-69 -211t-203 -70zM314 57q51 0 71.5 54.5t20.5 159.5t-21 158t-72 53t-71 -53t-20 -158t20.5 -159.5t71.5 -54.5zM301 606q-25 14 -55.5 33.5t-59.5 41.5t-51.5 42t-31.5 33v10h177q11 -22 29 -49
t38 -53t34 -45v-13h-80z" />
    <glyph glyph-name="oacute" unicode="&#xf3;" horiz-adv-x="628" 
d="M312 -10q-124 0 -196 70t-72 211t69 210t202 69q125 0 197 -69t72 -210t-69 -211t-203 -70zM314 57q51 0 71.5 54.5t20.5 159.5t-21 158t-72 53t-71 -53t-20 -158t20.5 -159.5t71.5 -54.5zM244 606v13q14 19 34 45t38 53t29 49h177v-10q-9 -13 -31.5 -33t-51.5 -42
t-59.5 -41.5t-55.5 -33.5h-80z" />
    <glyph glyph-name="ocircumflex" unicode="&#xf4;" horiz-adv-x="628" 
d="M312 -10q-124 0 -196 70t-72 211t69 210t202 69q125 0 197 -69t72 -210t-69 -211t-203 -70zM314 57q51 0 71.5 54.5t20.5 159.5t-21 158t-72 53t-71 -53t-20 -158t20.5 -159.5t71.5 -54.5zM124 606v13q16 19 38.5 45t44 53t31.5 49h151q11 -22 32 -49t44 -53t38 -45v-13
h-81q-12 11 -32 27.5t-41 33.5t-36 29q-15 -12 -36 -29t-40.5 -33.5t-31.5 -27.5h-81z" />
    <glyph glyph-name="otilde" unicode="&#xf5;" horiz-adv-x="628" 
d="M312 -10q-124 0 -196 70t-72 211t69 210t202 69q125 0 197 -69t72 -210t-69 -211t-203 -70zM314 57q51 0 71.5 54.5t20.5 159.5t-21 158t-72 53t-71 -53t-20 -158t20.5 -159.5t71.5 -54.5zM384 606q-27 0 -49 9.5t-40.5 22t-35 22t-32.5 9.5q-20 0 -33 -16.5t-16 -36.5
h-73q2 44 20.5 80.5t48 58t65.5 21.5q27 0 48.5 -9.5t40 -22t35 -22t32.5 -9.5q19 0 32.5 16.5t16.5 36.5h73q-2 -44 -20.5 -80.5t-48 -58t-64.5 -21.5z" />
    <glyph glyph-name="odieresis" unicode="&#xf6;" horiz-adv-x="628" 
d="M312 -10q-124 0 -196 70t-72 211t69 210t202 69q125 0 197 -69t72 -210t-69 -211t-203 -70zM314 57q51 0 71.5 54.5t20.5 159.5t-21 158t-72 53t-71 -53t-20 -158t20.5 -159.5t71.5 -54.5zM419 619q-27 0 -47.5 15.5t-20.5 53.5t20.5 53.5t47.5 15.5q25 0 46 -15.5
t21 -53.5t-21 -53.5t-46 -15.5zM207 619q-26 0 -46.5 15.5t-20.5 53.5t20.5 53.5t46.5 15.5t47 -15.5t21 -53.5t-21 -53.5t-47 -15.5z" />
    <glyph glyph-name="divide" unicode="&#xf7;" horiz-adv-x="564" 
d="M283 489q-25 0 -41.5 14.5t-16.5 48.5q0 36 16.5 50t41.5 14q24 0 40.5 -14t16.5 -50q0 -34 -16.5 -48.5t-40.5 -14.5zM62 320v75h440v-75h-440zM283 99q-25 0 -41.5 14.5t-16.5 49.5t16.5 49t41.5 14q24 0 40.5 -14t16.5 -49t-16.5 -49.5t-40.5 -14.5z" />
    <glyph glyph-name="oslash" unicode="&#xf8;" horiz-adv-x="628" 
d="M89 -40l48 80q-45 34 -69 92t-24 139q0 141 69 210t202 69q71 0 124 -21l30 47h75l-50 -81q43 -35 66.5 -90.5t23.5 -133.5q0 -141 -69 -211t-203 -70q-66 0 -117 18l-30 -48h-76zM225 181l158 257q-11 22 -28 33t-42 11q-51 0 -71.5 -53t-20.5 -158q0 -25 1 -48t3 -42z
M314 57q51 0 71.5 54t20.5 158q0 20 -1 39.5t-3 38.5l-154 -250q22 -40 66 -40z" />
    <glyph glyph-name="ugrave" unicode="&#xf9;" horiz-adv-x="680" 
d="M257 -10q-85 0 -125.5 49t-40.5 150v218q0 43 -11.5 57.5t-49.5 14.5h-3v57h240v-310q0 -64 13.5 -103.5t50.5 -39.5q41 0 59 40t18 108v187q0 42 -17.5 51.5t-44.5 9.5h-4v57h241v-417q0 -43 16.5 -52.5t44.5 -9.5h10v-57h-215l-26 67h-5q-26 -42 -63 -59.5t-88 -17.5z
M309 606q-25 14 -55.5 33.5t-59.5 41.5t-51.5 42t-31.5 33v10h177q11 -22 29 -49t38 -53t34 -45v-13h-80z" />
    <glyph glyph-name="uacute" unicode="&#xfa;" horiz-adv-x="680" 
d="M257 -10q-85 0 -125.5 49t-40.5 150v218q0 43 -11.5 57.5t-49.5 14.5h-3v57h240v-310q0 -64 13.5 -103.5t50.5 -39.5q41 0 59 40t18 108v187q0 42 -17.5 51.5t-44.5 9.5h-4v57h241v-417q0 -43 16.5 -52.5t44.5 -9.5h10v-57h-215l-26 67h-5q-26 -42 -63 -59.5t-88 -17.5z
M254 606v13q14 19 34 45t38 53t29 49h177v-10q-9 -13 -31.5 -33t-51.5 -42t-59.5 -41.5t-55.5 -33.5h-80z" />
    <glyph glyph-name="ucircumflex" unicode="&#xfb;" horiz-adv-x="680" 
d="M257 -10q-85 0 -125.5 49t-40.5 150v218q0 43 -11.5 57.5t-49.5 14.5h-3v57h240v-310q0 -64 13.5 -103.5t50.5 -39.5q41 0 59 40t18 108v187q0 42 -17.5 51.5t-44.5 9.5h-4v57h241v-417q0 -43 16.5 -52.5t44.5 -9.5h10v-57h-215l-26 67h-5q-26 -42 -63 -59.5t-88 -17.5z
M135 606v13q16 19 38.5 45t44 53t31.5 49h151q11 -22 32 -49t44 -53t38 -45v-13h-81q-12 11 -32 27.5t-41 33.5t-36 29q-15 -12 -36 -29t-40.5 -33.5t-31.5 -27.5h-81z" />
    <glyph glyph-name="udieresis" unicode="&#xfc;" horiz-adv-x="680" 
d="M257 -10q-85 0 -125.5 49t-40.5 150v218q0 43 -11.5 57.5t-49.5 14.5h-3v57h240v-310q0 -64 13.5 -103.5t50.5 -39.5q41 0 59 40t18 108v187q0 42 -17.5 51.5t-44.5 9.5h-4v57h241v-417q0 -43 16.5 -52.5t44.5 -9.5h10v-57h-215l-26 67h-5q-26 -42 -63 -59.5t-88 -17.5z
M433 619q-27 0 -47.5 15.5t-20.5 53.5t20.5 53.5t47.5 15.5q25 0 46 -15.5t21 -53.5t-21 -53.5t-46 -15.5zM221 619q-26 0 -46.5 15.5t-20.5 53.5t20.5 53.5t46.5 15.5t47 -15.5t21 -53.5t-21 -53.5t-47 -15.5z" />
    <glyph glyph-name="yacute" unicode="&#xfd;" horiz-adv-x="584" 
d="M23 -230v63q70 0 112.5 20t66.5 55.5t40 82.5l-178 442q-11 28 -25 35t-36 8h-5v60h306v-57h-4q-59 0 -59 -35q0 -9 3.5 -20.5t6.5 -20.5l60 -169q12 -33 18 -58.5t8 -44.5q2 22 8 42l9 30l63 188q3 9 7 25.5t4 25.5q0 20 -15.5 28t-46.5 9h-4v57h222v-57h-4
q-27 -1 -44.5 -17.5t-31.5 -53.5l-151 -406q-25 -69 -48.5 -114t-55 -71t-80.5 -36.5t-126 -10.5h-20zM218 606v13q14 19 34 45t38 53t29 49h177v-10q-9 -13 -31.5 -33t-51.5 -42t-59.5 -41.5t-55.5 -33.5h-80z" />
    <glyph glyph-name="thorn" unicode="&#xfe;" horiz-adv-x="658" 
d="M11 -240v57h13q26 0 46.5 12t20.5 53v750q0 46 -17 58.5t-43 12.5h-7v57h243v-184q0 -17 -2 -40t-4.5 -42.5t-3.5 -27.5h4q21 36 55 58t92 22q100 0 152.5 -68t52.5 -213t-51 -211.5t-148 -66.5q-57 0 -91.5 19.5t-56.5 55.5h-6q1 -10 2.5 -30.5t3 -45.5t1.5 -46v-56
q0 -42 20.5 -54.5t45.5 -12.5h24v-57h-346zM354 65q44 0 63.5 48.5t19.5 149.5q0 97 -19 150.5t-62 53.5q-52 0 -70.5 -53.5t-18.5 -148.5q0 -103 18 -151.5t69 -48.5z" />
    <glyph glyph-name="ydieresis" unicode="&#xff;" horiz-adv-x="584" 
d="M23 -230v63q70 0 112.5 20t66.5 55.5t40 82.5l-178 442q-11 28 -25 35t-36 8h-5v60h306v-57h-4q-59 0 -59 -35q0 -9 3.5 -20.5t6.5 -20.5l60 -169q12 -33 18 -58.5t8 -44.5q2 22 8 42l9 30l63 188q3 9 7 25.5t4 25.5q0 20 -15.5 28t-46.5 9h-4v57h222v-57h-4
q-27 -1 -44.5 -17.5t-31.5 -53.5l-151 -406q-25 -69 -48.5 -114t-55 -71t-80.5 -36.5t-126 -10.5h-20zM414 619q-27 0 -47.5 15.5t-20.5 53.5t20.5 53.5t47.5 15.5q25 0 46 -15.5t21 -53.5t-21 -53.5t-46 -15.5zM202 619q-26 0 -46.5 15.5t-20.5 53.5t20.5 53.5t46.5 15.5
t47 -15.5t21 -53.5t-21 -53.5t-47 -15.5z" />
    <glyph glyph-name="Amacron" unicode="&#x100;" horiz-adv-x="772" 
d="M6 0v57h9q26 0 45.5 13.5t36.5 57.5l214 586h161l207 -587q13 -38 33 -54t46 -16h14v-57h-352v57h40q15 0 28.5 7.5t13.5 27.5q0 14 -3.5 26.5t-6.5 19.5l-33 95h-234l-26 -78q-4 -12 -8.5 -30.5t-4.5 -31.5q0 -36 40 -36h46v-57h-266zM246 299h192l-55 179q-9 29 -19 64
t-17 69q-8 -32 -18.5 -66.5t-21.5 -64.5zM240 767v87h290v-87h-290z" />
    <glyph glyph-name="amacron" unicode="&#x101;" horiz-adv-x="614" 
d="M200 -10q-65 0 -111 40.5t-46 123.5q0 82 55 121t167 43l82 3v54q0 53 -12 81.5t-45 28.5q-30 0 -44.5 -29t-14.5 -79q-73 0 -109.5 15.5t-36.5 53.5t29.5 60.5t78.5 33t108 10.5q110 0 165.5 -37.5t55.5 -131.5v-253q0 -41 13 -56t47 -15h4v-57h-207l-23 62h-9
q-23 -26 -42 -42t-43.5 -23t-61.5 -7zM268 67q36 0 57.5 34t21.5 90v73l-37 -3q-50 -3 -69.5 -30.5t-19.5 -79.5q0 -84 47 -84zM160 602v87h290v-87h-290z" />
    <glyph glyph-name="Abreve" unicode="&#x102;" horiz-adv-x="772" 
d="M6 0v57h9q26 0 45.5 13.5t36.5 57.5l214 586h161l207 -587q13 -38 33 -54t46 -16h14v-57h-352v57h40q15 0 28.5 7.5t13.5 27.5q0 14 -3.5 26.5t-6.5 19.5l-33 95h-234l-26 -78q-4 -12 -8.5 -30.5t-4.5 -31.5q0 -36 40 -36h46v-57h-266zM246 299h192l-55 179q-9 29 -19 64
t-17 69q-8 -32 -18.5 -66.5t-21.5 -64.5zM392 771q-54 0 -91.5 25.5t-56.5 64t-20 75.5h74q8 -36 32.5 -52t61.5 -16t61.5 16t32.5 52h74q-1 -37 -20 -75.5t-56.5 -64t-91.5 -25.5z" />
    <glyph glyph-name="abreve" unicode="&#x103;" horiz-adv-x="614" 
d="M200 -10q-65 0 -111 40.5t-46 123.5q0 82 55 121t167 43l82 3v54q0 53 -12 81.5t-45 28.5q-30 0 -44.5 -29t-14.5 -79q-73 0 -109.5 15.5t-36.5 53.5t29.5 60.5t78.5 33t108 10.5q110 0 165.5 -37.5t55.5 -131.5v-253q0 -41 13 -56t47 -15h4v-57h-207l-23 62h-9
q-23 -26 -42 -42t-43.5 -23t-61.5 -7zM268 67q36 0 57.5 34t21.5 90v73l-37 -3q-50 -3 -69.5 -30.5t-19.5 -79.5q0 -84 47 -84zM289 606q-54 0 -91.5 25.5t-56.5 64t-20 75.5h74q8 -36 32.5 -52t61.5 -16t61.5 16t32.5 52h74q-1 -37 -20 -75.5t-56.5 -64t-91.5 -25.5z" />
    <glyph glyph-name="Aogonek" unicode="&#x104;" horiz-adv-x="772" 
d="M6 0v57h9q26 0 45.5 13.5t36.5 57.5l214 586h161l207 -587q13 -38 33 -54t46 -16h14v-57h-352v57h40q15 0 28.5 7.5t13.5 27.5q0 14 -3.5 26.5t-6.5 19.5l-33 95h-234l-26 -78q-4 -12 -8.5 -30.5t-4.5 -31.5q0 -36 40 -36h46v-57h-266zM246 299h192l-55 179q-9 29 -19 64
t-17 69q-8 -32 -18.5 -66.5t-21.5 -64.5zM647 -240q-76 0 -115 26.5t-39 83.5q0 31 17 58t44 46t57 26h85q-21 -6 -42.5 -21.5t-36 -39t-14.5 -54.5q0 -25 19.5 -37t49.5 -12q13 0 29 2t34 6v-68q-16 -8 -44 -12t-44 -4z" />
    <glyph glyph-name="aogonek" unicode="&#x105;" horiz-adv-x="614" 
d="M200 -10q-65 0 -111 40.5t-46 123.5q0 82 55 121t167 43l82 3v54q0 53 -12 81.5t-45 28.5q-30 0 -44.5 -29t-14.5 -79q-73 0 -109.5 15.5t-36.5 53.5t29.5 60.5t78.5 33t108 10.5q110 0 165.5 -37.5t55.5 -131.5v-253q0 -41 13 -56t47 -15h4v-57h-207l-23 62h-9
q-23 -26 -42 -42t-43.5 -23t-61.5 -7zM268 67q36 0 57.5 34t21.5 90v73l-37 -3q-50 -3 -69.5 -30.5t-19.5 -79.5q0 -84 47 -84zM416 -240q-76 0 -115 26.5t-39 83.5q0 31 17 58t44 46t57 26h85q-21 -6 -42.5 -21.5t-36 -39t-14.5 -54.5q0 -25 19.5 -37t49.5 -12q13 0 29 2
t34 6v-68q-16 -8 -44 -12t-44 -4z" />
    <glyph glyph-name="Cacute" unicode="&#x106;" horiz-adv-x="690" 
d="M410 -10q-119 0 -198 46t-118.5 128.5t-39.5 193.5q0 108 40 190.5t119 129t196 46.5q120 0 179.5 -34t59.5 -84q0 -39 -35 -66t-106 -27q0 33 -10 66t-33.5 55t-63.5 22q-88 0 -121.5 -78t-33.5 -220q0 -148 44 -215.5t151 -67.5q51 0 87.5 15.5t62 38.5t42.5 46
q7 -7 11.5 -20t4.5 -25q0 -22 -11 -46.5t-37.5 -45.5t-73 -34.5t-116.5 -13.5zM330 771v13q14 19 34 45t38 53t29 49h177v-10q-9 -13 -31.5 -33t-51.5 -42t-59.5 -41.5t-55.5 -33.5h-80z" />
    <glyph glyph-name="cacute" unicode="&#x107;" horiz-adv-x="541" 
d="M300 -10q-76 0 -134 25.5t-90 86t-32 165.5q0 108 33.5 169.5t91 87.5t128.5 26q74 0 120 -15t67 -39t21 -52q0 -21 -10.5 -43t-41.5 -36.5t-93 -14.5q0 36 -5 66.5t-17.5 49.5t-34.5 19q-25 0 -43.5 -19.5t-28.5 -66.5t-10 -131q0 -100 25 -149.5t81 -49.5q54 0 93.5 25
t55.5 60q14 -8 20.5 -22t6.5 -27q0 -25 -20.5 -52t-65.5 -45t-117 -18zM214 606v13q14 19 34 45t38 53t29 49h177v-10q-9 -13 -31.5 -33t-51.5 -42t-59.5 -41.5t-55.5 -33.5h-80z" />
    <glyph glyph-name="Ccircumflex" unicode="&#x108;" horiz-adv-x="690" 
d="M410 -10q-119 0 -198 46t-118.5 128.5t-39.5 193.5q0 108 40 190.5t119 129t196 46.5q120 0 179.5 -34t59.5 -84q0 -39 -35 -66t-106 -27q0 33 -10 66t-33.5 55t-63.5 22q-88 0 -121.5 -78t-33.5 -220q0 -148 44 -215.5t151 -67.5q51 0 87.5 15.5t62 38.5t42.5 46
q7 -7 11.5 -20t4.5 -25q0 -22 -11 -46.5t-37.5 -45.5t-73 -34.5t-116.5 -13.5zM193 771v13q16 19 38.5 45t44 53t31.5 49h151q11 -22 32 -49t44 -53t38 -45v-13h-81q-12 11 -32 27.5t-41 33.5t-36 29q-15 -12 -36 -29t-40.5 -33.5t-31.5 -27.5h-81z" />
    <glyph glyph-name="ccircumflex" unicode="&#x109;" horiz-adv-x="541" 
d="M300 -10q-76 0 -134 25.5t-90 86t-32 165.5q0 108 33.5 169.5t91 87.5t128.5 26q74 0 120 -15t67 -39t21 -52q0 -21 -10.5 -43t-41.5 -36.5t-93 -14.5q0 36 -5 66.5t-17.5 49.5t-34.5 19q-25 0 -43.5 -19.5t-28.5 -66.5t-10 -131q0 -100 25 -149.5t81 -49.5q54 0 93.5 25
t55.5 60q14 -8 20.5 -22t6.5 -27q0 -25 -20.5 -52t-65.5 -45t-117 -18zM101 606v13q16 19 38.5 45t44 53t31.5 49h151q11 -22 32 -49t44 -53t38 -45v-13h-81q-12 11 -32 27.5t-41 33.5t-36 29q-15 -12 -36 -29t-40.5 -33.5t-31.5 -27.5h-81z" />
    <glyph glyph-name="Cdot" unicode="&#x10a;" horiz-adv-x="690" 
d="M410 -10q-119 0 -198 46t-118.5 128.5t-39.5 193.5q0 108 40 190.5t119 129t196 46.5q120 0 179.5 -34t59.5 -84q0 -39 -35 -66t-106 -27q0 33 -10 66t-33.5 55t-63.5 22q-88 0 -121.5 -78t-33.5 -220q0 -148 44 -215.5t151 -67.5q51 0 87.5 15.5t62 38.5t42.5 46
q7 -7 11.5 -20t4.5 -25q0 -22 -11 -46.5t-37.5 -45.5t-73 -34.5t-116.5 -13.5zM393 787q-40 0 -68 19t-28 57q0 40 28 58t68 18t69 -18t29 -58q0 -38 -29 -57t-69 -19z" />
    <glyph glyph-name="cdot" unicode="&#x10b;" horiz-adv-x="541" 
d="M300 -10q-76 0 -134 25.5t-90 86t-32 165.5q0 108 33.5 169.5t91 87.5t128.5 26q74 0 120 -15t67 -39t21 -52q0 -21 -10.5 -43t-41.5 -36.5t-93 -14.5q0 36 -5 66.5t-17.5 49.5t-34.5 19q-25 0 -43.5 -19.5t-28.5 -66.5t-10 -131q0 -100 25 -149.5t81 -49.5q54 0 93.5 25
t55.5 60q14 -8 20.5 -22t6.5 -27q0 -25 -20.5 -52t-65.5 -45t-117 -18zM291 622q-40 0 -68 19t-28 57q0 40 28 58t68 18t69 -18t29 -58q0 -38 -29 -57t-69 -19z" />
    <glyph glyph-name="Ccaron" unicode="&#x10c;" horiz-adv-x="690" 
d="M410 -10q-119 0 -198 46t-118.5 128.5t-39.5 193.5q0 108 40 190.5t119 129t196 46.5q120 0 179.5 -34t59.5 -84q0 -39 -35 -66t-106 -27q0 33 -10 66t-33.5 55t-63.5 22q-88 0 -121.5 -78t-33.5 -220q0 -148 44 -215.5t151 -67.5q51 0 87.5 15.5t62 38.5t42.5 46
q7 -7 11.5 -20t4.5 -25q0 -22 -11 -46.5t-37.5 -45.5t-73 -34.5t-116.5 -13.5zM312 771q-10 22 -31.5 49t-44 53t-38.5 45v13h81q12 -10 31.5 -26.5t40.5 -33.5t36 -29q15 12 36 29t41 33.5t32 26.5h81v-13q-15 -19 -38 -45t-44 -53t-32 -49h-151z" />
    <glyph glyph-name="ccaron" unicode="&#x10d;" horiz-adv-x="541" 
d="M300 -10q-76 0 -134 25.5t-90 86t-32 165.5q0 108 33.5 169.5t91 87.5t128.5 26q74 0 120 -15t67 -39t21 -52q0 -21 -10.5 -43t-41.5 -36.5t-93 -14.5q0 36 -5 66.5t-17.5 49.5t-34.5 19q-25 0 -43.5 -19.5t-28.5 -66.5t-10 -131q0 -100 25 -149.5t81 -49.5q54 0 93.5 25
t55.5 60q14 -8 20.5 -22t6.5 -27q0 -25 -20.5 -52t-65.5 -45t-117 -18zM218 606q-10 22 -31.5 49t-44 53t-38.5 45v13h81q12 -10 31.5 -26.5t40.5 -33.5t36 -29q15 12 36 29t41 33.5t32 26.5h81v-13q-15 -19 -38 -45t-44 -53t-32 -49h-151z" />
    <glyph glyph-name="Dcaron" unicode="&#x10e;" horiz-adv-x="783" 
d="M24 0v57h48q20 0 32.5 13.5t12.5 45.5v483q0 34 -14 46t-35 12h-44v57h340q170 0 267.5 -84.5t97.5 -254.5q0 -109 -41.5 -194t-122.5 -133t-201 -48h-340zM297 66h43q64 0 108 38t66 107.5t22 163.5q0 141 -49.5 207.5t-145.5 66.5h-44v-583zM305 771q-10 22 -31.5 49
t-44 53t-38.5 45v13h81q12 -10 31.5 -26.5t40.5 -33.5t36 -29q15 12 36 29t41 33.5t32 26.5h81v-13q-15 -19 -38 -45t-44 -53t-32 -49h-151z" />
    <glyph glyph-name="dcaron" unicode="&#x10f;" horiz-adv-x="663" 
d="M246 -10q-98 0 -151 66.5t-53 210.5q0 145 53 213.5t149 68.5q56 0 89.5 -21t54.5 -52h6q-2 25 -3.5 57.5t-1.5 59.5v50q0 40 -23.5 50t-56.5 10h-8v57h264v-626q0 -46 21 -61.5t56 -15.5h6v-57h-208l-32 73h-7q-23 -38 -60 -60.5t-95 -22.5zM300 69q52 0 70.5 49.5
t18.5 151.5q0 97 -18.5 149t-70.5 52q-44 0 -62.5 -52.5t-18.5 -149.5q0 -101 18.5 -150.5t62.5 -49.5zM620 600v13q6 19 15 45.5t16.5 53.5t11.5 48h127v-10q-9 -21 -26 -47.5t-36.5 -53.5t-37.5 -49h-70z" />
    <glyph glyph-name="Dcroat" unicode="&#x110;" horiz-adv-x="783" 
d="M24 0v57h48q20 0 32.5 13.5t12.5 45.5v225h-79v65h79v193q0 34 -14 46t-35 12h-44v57h340q170 0 267.5 -84.5t97.5 -254.5q0 -109 -41.5 -194t-122.5 -133t-201 -48h-340zM297 66h43q64 0 108 38t66 107.5t22 163.5q0 141 -49.5 207.5t-145.5 66.5h-44v-243h107v-65h-107
v-275z" />
    <glyph glyph-name="dcroat" unicode="&#x111;" horiz-adv-x="663" 
d="M246 -10q-98 0 -151 63.5t-53 195.5q0 133 53 199t149 66q56 0 89.5 -21t54.5 -52h6q0 7 -1.5 28.5t-2.5 46t-1 40.5v16h-148v55h148v16q0 41 -23.5 50.5t-56.5 9.5h-8v57h264v-133h85v-55h-85v-438q0 -46 21 -61.5t56 -15.5h6v-57h-208l-32 73h-7q-23 -38 -60 -60.5
t-95 -22.5zM300 69q52 0 70.5 46.5t18.5 136.5q0 86 -18.5 135t-70.5 49q-44 0 -62.5 -49.5t-18.5 -135.5q0 -89 18.5 -135.5t62.5 -46.5z" />
    <glyph glyph-name="Emacron" unicode="&#x112;" horiz-adv-x="665" 
d="M24 0v57h47q21 0 33.5 12.5t12.5 41.5v487q0 38 -14 48.5t-33 10.5h-46v57h576l3 -188h-77l-5 49q-4 38 -18 56t-47 18h-158v-244h236v-64h-236v-276h188q32 0 47 20.5t20 53.5l8 49h76l-7 -188h-606zM188 767v87h290v-87h-290z" />
    <glyph glyph-name="emacron" unicode="&#x113;" horiz-adv-x="586" 
d="M314 -10q-136 0 -203 72.5t-67 203.5q0 141 67.5 212.5t190.5 71.5q114 0 179.5 -61t65.5 -180v-54h-326q2 -97 36 -141t97 -44q52 0 85 25t49 62q36 -13 36 -50q0 -29 -21.5 -56t-68 -44t-120.5 -17zM223 323h150q0 76 -16 117t-51 41q-37 0 -59.5 -40.5t-23.5 -117.5z
M170 602v87h290v-87h-290z" />
    <glyph glyph-name="Ebreve" unicode="&#x114;" horiz-adv-x="665" 
d="M24 0v57h47q21 0 33.5 12.5t12.5 41.5v487q0 38 -14 48.5t-33 10.5h-46v57h576l3 -188h-77l-5 49q-4 38 -18 56t-47 18h-158v-244h236v-64h-236v-276h188q32 0 47 20.5t20 53.5l8 49h76l-7 -188h-606zM343 771q-54 0 -91.5 25.5t-56.5 64t-20 75.5h74q8 -36 32.5 -52
t61.5 -16t61.5 16t32.5 52h74q-1 -37 -20 -75.5t-56.5 -64t-91.5 -25.5z" />
    <glyph glyph-name="ebreve" unicode="&#x115;" horiz-adv-x="586" 
d="M314 -10q-136 0 -203 72.5t-67 203.5q0 141 67.5 212.5t190.5 71.5q114 0 179.5 -61t65.5 -180v-54h-326q2 -97 36 -141t97 -44q52 0 85 25t49 62q36 -13 36 -50q0 -29 -21.5 -56t-68 -44t-120.5 -17zM223 323h150q0 76 -16 117t-51 41q-37 0 -59.5 -40.5t-23.5 -117.5z
M302 606q-54 0 -91.5 25.5t-56.5 64t-20 75.5h74q8 -36 32.5 -52t61.5 -16t61.5 16t32.5 52h74q-1 -37 -20 -75.5t-56.5 -64t-91.5 -25.5z" />
    <glyph glyph-name="Edotaccent" unicode="&#x116;" horiz-adv-x="665" 
d="M24 0v57h47q21 0 33.5 12.5t12.5 41.5v487q0 38 -14 48.5t-33 10.5h-46v57h576l3 -188h-77l-5 49q-4 38 -18 56t-47 18h-158v-244h236v-64h-236v-276h188q32 0 47 20.5t20 53.5l8 49h76l-7 -188h-606zM334 773q-40 0 -68 19t-28 57q0 40 28 58t68 18t69 -18t29 -58
q0 -38 -29 -57t-69 -19z" />
    <glyph glyph-name="edotaccent" unicode="&#x117;" horiz-adv-x="586" 
d="M314 -10q-136 0 -203 72.5t-67 203.5q0 141 67.5 212.5t190.5 71.5q114 0 179.5 -61t65.5 -180v-54h-326q2 -97 36 -141t97 -44q52 0 85 25t49 62q36 -13 36 -50q0 -29 -21.5 -56t-68 -44t-120.5 -17zM223 323h150q0 76 -16 117t-51 41q-37 0 -59.5 -40.5t-23.5 -117.5z
M305 622q-40 0 -68 19t-28 57q0 40 28 58t68 18t69 -18t29 -58q0 -38 -29 -57t-69 -19z" />
    <glyph glyph-name="Eogonek" unicode="&#x118;" horiz-adv-x="665" 
d="M24 0v57h47q21 0 33.5 12.5t12.5 41.5v487q0 38 -14 48.5t-33 10.5h-46v57h576l3 -188h-77l-5 49q-4 38 -18 56t-47 18h-158v-244h236v-64h-236v-276h188q32 0 47 20.5t20 53.5l8 49h76l-7 -188h-606zM516 -240q-77 0 -115.5 26.5t-38.5 83.5q0 31 17 58t43.5 46t57.5 26
h85q-21 -6 -42.5 -21.5t-36 -39t-14.5 -54.5q0 -25 19.5 -37t49.5 -12q14 0 29.5 2t33.5 6v-68q-16 -8 -44 -12t-44 -4z" />
    <glyph glyph-name="eogonek" unicode="&#x119;" horiz-adv-x="586" 
d="M398 -240q-76 0 -115 26.5t-39 83.5q0 39 26 71.5t63 49.5q-5 -1 -10 -1h-9q-136 0 -203 72.5t-67 203.5q0 141 67.5 212.5t190.5 71.5q114 0 179.5 -61t65.5 -180v-54h-326q2 -97 36 -141t97 -44q52 0 85 25t49 62q36 -13 36 -50q0 -28 -19 -54.5t-63 -42.5
q-44 -27 -66 -54.5t-22 -70.5q0 -25 19.5 -37t49.5 -12q13 0 29 2t34 6v-68q-16 -8 -44 -12t-44 -4zM223 323h150q0 76 -16 117t-51 41q-37 0 -59.5 -40.5t-23.5 -117.5z" />
    <glyph glyph-name="Ecaron" unicode="&#x11a;" horiz-adv-x="665" 
d="M24 0v57h47q21 0 33.5 12.5t12.5 41.5v487q0 38 -14 48.5t-33 10.5h-46v57h576l3 -188h-77l-5 49q-4 38 -18 56t-47 18h-158v-244h236v-64h-236v-276h188q32 0 47 20.5t20 53.5l8 49h76l-7 -188h-606zM262 771q-10 22 -31.5 49t-44 53t-38.5 45v13h81q12 -10 31.5 -26.5
t40.5 -33.5t36 -29q15 12 36 29t41 33.5t32 26.5h81v-13q-15 -19 -38 -45t-44 -53t-32 -49h-151z" />
    <glyph glyph-name="ecaron" unicode="&#x11b;" horiz-adv-x="586" 
d="M314 -10q-136 0 -203 72.5t-67 203.5q0 141 67.5 212.5t190.5 71.5q114 0 179.5 -61t65.5 -180v-54h-326q2 -97 36 -141t97 -44q52 0 85 25t49 62q36 -13 36 -50q0 -29 -21.5 -56t-68 -44t-120.5 -17zM223 323h150q0 76 -16 117t-51 41q-37 0 -59.5 -40.5t-23.5 -117.5z
M223 606q-10 22 -31.5 49t-44 53t-38.5 45v13h81q12 -10 31.5 -26.5t40.5 -33.5t36 -29q15 12 36 29t41 33.5t32 26.5h81v-13q-15 -19 -38 -45t-44 -53t-32 -49h-151z" />
    <glyph glyph-name="Gcircumflex" unicode="&#x11c;" horiz-adv-x="791" 
d="M432 -10q-127 0 -211 46t-125.5 128.5t-41.5 193.5q0 108 43.5 190.5t129 129t210.5 46.5q130 0 195.5 -34t65.5 -84q0 -36 -35 -63.5t-108 -27.5q0 67 -30.5 104t-90.5 37q-102 0 -145.5 -78t-43.5 -220t46 -219t156 -77q14 0 29 1.5t31 3.5v142q0 38 -15 55t-51 17h-17
v57h330v-57h-11q-31 0 -43 -17.5t-12 -58.5v-158q-62 -29 -124 -43t-132 -14zM227 771v13q16 19 38.5 45t44 53t31.5 49h151q11 -22 32 -49t44 -53t38 -45v-13h-81q-12 11 -32 27.5t-41 33.5t-36 29q-15 -12 -36 -29t-40.5 -33.5t-31.5 -27.5h-81z" />
    <glyph glyph-name="gcircumflex" unicode="&#x11d;" horiz-adv-x="569" 
d="M238 -236q-245 0 -245 134q0 50 37 80t102 34q-29 11 -54.5 31.5t-25.5 57.5q0 34 27.5 59t71.5 48q-48 15 -80.5 53.5t-32.5 103.5q0 89 54 137t169 48q37 0 68 -7t56 -20q25 28 50 43t61 15q35 0 53.5 -18t18.5 -42q0 -25 -16 -43.5t-59 -18.5q0 24 -12.5 34.5
t-24.5 10.5q-10 0 -18.5 -3t-14.5 -7q23 -21 39.5 -53.5t16.5 -72.5q0 -80 -52.5 -130t-165.5 -50q-11 0 -30 1t-28 2q-12 -4 -22.5 -17.5t-10.5 -29.5t13 -23t32 -7h120q104 0 153.5 -39.5t49.5 -114.5q0 -92 -74 -144t-226 -52zM259 251q41 0 53 32.5t12 81.5
q0 50 -12.5 85.5t-53.5 35.5q-40 0 -53.5 -36t-13.5 -86q0 -48 14 -80.5t54 -32.5zM240 -172q163 0 163 90q0 24 -17.5 38t-55.5 14h-123q-17 0 -35.5 -6t-31.5 -21.5t-13 -44.5q0 -37 31.5 -53.5t81.5 -16.5zM70 606v13q16 19 38.5 45t44 53t31.5 49h151q11 -22 32 -49
t44 -53t38 -45v-13h-81q-12 11 -32 27.5t-41 33.5t-36 29q-15 -12 -36 -29t-40.5 -33.5t-31.5 -27.5h-81z" />
    <glyph glyph-name="Gbreve" unicode="&#x11e;" horiz-adv-x="791" 
d="M432 -10q-127 0 -211 46t-125.5 128.5t-41.5 193.5q0 108 43.5 190.5t129 129t210.5 46.5q130 0 195.5 -34t65.5 -84q0 -36 -35 -63.5t-108 -27.5q0 67 -30.5 104t-90.5 37q-102 0 -145.5 -78t-43.5 -220t46 -219t156 -77q14 0 29 1.5t31 3.5v142q0 38 -15 55t-51 17h-17
v57h330v-57h-11q-31 0 -43 -17.5t-12 -58.5v-158q-62 -29 -124 -43t-132 -14zM415 771q-54 0 -91.5 25.5t-56.5 64t-20 75.5h74q8 -36 32.5 -52t61.5 -16t61.5 16t32.5 52h74q-1 -37 -20 -75.5t-56.5 -64t-91.5 -25.5z" />
    <glyph glyph-name="gbreve" unicode="&#x11f;" horiz-adv-x="569" 
d="M238 -236q-245 0 -245 134q0 50 37 80t102 34q-29 11 -54.5 31.5t-25.5 57.5q0 34 27.5 59t71.5 48q-48 15 -80.5 53.5t-32.5 103.5q0 89 54 137t169 48q37 0 68 -7t56 -20q25 28 50 43t61 15q35 0 53.5 -18t18.5 -42q0 -25 -16 -43.5t-59 -18.5q0 24 -12.5 34.5
t-24.5 10.5q-10 0 -18.5 -3t-14.5 -7q23 -21 39.5 -53.5t16.5 -72.5q0 -80 -52.5 -130t-165.5 -50q-11 0 -30 1t-28 2q-12 -4 -22.5 -17.5t-10.5 -29.5t13 -23t32 -7h120q104 0 153.5 -39.5t49.5 -114.5q0 -92 -74 -144t-226 -52zM259 251q41 0 53 32.5t12 81.5
q0 50 -12.5 85.5t-53.5 35.5q-40 0 -53.5 -36t-13.5 -86q0 -48 14 -80.5t54 -32.5zM240 -172q163 0 163 90q0 24 -17.5 38t-55.5 14h-123q-17 0 -35.5 -6t-31.5 -21.5t-13 -44.5q0 -37 31.5 -53.5t81.5 -16.5zM256 606q-54 0 -91.5 25.5t-56.5 64t-20 75.5h74
q8 -36 32.5 -52t61.5 -16t61.5 16t32.5 52h74q-1 -37 -20 -75.5t-56.5 -64t-91.5 -25.5z" />
    <glyph glyph-name="Gdot" unicode="&#x120;" horiz-adv-x="791" 
d="M432 -10q-127 0 -211 46t-125.5 128.5t-41.5 193.5q0 108 43.5 190.5t129 129t210.5 46.5q130 0 195.5 -34t65.5 -84q0 -36 -35 -63.5t-108 -27.5q0 67 -30.5 104t-90.5 37q-102 0 -145.5 -78t-43.5 -220t46 -219t156 -77q14 0 29 1.5t31 3.5v142q0 38 -15 55t-51 17h-17
v57h330v-57h-11q-31 0 -43 -17.5t-12 -58.5v-158q-62 -29 -124 -43t-132 -14zM410 787q-40 0 -68 19t-28 57q0 40 28 58t68 18t69 -18t29 -58q0 -38 -29 -57t-69 -19z" />
    <glyph glyph-name="gdot" unicode="&#x121;" horiz-adv-x="569" 
d="M238 -236q-245 0 -245 134q0 50 37 80t102 34q-29 11 -54.5 31.5t-25.5 57.5q0 34 27.5 59t71.5 48q-48 15 -80.5 53.5t-32.5 103.5q0 89 54 137t169 48q37 0 68 -7t56 -20q25 28 50 43t61 15q35 0 53.5 -18t18.5 -42q0 -25 -16 -43.5t-59 -18.5q0 24 -12.5 34.5
t-24.5 10.5q-10 0 -18.5 -3t-14.5 -7q23 -21 39.5 -53.5t16.5 -72.5q0 -80 -52.5 -130t-165.5 -50q-11 0 -30 1t-28 2q-12 -4 -22.5 -17.5t-10.5 -29.5t13 -23t32 -7h120q104 0 153.5 -39.5t49.5 -114.5q0 -92 -74 -144t-226 -52zM259 251q41 0 53 32.5t12 81.5
q0 50 -12.5 85.5t-53.5 35.5q-40 0 -53.5 -36t-13.5 -86q0 -48 14 -80.5t54 -32.5zM240 -172q163 0 163 90q0 24 -17.5 38t-55.5 14h-123q-17 0 -35.5 -6t-31.5 -21.5t-13 -44.5q0 -37 31.5 -53.5t81.5 -16.5zM255 622q-40 0 -68 19t-28 57q0 40 28 58t68 18t69 -18t29 -58
q0 -38 -29 -57t-69 -19z" />
    <glyph glyph-name="uni0122" unicode="&#x122;" horiz-adv-x="791" 
d="M432 -10q-127 0 -211 46t-125.5 128.5t-41.5 193.5q0 108 43.5 190.5t129 129t210.5 46.5q130 0 195.5 -34t65.5 -84q0 -36 -35 -63.5t-108 -27.5q0 67 -30.5 104t-90.5 37q-102 0 -145.5 -78t-43.5 -220t46 -219t156 -77q14 0 29 1.5t31 3.5v142q0 38 -15 55t-51 17h-17
v57h330v-57h-11q-31 0 -43 -17.5t-12 -58.5v-158q-62 -29 -124 -43t-132 -14zM304 -221v13q7 19 15.5 45.5t16 53.5t11.5 48h124v-10q-9 -21 -26 -47.5t-37 -53.5t-37 -49h-67z" />
    <glyph glyph-name="uni0123" unicode="&#x123;" horiz-adv-x="569" 
d="M238 -236q-245 0 -245 134q0 50 37 80t102 34q-29 11 -54.5 31.5t-25.5 57.5q0 34 27.5 59t71.5 48q-48 15 -80.5 53.5t-32.5 103.5q0 89 54 137t169 48q37 0 68 -7t56 -20q25 28 50 43t61 15q35 0 53.5 -18t18.5 -42q0 -25 -16 -43.5t-59 -18.5q0 24 -12.5 34.5
t-24.5 10.5q-10 0 -18.5 -3t-14.5 -7q23 -21 39.5 -53.5t16.5 -72.5q0 -80 -52.5 -130t-165.5 -50q-11 0 -30 1t-28 2q-12 -4 -22.5 -17.5t-10.5 -29.5t13 -23t32 -7h120q104 0 153.5 -39.5t49.5 -114.5q0 -92 -74 -144t-226 -52zM259 251q41 0 53 32.5t12 81.5
q0 50 -12.5 85.5t-53.5 35.5q-40 0 -53.5 -36t-13.5 -86q0 -48 14 -80.5t54 -32.5zM240 -172q163 0 163 90q0 24 -17.5 38t-55.5 14h-123q-17 0 -35.5 -6t-31.5 -21.5t-13 -44.5q0 -37 31.5 -53.5t81.5 -16.5zM204 606v10q9 21 26 47.5t36.5 53.5t37.5 49h67v-13
q-7 -19 -15.5 -45.5t-16 -53.5t-11.5 -48h-124z" />
    <glyph glyph-name="Hcircumflex" unicode="&#x124;" horiz-adv-x="829" 
d="M24 0v57h48q19 0 32 13.5t13 43.5v486q0 33 -15 45t-35 12h-43v57h356v-57h-40q-19 0 -30.5 -12t-11.5 -44v-196h234v194q0 34 -12 46t-34 12h-36v57h356v-57h-48q-20 0 -32.5 -12t-12.5 -46v-486q0 -30 13 -43t32 -13h48v-57h-356v57h37q21 0 33 14t12 46v223h-234v-226
q0 -30 11.5 -43.5t30.5 -13.5h40v-57h-356zM226 771v13q16 19 38.5 45t44 53t31.5 49h151q11 -22 32 -49t44 -53t38 -45v-13h-81q-12 11 -32 27.5t-41 33.5t-36 29q-15 -12 -36 -29t-40.5 -33.5t-31.5 -27.5h-81z" />
    <glyph glyph-name="hcircumflex" unicode="&#x125;" horiz-adv-x="680" 
d="M21 0v57h3q31 0 52 12t21 56v519q0 26 -12 38.5t-28 16.5t-27 4h-14v57h256v-150q0 -40 -2 -81t-4 -56h8q24 41 59 59t92 18q81 0 122.5 -45.5t41.5 -146.5v-230q0 -46 14 -58.5t48 -12.5h4v-57h-242v322q0 64 -15 99.5t-52 35.5q-30 0 -46 -22.5t-21.5 -57.5t-5.5 -72
v-183q0 -41 16.5 -53t49.5 -12h4v-57h-322zM51 798v13q16 19 38.5 45t44 53t31.5 49h151q11 -22 32 -49t44 -53t38 -45v-13h-81q-12 11 -32 27.5t-41 33.5t-36 29q-15 -12 -36 -29t-40.5 -33.5t-31.5 -27.5h-81z" />
    <glyph glyph-name="Hbar" unicode="&#x126;" horiz-adv-x="829" 
d="M24 0v57h48q19 0 32 13.5t13 43.5v385h-107v55h107v46q0 33 -15 45t-35 12h-43v57h356v-57h-40q-19 0 -30.5 -12t-11.5 -44v-47h234v45q0 34 -12 46t-34 12h-36v57h356v-57h-48q-20 0 -32.5 -12t-12.5 -46v-45h107v-55h-107v-386q0 -30 13 -43t32 -13h48v-57h-356v57h37
q21 0 33 14t12 46v223h-234v-226q0 -30 11.5 -43.5t30.5 -13.5h40v-57h-356zM298 405h234v94h-234v-94z" />
    <glyph glyph-name="hbar" unicode="&#x127;" horiz-adv-x="680" 
d="M21 0v57h3q31 0 52 12t21 56v447h-86v55h86v17q0 26 -11 38.5t-26.5 16.5t-29.5 4h-14v57h256v-133h149v-55h-149v-18q0 -32 -2 -67t-4 -49h8q24 40 59 58.5t92 18.5q81 0 122.5 -45.5t41.5 -146.5v-195q0 -46 14 -58.5t48 -12.5h4v-57h-242v287q0 64 -15 99t-52 35
q-30 0 -46 -22t-21.5 -57t-5.5 -73v-147q0 -41 16.5 -53t49.5 -12h4v-57h-322z" />
    <glyph glyph-name="Itilde" unicode="&#x128;" horiz-adv-x="415" 
d="M24 0v57h48q17 0 31 12t14 44v485q0 34 -14 46.5t-31 12.5h-48v57h367v-57h-49q-20 0 -32 -12.5t-12 -46.5v-484q0 -32 13 -44.5t31 -12.5h49v-57h-367zM277 771q-27 0 -49 9.5t-40.5 22t-35 22t-32.5 9.5q-20 0 -33 -16.5t-16 -36.5h-73q2 44 20.5 80.5t48 58t65.5 21.5
q27 0 48.5 -9.5t40 -22t35 -22t32.5 -9.5q19 0 32.5 16.5t16.5 36.5h73q-2 -44 -20.5 -80.5t-48 -58t-64.5 -21.5z" />
    <glyph glyph-name="itilde" unicode="&#x129;" horiz-adv-x="365" 
d="M14 0v57h12q26 0 46.5 14t20.5 56v288q0 38 -21 51t-46 13h-16v57h258v-411q0 -41 20.5 -54.5t45.5 -13.5h12v-57h-332zM252 606q-27 0 -49 9.5t-40.5 22t-35 22t-32.5 9.5q-20 0 -33 -16.5t-16 -36.5h-73q2 44 20.5 80.5t48 58t65.5 21.5q27 0 48.5 -9.5t40 -22t35 -22
t32.5 -9.5q19 0 32.5 16.5t16.5 36.5h73q-2 -44 -20.5 -80.5t-48 -58t-64.5 -21.5z" />
    <glyph glyph-name="Imacron" unicode="&#x12a;" horiz-adv-x="415" 
d="M24 0v57h48q17 0 31 12t14 44v485q0 34 -14 46.5t-31 12.5h-48v57h367v-57h-49q-20 0 -32 -12.5t-12 -46.5v-484q0 -32 13 -44.5t31 -12.5h49v-57h-367zM61 767v87h290v-87h-290z" />
    <glyph glyph-name="imacron" unicode="&#x12b;" horiz-adv-x="365" 
d="M14 0v57h12q26 0 46.5 14t20.5 56v288q0 38 -21 51t-46 13h-16v57h258v-411q0 -41 20.5 -54.5t45.5 -13.5h12v-57h-332zM19 602v87h290v-87h-290z" />
    <glyph glyph-name="Ibreve" unicode="&#x12c;" horiz-adv-x="415" 
d="M24 0v57h48q17 0 31 12t14 44v485q0 34 -14 46.5t-31 12.5h-48v57h367v-57h-49q-20 0 -32 -12.5t-12 -46.5v-484q0 -32 13 -44.5t31 -12.5h49v-57h-367zM205 771q-54 0 -91.5 25.5t-56.5 64t-20 75.5h74q8 -36 32.5 -52t61.5 -16t61.5 16t32.5 52h74q-1 -37 -20 -75.5
t-56.5 -64t-91.5 -25.5z" />
    <glyph glyph-name="ibreve" unicode="&#x12d;" horiz-adv-x="365" 
d="M14 0v57h12q26 0 46.5 14t20.5 56v288q0 38 -21 51t-46 13h-16v57h258v-411q0 -41 20.5 -54.5t45.5 -13.5h12v-57h-332zM174 606q-54 0 -91.5 25.5t-56.5 64t-20 75.5h74q8 -36 32.5 -52t61.5 -16t61.5 16t32.5 52h74q-1 -37 -20 -75.5t-56.5 -64t-91.5 -25.5z" />
    <glyph glyph-name="Iogonek" unicode="&#x12e;" horiz-adv-x="415" 
d="M24 0v57h48q17 0 31 12t14 44v485q0 34 -14 46.5t-31 12.5h-48v57h367v-57h-49q-20 0 -32 -12.5t-12 -46.5v-484q0 -32 13 -44.5t31 -12.5h49v-57h-367zM264 -240q-77 0 -115.5 26.5t-38.5 83.5q0 31 17 58t43.5 46t57.5 26h85q-21 -6 -42.5 -21.5t-36 -39t-14.5 -54.5
q0 -25 19.5 -37t49.5 -12q14 0 29.5 2t33.5 6v-68q-16 -8 -44 -12t-44 -4z" />
    <glyph glyph-name="iogonek" unicode="&#x12f;" horiz-adv-x="365" 
d="M175 622q-41 0 -68.5 19t-27.5 57q0 40 27.5 58t68.5 18q39 0 68.5 -18t29.5 -58q0 -38 -29.5 -57t-68.5 -19zM14 0v57h12q26 0 46.5 14t20.5 56v288q0 38 -21 51t-46 13h-16v57h258v-411q0 -41 20.5 -54.5t45.5 -13.5h12v-57h-332zM230 -240q-77 0 -115.5 26.5
t-38.5 83.5q0 31 17 58t43.5 46t57.5 26h85q-21 -6 -42.5 -21.5t-36 -39t-14.5 -54.5q0 -25 19.5 -37t49.5 -12q14 0 29.5 2t33.5 6v-68q-16 -8 -44 -12t-44 -4z" />
    <glyph glyph-name="Idotaccent" unicode="&#x130;" horiz-adv-x="415" 
d="M24 0v57h48q17 0 31 12t14 44v485q0 34 -14 46.5t-31 12.5h-48v57h367v-57h-49q-20 0 -32 -12.5t-12 -46.5v-484q0 -32 13 -44.5t31 -12.5h49v-57h-367zM204 787q-40 0 -68 19t-28 57q0 40 28 58t68 18t69 -18t29 -58q0 -38 -29 -57t-69 -19z" />
    <glyph glyph-name="dotlessi" unicode="&#x131;" horiz-adv-x="365" 
d="M14 0v57h12q26 0 46.5 14t20.5 56v288q0 38 -21 51t-46 13h-16v57h258v-411q0 -41 20.5 -54.5t45.5 -13.5h12v-57h-332z" />
    <glyph glyph-name="IJ" unicode="&#x132;" horiz-adv-x="839" 
d="M24 0v57h48q17 0 31 12t14 44v485q0 34 -14 46.5t-31 12.5h-48v57h367v-57h-49q-20 0 -32 -12.5t-12 -46.5v-484q0 -32 13 -44.5t31 -12.5h49v-57h-367zM402 -240v62h21q28 0 56 17t47.5 56t19.5 104v602q0 32 -14 44t-30 12h-49v57h367v-57h-48q-17 0 -31 -12t-14 -46
v-599q0 -68 -24 -114t-64.5 -74t-90.5 -40t-103 -12h-43z" />
    <glyph glyph-name="ij" unicode="&#x133;" horiz-adv-x="728" 
d="M175 622q-41 0 -68.5 19t-27.5 57q0 40 27.5 58t68.5 18q39 0 68.5 -18t29.5 -58q0 -38 -29.5 -57t-68.5 -19zM14 0v57h12q26 0 46.5 14t20.5 56v288q0 38 -21 51t-46 13h-16v57h258v-411q0 -41 20.5 -54.5t45.5 -13.5h12v-57h-332zM546 622q-41 0 -69 19t-28 57
q0 40 28 58t69 18q39 0 68 -18t29 -58q0 -38 -29 -57t-68 -19zM342 -240v68h7q55 0 84 37.5t29 138.5v409q0 43 -23.5 54.5t-55.5 11.5h-3v57h257v-544q0 -90 -35 -140.5t-97 -71t-142 -20.5h-21z" />
    <glyph glyph-name="Jcircumflex" unicode="&#x134;" horiz-adv-x="412" 
d="M-24 -240v62h21q28 0 56 17t47.5 56t19.5 104v602q0 32 -14 44t-30 12h-49v57h367v-57h-48q-17 0 -31 -12t-14 -46v-599q0 -68 -24 -114t-64.5 -74t-90.5 -40t-103 -12h-43zM21 771v13q16 19 38.5 45t44 53t31.5 49h151q11 -22 32 -49t44 -53t38 -45v-13h-81
q-12 11 -32 27.5t-41 33.5t-36 29q-15 -12 -36 -29t-40.5 -33.5t-31.5 -27.5h-81z" />
    <glyph glyph-name="jcircumflex" unicode="&#x135;" horiz-adv-x="363" 
d="M-16 -240v68h6q52 0 79.5 37.5t27.5 138.5v409q0 43 -23.5 54.5t-55.5 11.5h-3v57h257v-544q0 -90 -34.5 -140.5t-94.5 -71t-138 -20.5h-21zM-25 606v13q16 19 38.5 45t44 53t31.5 49h151q11 -22 32 -49t44 -53t38 -45v-13h-81q-12 11 -32 27.5t-41 33.5t-36 29
q-15 -12 -36 -29t-40.5 -33.5t-31.5 -27.5h-81z" />
    <glyph glyph-name="uni0136" unicode="&#x136;" horiz-adv-x="760" 
d="M24 0v57h43q20 0 35 11.5t15 43.5v491q0 31 -13.5 42.5t-33.5 11.5h-46v57h356v-57h-38q-20 0 -32 -12t-12 -44v-239l143 158q31 34 45.5 58t14.5 47q0 18 -13.5 25.5t-45.5 7.5v56h288v-56q-43 0 -78.5 -24.5t-69.5 -61.5l-132 -140l191 -290q32 -49 56 -67t58 -18h5
v-57h-77q-55 0 -92 6t-61.5 19.5t-43 35t-37.5 52.5l-119 200l-32 -24v-176q0 -32 14.5 -44t35.5 -12h32v-57h-356zM316 -221v13q7 19 15.5 45.5t16 53.5t11.5 48h124v-10q-9 -21 -26 -47.5t-37 -53.5t-37 -49h-67z" />
    <glyph glyph-name="uni0137" unicode="&#x137;" horiz-adv-x="657" 
d="M16 0v57h14q12 0 27.5 4.5t27.5 17.5t12 41v524q0 26 -12 38.5t-28 16.5t-27 4h-14v57h256v-383q0 -17 -1 -38t-2 -38t-2 -22l126 142q10 12 13 19.5t3 12.5q0 13 -14 21.5t-39 8.5v53h264v-53q-34 0 -68 -19t-73 -63l-55 -64l133 -198q55 -82 96 -82h3v-57h-14
q-59 0 -99.5 3.5t-68.5 14t-48.5 30t-40.5 51.5l-80 128l-33 -28v-77q0 -28 12 -42t27.5 -18.5t26.5 -4.5h16v-57h-338zM260 -221v13q7 19 15.5 45.5t16 53.5t11.5 48h124v-10q-9 -21 -26 -47.5t-37 -53.5t-37 -49h-67z" />
    <glyph glyph-name="kgreenlandic" unicode="&#x138;" horiz-adv-x="657" 
d="M16 0v57h14q12 0 27.5 4.5t27.5 17.5t12 41v300q0 26 -12 38.5t-28 16.5t-27 4h-14v57h256v-162q0 -18 -1 -40t-2.5 -38.5l-1.5 -16.5l126 142q10 12 13 19.5t3 12.5q0 13 -14 21.5t-39 8.5v53h264v-53q-34 0 -68 -19t-73 -63l-60 -69l133 -198q26 -40 53.5 -58.5
t47.5 -18.5h3v-57h-14q-79 0 -126.5 5t-77.5 23t-55 58l-84 133l-27 -20v-77q0 -28 12 -42t27.5 -18.5t26.5 -4.5h16v-57h-338z" />
    <glyph glyph-name="Lacute" unicode="&#x139;" horiz-adv-x="667" 
d="M24 0v57h48q17 0 31 12t14 44v486q0 34 -14.5 46t-34.5 12h-44v57h367v-57h-46q-24 0 -35 -11.5t-11 -43.5v-537h181q31 0 50.5 20t30.5 66l19 75h57l-7 -226h-606zM176 771v13q14 19 34 45t38 53t29 49h177v-10q-9 -13 -31.5 -33t-51.5 -42t-59.5 -41.5t-55.5 -33.5h-80
z" />
    <glyph glyph-name="lacute" unicode="&#x13a;" horiz-adv-x="369" 
d="M19 0v57h11q25 0 46 13.5t21 54.5v519q0 26 -12 38.5t-28 16.5t-27 4h-11v57h253v-635q0 -41 21 -54.5t46 -13.5h11v-57h-331zM112 799v13q14 19 34 45t38 53t29 49h177v-10q-9 -13 -31.5 -33t-51.5 -42t-59.5 -41.5t-55.5 -33.5h-80z" />
    <glyph glyph-name="uni013B" unicode="&#x13b;" horiz-adv-x="667" 
d="M24 0v57h48q17 0 31 12t14 44v486q0 34 -14.5 46t-34.5 12h-44v57h367v-57h-46q-24 0 -35 -11.5t-11 -43.5v-537h181q31 0 50.5 20t30.5 66l19 75h57l-7 -226h-606zM238 -221v13q7 19 15.5 45.5t16 53.5t11.5 48h124v-10q-9 -21 -26 -47.5t-37 -53.5t-37 -49h-67z" />
    <glyph glyph-name="uni013C" unicode="&#x13c;" horiz-adv-x="369" 
d="M19 0v57h11q25 0 46 13.5t21 54.5v519q0 26 -12 38.5t-28 16.5t-27 4h-11v57h253v-635q0 -41 21 -54.5t46 -13.5h11v-57h-331zM81 -221v13q7 19 15.5 45.5t16 53.5t11.5 48h124v-10q-9 -21 -26 -47.5t-37 -53.5t-37 -49h-67z" />
    <glyph glyph-name="Lcaron" unicode="&#x13d;" horiz-adv-x="667" 
d="M24 0v57h48q17 0 31 12t14 44v486q0 34 -14.5 46t-34.5 12h-44v57h367v-57h-46q-24 0 -35 -11.5t-11 -43.5v-537h181q31 0 50.5 20t30.5 66l19 75h57l-7 -226h-606zM463 554v13q6 19 15 45.5t16.5 53.5t11.5 48h127v-10q-9 -21 -26 -47.5t-36.5 -53.5t-37.5 -49h-70z" />
    <glyph glyph-name="lcaron" unicode="&#x13e;" horiz-adv-x="369" 
d="M19 0v57h11q25 0 46 13.5t21 54.5v519q0 26 -12 38.5t-28 16.5t-27 4h-11v57h253v-635q0 -41 21 -54.5t46 -13.5h11v-57h-331zM327 600v13q6 19 15 45.5t16.5 53.5t11.5 48h127v-10q-9 -21 -26 -47.5t-36.5 -53.5t-37.5 -49h-70z" />
    <glyph glyph-name="Ldot" unicode="&#x13f;" horiz-adv-x="667" 
d="M24 0v57h48q17 0 31 12t14 44v486q0 34 -14.5 46t-34.5 12h-44v57h367v-57h-46q-24 0 -35 -11.5t-11 -43.5v-537h181q31 0 50.5 20t30.5 66l19 75h57l-7 -226h-606zM532 290q-40 0 -68 19t-28 57q0 40 28 58t68 18t69 -18t29 -58q0 -38 -29 -57t-69 -19z" />
    <glyph glyph-name="ldot" unicode="&#x140;" horiz-adv-x="507" 
d="M19 0v57h11q25 0 46 13.5t21 54.5v519q0 26 -12 38.5t-28 16.5t-27 4h-11v57h253v-635q0 -41 21 -54.5t46 -13.5h11v-57h-331zM432 252q-40 0 -68 19t-28 57q0 40 28 58t68 18t69 -18t29 -58q0 -38 -29 -57t-69 -19z" />
    <glyph glyph-name="Lslash" unicode="&#x141;" horiz-adv-x="667" 
d="M24 0v57h48q17 0 31 12t14 44v161l-79 -45v73l79 46v251q0 34 -14.5 46t-34.5 12h-44v57h367v-57h-46q-24 0 -34.5 -11.5t-11.5 -43.5v-149l139 81v-75l-139 -81v-313h181q31 0 50.5 20t30.5 66l19 75h57l-7 -226h-606z" />
    <glyph glyph-name="lslash" unicode="&#x142;" horiz-adv-x="364" 
d="M19 0v57h11q25 0 46 13.5t21 54.5v148l-77 -46v73l77 46v298q0 26 -12 38.5t-28 16.5t-27 4h-11v57h253v-307l82 50v-75l-82 -49v-254q0 -41 21 -54.5t46 -13.5h11v-57h-331z" />
    <glyph glyph-name="Nacute" unicode="&#x143;" horiz-adv-x="798" 
d="M24 0v57h37q25 0 40.5 11t15.5 52v478q0 38 -15.5 48.5t-35.5 10.5h-42v57h238l351 -477v361q0 35 -14.5 47t-34.5 12h-43v57h265v-57h-43q-22 0 -36 -12.5t-14 -50.5v-594h-100l-396 541v-421q0 -41 13 -52t36 -11h43v-57h-265zM349 771v13q14 19 34 45t38 53t29 49h177
v-10q-9 -13 -31.5 -33t-51.5 -42t-59.5 -41.5t-55.5 -33.5h-80z" />
    <glyph glyph-name="nacute" unicode="&#x144;" horiz-adv-x="676" 
d="M17 0v57h3q34 0 53.5 12t19.5 56v290q0 41 -17.5 52.5t-50.5 11.5h-3v57h229l13 -67h5q24 42 59.5 61.5t92.5 19.5q79 0 121.5 -45.5t42.5 -146.5v-230q0 -46 14 -58.5t48 -12.5h4v-57h-241v322q0 64 -14 99.5t-52 35.5q-29 0 -45.5 -21.5t-23.5 -56t-7 -74.5v-183
q0 -41 17.5 -53t50.5 -12h3v-57h-322zM267 606v13q14 19 34 45t38 53t29 49h177v-10q-9 -13 -31.5 -33t-51.5 -42t-59.5 -41.5t-55.5 -33.5h-80z" />
    <glyph glyph-name="uni0145" unicode="&#x145;" horiz-adv-x="798" 
d="M24 0v57h37q25 0 40.5 11t15.5 52v478q0 38 -15.5 48.5t-35.5 10.5h-42v57h238l351 -477v361q0 35 -14.5 47t-34.5 12h-43v57h265v-57h-43q-22 0 -36 -12.5t-14 -50.5v-594h-100l-396 541v-421q0 -41 13 -52t36 -11h43v-57h-265zM311 -221v13q7 19 15.5 45.5t16 53.5
t11.5 48h124v-10q-9 -21 -26 -47.5t-37 -53.5t-37 -49h-67z" />
    <glyph glyph-name="uni0146" unicode="&#x146;" horiz-adv-x="676" 
d="M17 0v57h3q34 0 53.5 12t19.5 56v290q0 41 -17.5 52.5t-50.5 11.5h-3v57h229l13 -67h5q24 42 59.5 61.5t92.5 19.5q79 0 121.5 -45.5t42.5 -146.5v-230q0 -46 14 -58.5t48 -12.5h4v-57h-241v322q0 64 -14 99.5t-52 35.5q-29 0 -45.5 -21.5t-23.5 -56t-7 -74.5v-183
q0 -41 17.5 -53t50.5 -12h3v-57h-322zM243 -221v13q7 19 15.5 45.5t16 53.5t11.5 48h124v-10q-9 -21 -26 -47.5t-37 -53.5t-37 -49h-67z" />
    <glyph glyph-name="Ncaron" unicode="&#x147;" horiz-adv-x="798" 
d="M24 0v57h37q25 0 40.5 11t15.5 52v478q0 38 -15.5 48.5t-35.5 10.5h-42v57h238l351 -477v361q0 35 -14.5 47t-34.5 12h-43v57h265v-57h-43q-22 0 -36 -12.5t-14 -50.5v-594h-100l-396 541v-421q0 -41 13 -52t36 -11h43v-57h-265zM344 771q-10 22 -31.5 49t-44 53
t-38.5 45v13h81q12 -10 31.5 -26.5t40.5 -33.5t36 -29q15 12 36 29t41 33.5t32 26.5h81v-13q-15 -19 -38 -45t-44 -53t-32 -49h-151z" />
    <glyph glyph-name="ncaron" unicode="&#x148;" horiz-adv-x="676" 
d="M17 0v57h3q34 0 53.5 12t19.5 56v290q0 41 -17.5 52.5t-50.5 11.5h-3v57h229l13 -67h5q24 42 59.5 61.5t92.5 19.5q79 0 121.5 -45.5t42.5 -146.5v-230q0 -46 14 -58.5t48 -12.5h4v-57h-241v322q0 64 -14 99.5t-52 35.5q-29 0 -45.5 -21.5t-23.5 -56t-7 -74.5v-183
q0 -41 17.5 -53t50.5 -12h3v-57h-322zM263 606q-10 22 -31.5 49t-44 53t-38.5 45v13h81q12 -10 31.5 -26.5t40.5 -33.5t36 -29q15 12 36 29t41 33.5t32 26.5h81v-13q-15 -19 -38 -45t-44 -53t-32 -49h-151z" />
    <glyph glyph-name="napostrophe" unicode="&#x149;" horiz-adv-x="885" 
d="M226 0v57h3q34 0 53.5 12t19.5 56v290q0 41 -17.5 52.5t-50.5 11.5h-3v57h229l13 -67h5q24 42 59.5 61.5t92.5 19.5q79 0 121.5 -45.5t42.5 -146.5v-230q0 -46 14 -58.5t48 -12.5h4v-57h-241v322q0 64 -14 99.5t-52 35.5q-29 0 -45.5 -21.5t-23.5 -56t-7 -74.5v-183
q0 -41 17.5 -53t50.5 -12h3v-57h-322zM21 399v56q41 16 63 30t22 43q0 14 -11 21.5t-25.5 16.5t-25.5 25.5t-11 49.5q0 36 21.5 54.5t53.5 18.5q46 0 72 -32t26 -87q0 -64 -42 -117t-143 -79z" />
    <glyph glyph-name="Eng" unicode="&#x14a;" horiz-adv-x="798" 
d="M480 -240v62h22q44 0 77.5 41t33.5 128v9l-416 541v-421q0 -41 13 -52t36 -11h43v-57h-265v57h37q25 0 40.5 11t15.5 52v478q0 38 -15.5 48.5t-35.5 10.5h-42v57h238l351 -467v351q0 35 -14.5 47t-34.5 12h-43v57h265v-57h-43q-22 0 -36 -12.5t-14 -50.5v-598
q0 -90 -20.5 -141.5t-58.5 -73t-91 -21.5h-43z" />
    <glyph glyph-name="eng" unicode="&#x14b;" horiz-adv-x="680" 
d="M306 -240v68h6q47 0 72.5 37.5t25.5 138.5v318q0 64 -14 99.5t-52 35.5q-29 0 -45.5 -21.5t-23.5 -56t-7 -74.5v-183q0 -41 17.5 -53t50.5 -12h3v-57h-322v57h3q34 0 53.5 12t19.5 56v290q0 41 -17.5 52.5t-50.5 11.5h-3v57h229l13 -67h5q24 42 59.5 61.5t92.5 19.5
q79 0 121.5 -45.5t42.5 -146.5v-366q0 -90 -33.5 -140.5t-91.5 -71t-133 -20.5h-21z" />
    <glyph glyph-name="Omacron" unicode="&#x14c;" horiz-adv-x="805" 
d="M403 -10q-117 0 -194.5 46t-116 129t-38.5 194t38.5 193t116 127.5t195.5 45.5q111 0 188.5 -45.5t118 -128t40.5 -193.5t-40.5 -193.5t-118.5 -128.5t-189 -46zM403 59q86 0 121.5 79t35.5 220t-35 219.5t-121 78.5t-122.5 -78.5t-36.5 -219.5t36.5 -220t121.5 -79z
M256 767v87h290v-87h-290z" />
    <glyph glyph-name="omacron" unicode="&#x14d;" horiz-adv-x="628" 
d="M312 -10q-124 0 -196 70t-72 211t69 210t202 69q125 0 197 -69t72 -210t-69 -211t-203 -70zM314 57q51 0 71.5 54.5t20.5 159.5t-21 158t-72 53t-71 -53t-20 -158t20.5 -159.5t71.5 -54.5zM165 602v87h290v-87h-290z" />
    <glyph glyph-name="Obreve" unicode="&#x14e;" horiz-adv-x="805" 
d="M403 -10q-117 0 -194.5 46t-116 129t-38.5 194t38.5 193t116 127.5t195.5 45.5q111 0 188.5 -45.5t118 -128t40.5 -193.5t-40.5 -193.5t-118.5 -128.5t-189 -46zM403 59q86 0 121.5 79t35.5 220t-35 219.5t-121 78.5t-122.5 -78.5t-36.5 -219.5t36.5 -220t121.5 -79z
M397 771q-54 0 -91.5 25.5t-56.5 64t-20 75.5h74q8 -36 32.5 -52t61.5 -16t61.5 16t32.5 52h74q-1 -37 -20 -75.5t-56.5 -64t-91.5 -25.5z" />
    <glyph glyph-name="obreve" unicode="&#x14f;" horiz-adv-x="628" 
d="M312 -10q-124 0 -196 70t-72 211t69 210t202 69q125 0 197 -69t72 -210t-69 -211t-203 -70zM314 57q51 0 71.5 54.5t20.5 159.5t-21 158t-72 53t-71 -53t-20 -158t20.5 -159.5t71.5 -54.5zM310 606q-54 0 -91.5 25.5t-56.5 64t-20 75.5h74q8 -36 32.5 -52t61.5 -16
t61.5 16t32.5 52h74q-1 -37 -20 -75.5t-56.5 -64t-91.5 -25.5z" />
    <glyph glyph-name="Ohungarumlaut" unicode="&#x150;" horiz-adv-x="805" 
d="M403 -10q-117 0 -194.5 46t-116 129t-38.5 194t38.5 193t116 127.5t195.5 45.5q111 0 188.5 -45.5t118 -128t40.5 -193.5t-40.5 -193.5t-118.5 -128.5t-189 -46zM403 59q86 0 121.5 79t35.5 220t-35 219.5t-121 78.5t-122.5 -78.5t-36.5 -219.5t36.5 -220t121.5 -79z
M431 771v13q21 32 45 72.5t40 74.5h135v-10q-10 -18 -36 -46.5t-55 -57t-52 -46.5h-77zM237 771v13q21 32 45 72.5t40 74.5h135v-10q-10 -18 -36 -46.5t-55 -57t-52 -46.5h-77z" />
    <glyph glyph-name="ohungarumlaut" unicode="&#x151;" horiz-adv-x="628" 
d="M312 -10q-124 0 -196 70t-72 211t69 210t202 69q125 0 197 -69t72 -210t-69 -211t-203 -70zM314 57q51 0 71.5 54.5t20.5 159.5t-21 158t-72 53t-71 -53t-20 -158t20.5 -159.5t71.5 -54.5zM341 606v13q21 32 45 72.5t40 74.5h135v-10q-10 -18 -36 -46.5t-55 -57
t-52 -46.5h-77zM147 606v13q21 32 45 72.5t40 74.5h135v-10q-10 -18 -36 -46.5t-55 -57t-52 -46.5h-77z" />
    <glyph glyph-name="OE" unicode="&#x152;" horiz-adv-x="1043" 
d="M403 -10q-117 0 -194.5 46t-116 129t-38.5 194t38.5 193t116 127.5t195.5 45.5q26 0 55 -3t52 -8h466l4 -188h-77l-5 49q-4 38 -18.5 56t-47.5 18h-158v-244h236v-64h-236v-276h189q31 0 46.5 20.5t20.5 53.5l8 49h76l-7 -188h-501q-48 -10 -104 -10zM403 59q29 0 51 8
t40 23v535q-15 13 -38 22t-52 9q-86 0 -122.5 -78.5t-36.5 -219.5t36.5 -220t121.5 -79z" />
    <glyph glyph-name="oe" unicode="&#x153;" horiz-adv-x="948" 
d="M307 -10q-121 0 -192 70t-71 211t68 210t198 69q114 0 183 -69q63 69 177 69q110 0 174 -61t64 -180v-54h-324q0 -29 5 -61.5t18 -60.5t39 -45.5t68 -17.5q54 0 86 25t50 62q16 -7 26 -19t10 -31q0 -48 -50 -82.5t-151 -34.5q-65 0 -110 17t-79 51q-65 -68 -189 -68z
M314 57q50 0 71 52t21 162q0 107 -22 159t-71 52q-51 0 -71 -53t-20 -158t20.5 -159.5t71.5 -54.5zM585 323h150q0 158 -67 158q-36 0 -59 -40.5t-24 -117.5z" />
    <glyph glyph-name="Racute" unicode="&#x154;" horiz-adv-x="732" 
d="M24 0v57h40q20 0 36.5 10t16.5 48v483q0 38 -18 48.5t-35 10.5h-40v57h344q104 0 167.5 -22.5t92 -64.5t28.5 -100q0 -55 -19.5 -92.5t-51 -60t-68.5 -33.5l116 -199q26 -45 47.5 -65t47.5 -20h6v-57h-41q-88 0 -142 17t-83 73l-112 218h-58v-193q0 -38 14 -48t36 -10h32
v-57h-356zM298 370h50q63 0 89.5 36t26.5 108q0 74 -29 105.5t-89 31.5h-48v-281zM273 771v13q14 19 34 45t38 53t29 49h177v-10q-9 -13 -31.5 -33t-51.5 -42t-59.5 -41.5t-55.5 -33.5h-80z" />
    <glyph glyph-name="racute" unicode="&#x155;" horiz-adv-x="544" 
d="M15 0v57h4q34 0 53.5 12.5t19.5 59.5v282q0 44 -17 56t-50 12h-3v57h219l20 -86h5q23 52 57 75.5t94 23.5q59 0 85.5 -25.5t26.5 -65.5q0 -52 -37.5 -76.5t-101.5 -24.5q0 41 -9 63t-37 22t-45 -26t-24 -63t-7 -68v-161q0 -44 18 -55.5t47 -11.5h34v-57h-352zM179 606v13
q14 19 34 45t38 53t29 49h177v-10q-9 -13 -31.5 -33t-51.5 -42t-59.5 -41.5t-55.5 -33.5h-80z" />
    <glyph glyph-name="uni0156" unicode="&#x156;" horiz-adv-x="732" 
d="M24 0v57h40q20 0 36.5 10t16.5 48v483q0 38 -18 48.5t-35 10.5h-40v57h344q104 0 167.5 -22.5t92 -64.5t28.5 -100q0 -55 -19.5 -92.5t-51 -60t-68.5 -33.5l116 -199q26 -45 47.5 -65t47.5 -20h6v-57h-41q-88 0 -142 17t-83 73l-112 218h-58v-193q0 -38 14 -48t36 -10h32
v-57h-356zM298 370h50q63 0 89.5 36t26.5 108q0 74 -29 105.5t-89 31.5h-48v-281zM271 -221v13q7 19 15.5 45.5t16 53.5t11.5 48h124v-10q-9 -21 -26 -47.5t-37 -53.5t-37 -49h-67z" />
    <glyph glyph-name="uni0157" unicode="&#x157;" horiz-adv-x="544" 
d="M15 0v57h4q34 0 53.5 12.5t19.5 59.5v282q0 44 -17 56t-50 12h-3v57h219l20 -86h5q23 52 57 75.5t94 23.5q59 0 85.5 -25.5t26.5 -65.5q0 -52 -37.5 -76.5t-101.5 -24.5q0 41 -9 63t-37 22t-45 -26t-24 -63t-7 -68v-161q0 -44 18 -55.5t47 -11.5h34v-57h-352zM93 -221v13
q7 19 15.5 45.5t16 53.5t11.5 48h124v-10q-9 -21 -26 -47.5t-37 -53.5t-37 -49h-67z" />
    <glyph glyph-name="Rcaron" unicode="&#x158;" horiz-adv-x="732" 
d="M24 0v57h40q20 0 36.5 10t16.5 48v483q0 38 -18 48.5t-35 10.5h-40v57h344q104 0 167.5 -22.5t92 -64.5t28.5 -100q0 -55 -19.5 -92.5t-51 -60t-68.5 -33.5l116 -199q26 -45 47.5 -65t47.5 -20h6v-57h-41q-88 0 -142 17t-83 73l-112 218h-58v-193q0 -38 14 -48t36 -10h32
v-57h-356zM298 370h50q63 0 89.5 36t26.5 108q0 74 -29 105.5t-89 31.5h-48v-281zM261 771q-10 22 -31.5 49t-44 53t-38.5 45v13h81q12 -10 31.5 -26.5t40.5 -33.5t36 -29q15 12 36 29t41 33.5t32 26.5h81v-13q-15 -19 -38 -45t-44 -53t-32 -49h-151z" />
    <glyph glyph-name="rcaron" unicode="&#x159;" horiz-adv-x="544" 
d="M15 0v57h4q34 0 53.5 12.5t19.5 59.5v282q0 44 -17 56t-50 12h-3v57h219l20 -86h5q23 52 57 75.5t94 23.5q59 0 85.5 -25.5t26.5 -65.5q0 -52 -37.5 -76.5t-101.5 -24.5q0 41 -9 63t-37 22t-45 -26t-24 -63t-7 -68v-161q0 -44 18 -55.5t47 -11.5h34v-57h-352zM208 606
q-10 22 -31.5 49t-44 53t-38.5 45v13h81q12 -10 31.5 -26.5t40.5 -33.5t36 -29q15 12 36 29t41 33.5t32 26.5h81v-13q-15 -19 -38 -45t-44 -53t-32 -49h-151z" />
    <glyph glyph-name="Sacute" unicode="&#x15a;" horiz-adv-x="596" 
d="M275 -10q-75 0 -123 13.5t-75.5 34.5t-38.5 45.5t-11 45.5q0 40 18 62.5t46.5 32t59.5 9.5q0 -63 20.5 -102.5t53 -58t69.5 -18.5q56 0 86.5 30.5t30.5 70.5q0 49 -45 79.5t-127 63.5q-73 30 -115 63.5t-59 73t-17 85.5q0 63 34 108.5t92 70.5t132 25q78 0 127 -17.5
t72.5 -45t23.5 -58.5q0 -37 -31.5 -62t-103.5 -25q0 31 -12 64t-36 56t-60 23q-39 0 -66 -20.5t-27 -63.5q0 -23 13 -45.5t50 -46.5t108 -53q72 -29 114.5 -61.5t60.5 -71t18 -86.5q0 -65 -34.5 -115t-97.5 -78t-150 -28zM255 771v13q14 19 34 45t38 53t29 49h177v-10
q-9 -13 -31.5 -33t-51.5 -42t-59.5 -41.5t-55.5 -33.5h-80z" />
    <glyph glyph-name="sacute" unicode="&#x15b;" horiz-adv-x="496" 
d="M238 -10q-79 0 -125 15.5t-66 42.5t-20 60q0 30 15 47t38 24t47 7q0 -66 31.5 -98t80.5 -32t71 18t22 43q0 31 -28 50t-94 39q-86 27 -130.5 65.5t-44.5 111.5q0 85 62 125.5t164 40.5q66 0 106 -14t58.5 -36t18.5 -45q0 -35 -25 -53t-81 -18q0 49 -25.5 76t-67.5 27
q-31 0 -53.5 -14t-22.5 -41q0 -20 11 -34.5t38.5 -27.5t78.5 -29q49 -16 87 -37t59 -53t21 -80q0 -82 -58 -131t-168 -49zM192 606v13q14 19 34 45t38 53t29 49h177v-10q-9 -13 -31.5 -33t-51.5 -42t-59.5 -41.5t-55.5 -33.5h-80z" />
    <glyph glyph-name="Scircumflex" unicode="&#x15c;" horiz-adv-x="596" 
d="M275 -10q-75 0 -123 13.5t-75.5 34.5t-38.5 45.5t-11 45.5q0 40 18 62.5t46.5 32t59.5 9.5q0 -63 20.5 -102.5t53 -58t69.5 -18.5q56 0 86.5 30.5t30.5 70.5q0 49 -45 79.5t-127 63.5q-73 30 -115 63.5t-59 73t-17 85.5q0 63 34 108.5t92 70.5t132 25q78 0 127 -17.5
t72.5 -45t23.5 -58.5q0 -37 -31.5 -62t-103.5 -25q0 31 -12 64t-36 56t-60 23q-39 0 -66 -20.5t-27 -63.5q0 -23 13 -45.5t50 -46.5t108 -53q72 -29 114.5 -61.5t60.5 -71t18 -86.5q0 -65 -34.5 -115t-97.5 -78t-150 -28zM116 771v13q16 19 38.5 45t44 53t31.5 49h151
q11 -22 32 -49t44 -53t38 -45v-13h-81q-12 11 -32 27.5t-41 33.5t-36 29q-15 -12 -36 -29t-40.5 -33.5t-31.5 -27.5h-81z" />
    <glyph glyph-name="scircumflex" unicode="&#x15d;" horiz-adv-x="496" 
d="M238 -10q-79 0 -125 15.5t-66 42.5t-20 60q0 30 15 47t38 24t47 7q0 -66 31.5 -98t80.5 -32t71 18t22 43q0 31 -28 50t-94 39q-86 27 -130.5 65.5t-44.5 111.5q0 85 62 125.5t164 40.5q66 0 106 -14t58.5 -36t18.5 -45q0 -35 -25 -53t-81 -18q0 49 -25.5 76t-67.5 27
q-31 0 -53.5 -14t-22.5 -41q0 -20 11 -34.5t38.5 -27.5t78.5 -29q49 -16 87 -37t59 -53t21 -80q0 -82 -58 -131t-168 -49zM57 606v13q16 19 38.5 45t44 53t31.5 49h151q11 -22 32 -49t44 -53t38 -45v-13h-81q-12 11 -32 27.5t-41 33.5t-36 29q-15 -12 -36 -29t-40.5 -33.5
t-31.5 -27.5h-81z" />
    <glyph glyph-name="Scedilla" unicode="&#x15e;" horiz-adv-x="596" 
d="M275 -10q-75 0 -123 13.5t-75.5 34.5t-38.5 45.5t-11 45.5q0 40 18 62.5t46.5 32t59.5 9.5q0 -63 20.5 -102.5t53 -58t69.5 -18.5q56 0 86.5 30.5t30.5 70.5q0 49 -45 79.5t-127 63.5q-73 30 -115 63.5t-59 73t-17 85.5q0 63 34 108.5t92 70.5t132 25q78 0 127 -17.5
t72.5 -45t23.5 -58.5q0 -37 -31.5 -62t-103.5 -25q0 31 -12 64t-36 56t-60 23q-39 0 -66 -20.5t-27 -63.5q0 -23 13 -45.5t50 -46.5t108 -53q72 -29 114.5 -61.5t60.5 -71t18 -86.5q0 -65 -34.5 -115t-97.5 -78t-150 -28zM263 -240q-16 0 -44.5 3t-46.5 8v65q38 -8 68 -8
q28 0 44.5 8t16.5 34q0 29 -21.5 37t-53.5 10l21 92h61l-10 -43q49 -4 80 -28t31 -64q0 -53 -41 -83.5t-105 -30.5z" />
    <glyph glyph-name="scedilla" unicode="&#x15f;" horiz-adv-x="496" 
d="M238 -10q-79 0 -125 15.5t-66 42.5t-20 60q0 30 15 47t38 24t47 7q0 -66 31.5 -98t80.5 -32t71 18t22 43q0 31 -28 50t-94 39q-86 27 -130.5 65.5t-44.5 111.5q0 85 62 125.5t164 40.5q66 0 106 -14t58.5 -36t18.5 -45q0 -35 -25 -53t-81 -18q0 49 -25.5 76t-67.5 27
q-31 0 -53.5 -14t-22.5 -41q0 -20 11 -34.5t38.5 -27.5t78.5 -29q49 -16 87 -37t59 -53t21 -80q0 -82 -58 -131t-168 -49zM218 -240q-16 0 -44.5 3t-46.5 8v65q38 -8 68 -8q28 0 44.5 8t16.5 34q0 29 -21.5 37t-53.5 10l21 92h61l-10 -43q49 -4 80 -28t31 -64
q0 -53 -41 -83.5t-105 -30.5z" />
    <glyph glyph-name="Scaron" unicode="&#x160;" horiz-adv-x="596" 
d="M275 -10q-75 0 -123 13.5t-75.5 34.5t-38.5 45.5t-11 45.5q0 40 18 62.5t46.5 32t59.5 9.5q0 -63 20.5 -102.5t53 -58t69.5 -18.5q56 0 86.5 30.5t30.5 70.5q0 49 -45 79.5t-127 63.5q-73 30 -115 63.5t-59 73t-17 85.5q0 63 34 108.5t92 70.5t132 25q78 0 127 -17.5
t72.5 -45t23.5 -58.5q0 -37 -31.5 -62t-103.5 -25q0 31 -12 64t-36 56t-60 23q-39 0 -66 -20.5t-27 -63.5q0 -23 13 -45.5t50 -46.5t108 -53q72 -29 114.5 -61.5t60.5 -71t18 -86.5q0 -65 -34.5 -115t-97.5 -78t-150 -28zM231 771q-10 22 -31.5 49t-44 53t-38.5 45v13h81
q12 -10 31.5 -26.5t40.5 -33.5t36 -29q15 12 36 29t41 33.5t32 26.5h81v-13q-15 -19 -38 -45t-44 -53t-32 -49h-151z" />
    <glyph glyph-name="scaron" unicode="&#x161;" horiz-adv-x="496" 
d="M238 -10q-79 0 -125 15.5t-66 42.5t-20 60q0 30 15 47t38 24t47 7q0 -66 31.5 -98t80.5 -32t71 18t22 43q0 31 -28 50t-94 39q-86 27 -130.5 65.5t-44.5 111.5q0 85 62 125.5t164 40.5q66 0 106 -14t58.5 -36t18.5 -45q0 -35 -25 -53t-81 -18q0 49 -25.5 76t-67.5 27
q-31 0 -53.5 -14t-22.5 -41q0 -20 11 -34.5t38.5 -27.5t78.5 -29q49 -16 87 -37t59 -53t21 -80q0 -82 -58 -131t-168 -49zM173 606q-10 22 -31.5 49t-44 53t-38.5 45v13h81q12 -10 31.5 -26.5t40.5 -33.5t36 -29q15 12 36 29t41 33.5t32 26.5h81v-13q-15 -19 -38 -45
t-44 -53t-32 -49h-151z" />
    <glyph glyph-name="uni0162" unicode="&#x162;" horiz-adv-x="669" 
d="M150 0v57h37q25 0 41 11t16 54v527h-74q-45 0 -62 -17t-21 -50l-8 -70h-73l5 202h647l5 -202h-73l-7 70q-4 33 -21 50t-62 17h-74v-529q0 -41 16 -52t41 -11h37v-57h-370zM318 -240q-16 0 -44.5 3t-46.5 8v65q38 -8 68 -8q28 0 44.5 8t16.5 34q0 29 -21.5 37t-53.5 10
l21 92h61l-10 -43q49 -4 80 -28t31 -64q0 -53 -41 -83.5t-105 -30.5z" />
    <glyph glyph-name="uni0163" unicode="&#x163;" horiz-adv-x="426" 
d="M254 -10q-73 0 -115.5 35.5t-42.5 123.5v315h-74v55q38 0 64.5 14.5t41.5 31.5q14 15 26 39.5t20 56.5h98v-125h126v-72h-126v-299q0 -43 13 -62.5t49 -19.5q20 0 38.5 2.5t34.5 6.5v-73q-17 -8 -56 -18.5t-97 -10.5zM230 -240q-16 0 -44.5 3t-46.5 8v65q38 -8 68 -8
q28 0 44.5 8t16.5 34q0 29 -21.5 37t-53.5 10l21 92h61l-10 -43q49 -4 80 -28t31 -64q0 -53 -41 -83.5t-105 -30.5z" />
    <glyph glyph-name="Tcaron" unicode="&#x164;" horiz-adv-x="669" 
d="M150 0v57h37q25 0 41 11t16 54v527h-74q-45 0 -62 -17t-21 -50l-8 -70h-73l5 202h647l5 -202h-73l-7 70q-4 33 -21 50t-62 17h-74v-529q0 -41 16 -52t41 -11h37v-57h-370zM259 771q-10 22 -31.5 49t-44 53t-38.5 45v13h81q12 -10 31.5 -26.5t40.5 -33.5t36 -29
q15 12 36 29t41 33.5t32 26.5h81v-13q-15 -19 -38 -45t-44 -53t-32 -49h-151z" />
    <glyph glyph-name="tcaron" unicode="&#x165;" horiz-adv-x="426" 
d="M256 -10q-73 0 -115.5 35.5t-42.5 123.5v315h-74v55q38 0 64.5 14.5t41.5 31.5q14 15 26 39.5t20 56.5h98v-125h126v-72h-126v-299q0 -43 13 -62.5t49 -19.5q20 0 38.5 2.5t34.5 6.5v-73q-17 -8 -56 -18.5t-97 -10.5zM328 600v13q6 19 15 45.5t16.5 53.5t11.5 48h127v-10
q-9 -21 -26 -47.5t-36.5 -53.5t-37.5 -49h-70z" />
    <glyph glyph-name="Tbar" unicode="&#x166;" horiz-adv-x="669" 
d="M156 0v57h49q17 0 28 11t11 54v208h-135v54h135v265h-74q-45 0 -62 -17t-21 -50l-8 -70h-73l5 202h647l5 -202h-73l-7 70q-4 33 -21 50t-62 17h-74v-265h134v-54h-134v-210q0 -41 11 -52t28 -11h49v-57h-358z" />
    <glyph glyph-name="tbar" unicode="&#x167;" horiz-adv-x="426" 
d="M254 -10q-73 0 -115.5 35.5t-42.5 123.5v128h-69v55h69v132h-74v55q38 0 64.5 14.5t41.5 31.5q14 15 26 39.5t20 56.5h98v-125h126v-72h-126v-132h108v-55h-108v-112q0 -43 13 -62.5t49 -19.5q20 0 38.5 2.5t34.5 6.5v-73q-17 -8 -56 -18.5t-97 -10.5z" />
    <glyph glyph-name="Utilde" unicode="&#x168;" horiz-adv-x="759" 
d="M392 -10q-85 0 -148.5 23t-98.5 73.5t-35 132.5v379q0 38 -17.5 48.5t-40.5 10.5h-35v57h366v-57h-34q-24 0 -41 -11t-17 -52v-384q0 -82 37.5 -113.5t104.5 -31.5q59 0 97.5 34.5t38.5 114.5v384q0 38 -16.5 48.5t-40.5 10.5h-35v57h266v-57h-36q-24 0 -41 -11t-17 -52
v-382q0 -67 -26 -117t-82.5 -77.5t-148.5 -27.5zM485 771q-27 0 -49 9.5t-40.5 22t-35 22t-32.5 9.5q-20 0 -33 -16.5t-16 -36.5h-73q2 44 20.5 80.5t48 58t65.5 21.5q27 0 48.5 -9.5t40 -22t35 -22t32.5 -9.5q19 0 32.5 16.5t16.5 36.5h73q-2 -44 -20.5 -80.5t-48 -58
t-64.5 -21.5z" />
    <glyph glyph-name="utilde" unicode="&#x169;" horiz-adv-x="680" 
d="M257 -10q-85 0 -125.5 49t-40.5 150v218q0 43 -11.5 57.5t-49.5 14.5h-3v57h240v-310q0 -64 13.5 -103.5t50.5 -39.5q41 0 59 40t18 108v187q0 42 -17.5 51.5t-44.5 9.5h-4v57h241v-417q0 -43 16.5 -52.5t44.5 -9.5h10v-57h-215l-26 67h-5q-26 -42 -63 -59.5t-88 -17.5z
M409 606q-27 0 -49 9.5t-40.5 22t-35 22t-32.5 9.5q-20 0 -33 -16.5t-16 -36.5h-73q2 44 20.5 80.5t48 58t65.5 21.5q27 0 48.5 -9.5t40 -22t35 -22t32.5 -9.5q19 0 32.5 16.5t16.5 36.5h73q-2 -44 -20.5 -80.5t-48 -58t-64.5 -21.5z" />
    <glyph glyph-name="Umacron" unicode="&#x16a;" horiz-adv-x="759" 
d="M392 -10q-85 0 -148.5 23t-98.5 73.5t-35 132.5v379q0 38 -17.5 48.5t-40.5 10.5h-35v57h366v-57h-34q-24 0 -41 -11t-17 -52v-384q0 -82 37.5 -113.5t104.5 -31.5q59 0 97.5 34.5t38.5 114.5v384q0 38 -16.5 48.5t-40.5 10.5h-35v57h266v-57h-36q-24 0 -41 -11t-17 -52
v-382q0 -67 -26 -117t-82.5 -77.5t-148.5 -27.5zM267 767v87h290v-87h-290z" />
    <glyph glyph-name="umacron" unicode="&#x16b;" horiz-adv-x="680" 
d="M257 -10q-85 0 -125.5 49t-40.5 150v218q0 43 -11.5 57.5t-49.5 14.5h-3v57h240v-310q0 -64 13.5 -103.5t50.5 -39.5q41 0 59 40t18 108v187q0 42 -17.5 51.5t-44.5 9.5h-4v57h241v-417q0 -43 16.5 -52.5t44.5 -9.5h10v-57h-215l-26 67h-5q-26 -42 -63 -59.5t-88 -17.5z
M183 602v87h290v-87h-290z" />
    <glyph glyph-name="Ubreve" unicode="&#x16c;" horiz-adv-x="759" 
d="M392 -10q-85 0 -148.5 23t-98.5 73.5t-35 132.5v379q0 38 -17.5 48.5t-40.5 10.5h-35v57h366v-57h-34q-24 0 -41 -11t-17 -52v-384q0 -82 37.5 -113.5t104.5 -31.5q59 0 97.5 34.5t38.5 114.5v384q0 38 -16.5 48.5t-40.5 10.5h-35v57h266v-57h-36q-24 0 -41 -11t-17 -52
v-382q0 -67 -26 -117t-82.5 -77.5t-148.5 -27.5zM403 771q-54 0 -91.5 25.5t-56.5 64t-20 75.5h74q8 -36 32.5 -52t61.5 -16t61.5 16t32.5 52h74q-1 -37 -20 -75.5t-56.5 -64t-91.5 -25.5z" />
    <glyph glyph-name="ubreve" unicode="&#x16d;" horiz-adv-x="680" 
d="M257 -10q-85 0 -125.5 49t-40.5 150v218q0 43 -11.5 57.5t-49.5 14.5h-3v57h240v-310q0 -64 13.5 -103.5t50.5 -39.5q41 0 59 40t18 108v187q0 42 -17.5 51.5t-44.5 9.5h-4v57h241v-417q0 -43 16.5 -52.5t44.5 -9.5h10v-57h-215l-26 67h-5q-26 -42 -63 -59.5t-88 -17.5z
M334 606q-54 0 -91.5 25.5t-56.5 64t-20 75.5h74q8 -36 32.5 -52t61.5 -16t61.5 16t32.5 52h74q-1 -37 -20 -75.5t-56.5 -64t-91.5 -25.5z" />
    <glyph glyph-name="Uring" unicode="&#x16e;" horiz-adv-x="759" 
d="M392 -10q-85 0 -148.5 23t-98.5 73.5t-35 132.5v379q0 38 -17.5 48.5t-40.5 10.5h-35v57h366v-57h-34q-24 0 -41 -11t-17 -52v-384q0 -82 37.5 -113.5t104.5 -31.5q59 0 97.5 34.5t38.5 114.5v384q0 38 -16.5 48.5t-40.5 10.5h-35v57h266v-57h-36q-24 0 -41 -11t-17 -52
v-382q0 -67 -26 -117t-82.5 -77.5t-148.5 -27.5zM385 761q-50 0 -85 28t-35 81t35 81t85 28t85 -28t35 -81t-35 -81t-85 -28zM385 818q22 0 39 12t17 40t-17 40t-39 12t-39 -12t-17 -40t17 -40t39 -12z" />
    <glyph glyph-name="uring" unicode="&#x16f;" horiz-adv-x="680" 
d="M257 -10q-85 0 -125.5 49t-40.5 150v218q0 43 -11.5 57.5t-49.5 14.5h-3v57h240v-310q0 -64 13.5 -103.5t50.5 -39.5q41 0 59 40t18 108v187q0 42 -17.5 51.5t-44.5 9.5h-4v57h241v-417q0 -43 16.5 -52.5t44.5 -9.5h10v-57h-215l-26 67h-5q-26 -42 -63 -59.5t-88 -17.5z
M325 596q-50 0 -85 28t-35 81t35 81t85 28t85 -28t35 -81t-35 -81t-85 -28zM325 653q22 0 39 12t17 40t-17 40t-39 12t-39 -12t-17 -40t17 -40t39 -12z" />
    <glyph glyph-name="Uhungarumlaut" unicode="&#x170;" horiz-adv-x="759" 
d="M392 -10q-85 0 -148.5 23t-98.5 73.5t-35 132.5v379q0 38 -17.5 48.5t-40.5 10.5h-35v57h366v-57h-34q-24 0 -41 -11t-17 -52v-384q0 -82 37.5 -113.5t104.5 -31.5q59 0 97.5 34.5t38.5 114.5v384q0 38 -16.5 48.5t-40.5 10.5h-35v57h266v-57h-36q-24 0 -41 -11t-17 -52
v-382q0 -67 -26 -117t-82.5 -77.5t-148.5 -27.5zM445 771v13q21 32 45 72.5t40 74.5h135v-10q-10 -18 -36 -46.5t-55 -57t-52 -46.5h-77zM251 771v13q21 32 45 72.5t40 74.5h135v-10q-10 -18 -36 -46.5t-55 -57t-52 -46.5h-77z" />
    <glyph glyph-name="uhungarumlaut" unicode="&#x171;" horiz-adv-x="680" 
d="M257 -10q-85 0 -125.5 49t-40.5 150v218q0 43 -11.5 57.5t-49.5 14.5h-3v57h240v-310q0 -64 13.5 -103.5t50.5 -39.5q41 0 59 40t18 108v187q0 42 -17.5 51.5t-44.5 9.5h-4v57h241v-417q0 -43 16.5 -52.5t44.5 -9.5h10v-57h-215l-26 67h-5q-26 -42 -63 -59.5t-88 -17.5z
M362 606v13q21 32 45 72.5t40 74.5h135v-10q-10 -18 -36 -46.5t-55 -57t-52 -46.5h-77zM168 606v13q21 32 45 72.5t40 74.5h135v-10q-10 -18 -36 -46.5t-55 -57t-52 -46.5h-77z" />
    <glyph glyph-name="Uogonek" unicode="&#x172;" horiz-adv-x="770" 
d="M403 -10q-85 0 -148.5 23t-98.5 73.5t-35 132.5v379q0 38 -17.5 48.5t-40.5 10.5h-35v57h366v-57h-34q-24 0 -41 -11t-17 -52v-384q0 -82 37.5 -113.5t104.5 -31.5q59 0 97.5 34.5t38.5 114.5v384q0 38 -16.5 48.5t-40.5 10.5h-35v57h266v-57h-36q-24 0 -41 -11t-17 -52
v-382q0 -67 -26 -117t-82.5 -77.5t-148.5 -27.5zM445 -240q-77 0 -115.5 26.5t-38.5 83.5q0 31 17 58t43.5 46t57.5 26h85q-21 -6 -42.5 -21.5t-36 -39t-14.5 -54.5q0 -25 19.5 -37t49.5 -12q14 0 29.5 2t33.5 6v-68q-16 -8 -44 -12t-44 -4z" />
    <glyph glyph-name="uogonek" unicode="&#x173;" horiz-adv-x="680" 
d="M257 -10q-85 0 -125.5 49t-40.5 150v218q0 43 -11.5 57.5t-49.5 14.5h-3v57h240v-310q0 -64 13.5 -103.5t50.5 -39.5q41 0 59 40t18 108v187q0 42 -17.5 51.5t-44.5 9.5h-4v57h241v-417q0 -43 16.5 -52.5t44.5 -9.5h10v-57h-215l-26 67h-5q-26 -42 -63 -59.5t-88 -17.5z
M475 -240q-76 0 -115 26.5t-39 83.5q0 31 17 58t44 46t57 26h85q-21 -6 -42.5 -21.5t-36 -39t-14.5 -54.5q0 -25 19.5 -37t49.5 -12q13 0 29 2t34 6v-68q-16 -8 -44 -12t-44 -4z" />
    <glyph glyph-name="Wcircumflex" unicode="&#x174;" horiz-adv-x="1075" 
d="M264 0l-183 604q-10 32 -26 42.5t-45 10.5h-13v57h357v-57h-23q-60 0 -60 -48q0 -8 3.5 -27.5t7.5 -33.5l61 -218q10 -34 19.5 -74t13.5 -70q7 30 14.5 58t18.5 61l131 402h89l123 -361q16 -47 28 -90.5t18 -72.5q6 34 18 85t23 95l44 179q5 16 9 36.5t4 31.5
q0 26 -14.5 36.5t-47.5 10.5h-23v57h268v-57h-19q-29 0 -45.5 -14.5t-30.5 -63.5l-155 -579h-131l-154 455l-144 -455h-136zM384 771v13q16 19 38.5 45t44 53t31.5 49h151q11 -22 32 -49t44 -53t38 -45v-13h-81q-12 11 -32 27.5t-41 33.5t-36 29q-15 -12 -36 -29
t-40.5 -33.5t-31.5 -27.5h-81z" />
    <glyph glyph-name="wcircumflex" unicode="&#x175;" horiz-adv-x="854" 
d="M196 0l-127 426q-11 32 -26 42.5t-44 10.5h-4v57h314v-57h-13q-30 0 -45 -8.5t-15 -33.5q0 -8 2.5 -20.5t5.5 -23.5l30 -114q9 -36 17 -70.5t11 -57.5h4q4 24 11 49t17 52l102 278h65l96 -295q9 -25 13.5 -47t6.5 -38h3q4 24 9 43t14 47l41 140q4 13 6.5 27.5t2.5 22.5
q0 49 -66 49h-7v57h235v-57h-13q-29 0 -44 -15t-31 -63l-129 -401h-119l-98 297l-104 -297h-121zM274 606v13q16 19 38.5 45t44 53t31.5 49h151q11 -22 32 -49t44 -53t38 -45v-13h-81q-12 11 -32 27.5t-41 33.5t-36 29q-15 -12 -36 -29t-40.5 -33.5t-31.5 -27.5h-81z" />
    <glyph glyph-name="Ycircumflex" unicode="&#x176;" horiz-adv-x="720" 
d="M166 0v57h41q29 0 46.5 11t17.5 54v118l-185 364q-15 29 -27.5 41t-43.5 12h-13v57h359v-57h-10q-31 0 -48.5 -13.5t-17.5 -37.5q0 -25 15 -55l74 -147q14 -29 23 -51t17 -45q10 27 23.5 57.5t29.5 63.5l56 116q11 24 13.5 39t2.5 21q0 28 -16.5 40t-51.5 12h-21v57h269
v-57h-15q-27 0 -41.5 -15.5t-37.5 -62.5l-171 -340v-118q0 -42 16.5 -53t39.5 -11h49v-57h-393zM177 771v13q16 19 38.5 45t44 53t31.5 49h151q11 -22 32 -49t44 -53t38 -45v-13h-81q-12 11 -32 27.5t-41 33.5t-36 29q-15 -12 -36 -29t-40.5 -33.5t-31.5 -27.5h-81z" />
    <glyph glyph-name="ycircumflex" unicode="&#x177;" horiz-adv-x="584" 
d="M23 -230v63q70 0 112.5 20t66.5 55.5t40 82.5l-178 442q-11 28 -25 35t-36 8h-5v60h306v-57h-4q-59 0 -59 -35q0 -9 3.5 -20.5t6.5 -20.5l60 -169q12 -33 18 -58.5t8 -44.5q2 22 8 42l9 30l63 188q3 9 7 25.5t4 25.5q0 20 -15.5 28t-46.5 9h-4v57h222v-57h-4
q-27 -1 -44.5 -17.5t-31.5 -53.5l-151 -406q-25 -69 -48.5 -114t-55 -71t-80.5 -36.5t-126 -10.5h-20zM106 606v13q16 19 38.5 45t44 53t31.5 49h151q11 -22 32 -49t44 -53t38 -45v-13h-81q-12 11 -32 27.5t-41 33.5t-36 29q-15 -12 -36 -29t-40.5 -33.5t-31.5 -27.5h-81z
" />
    <glyph glyph-name="Ydieresis" unicode="&#x178;" horiz-adv-x="720" 
d="M166 0v57h41q29 0 46.5 11t17.5 54v118l-185 364q-15 29 -27.5 41t-43.5 12h-13v57h359v-57h-10q-31 0 -48.5 -13.5t-17.5 -37.5q0 -25 15 -55l74 -147q14 -29 23 -51t17 -45q10 27 23.5 57.5t29.5 63.5l56 116q11 24 13.5 39t2.5 21q0 28 -16.5 40t-51.5 12h-21v57h269
v-57h-15q-27 0 -41.5 -15.5t-37.5 -62.5l-171 -340v-118q0 -42 16.5 -53t39.5 -11h49v-57h-393zM479 784q-27 0 -47.5 15.5t-20.5 53.5t20.5 53.5t47.5 15.5q25 0 46 -15.5t21 -53.5t-21 -53.5t-46 -15.5zM267 784q-26 0 -46.5 15.5t-20.5 53.5t20.5 53.5t46.5 15.5
t47 -15.5t21 -53.5t-21 -53.5t-47 -15.5z" />
    <glyph glyph-name="Zacute" unicode="&#x179;" horiz-adv-x="696" 
d="M44 0v54l375 595h-189q-48 0 -63 -25.5t-19 -69.5l-5 -59h-80l5 219h558v-55l-376 -594h202q46 0 69.5 16t33 40.5t11.5 50.5l5 47h80l-5 -219h-602zM270 771v13q14 19 34 45t38 53t29 49h177v-10q-9 -13 -31.5 -33t-51.5 -42t-59.5 -41.5t-55.5 -33.5h-80z" />
    <glyph glyph-name="zacute" unicode="&#x17a;" horiz-adv-x="536" 
d="M8 0v42l297 422h-123q-28 0 -43 -12.5t-25 -53.5l-8 -32h-67l13 170h451v-44l-297 -420h159q36 0 53 16.5t26 64.5l7 36h66l-5 -189h-504zM201 606v13q14 19 34 45t38 53t29 49h177v-10q-9 -13 -31.5 -33t-51.5 -42t-59.5 -41.5t-55.5 -33.5h-80z" />
    <glyph glyph-name="Zdotaccent" unicode="&#x17b;" horiz-adv-x="696" 
d="M44 0v54l375 595h-189q-48 0 -63 -25.5t-19 -69.5l-5 -59h-80l5 219h558v-55l-376 -594h202q46 0 69.5 16t33 40.5t11.5 50.5l5 47h80l-5 -219h-602zM365 787q-40 0 -68 19t-28 57q0 40 28 58t68 18t69 -18t29 -58q0 -38 -29 -57t-69 -19z" />
    <glyph glyph-name="zdotaccent" unicode="&#x17c;" horiz-adv-x="536" 
d="M8 0v42l297 422h-123q-28 0 -43 -12.5t-25 -53.5l-8 -32h-67l13 170h451v-44l-297 -420h159q36 0 53 16.5t26 64.5l7 36h66l-5 -189h-504zM291 622q-40 0 -68 19t-28 57q0 40 28 58t68 18t69 -18t29 -58q0 -38 -29 -57t-69 -19z" />
    <glyph glyph-name="Zcaron" unicode="&#x17d;" horiz-adv-x="696" 
d="M44 0v54l375 595h-189q-48 0 -63 -25.5t-19 -69.5l-5 -59h-80l5 219h558v-55l-376 -594h202q46 0 69.5 16t33 40.5t11.5 50.5l5 47h80l-5 -219h-602zM283 771q-10 22 -31.5 49t-44 53t-38.5 45v13h81q12 -10 31.5 -26.5t40.5 -33.5t36 -29q15 12 36 29t41 33.5t32 26.5
h81v-13q-15 -19 -38 -45t-44 -53t-32 -49h-151z" />
    <glyph glyph-name="zcaron" unicode="&#x17e;" horiz-adv-x="536" 
d="M8 0v42l297 422h-123q-28 0 -43 -12.5t-25 -53.5l-8 -32h-67l13 170h451v-44l-297 -420h159q36 0 53 16.5t26 64.5l7 36h66l-5 -189h-504zM207 606q-10 22 -31.5 49t-44 53t-38.5 45v13h81q12 -10 31.5 -26.5t40.5 -33.5t36 -29q15 12 36 29t41 33.5t32 26.5h81v-13
q-15 -19 -38 -45t-44 -53t-32 -49h-151z" />
    <glyph glyph-name="longs" unicode="&#x17f;" horiz-adv-x="407" 
d="M5 0v57h26q25 0 45.5 13.5t20.5 54.5v443q0 94 52.5 147t167.5 53q70 0 107.5 -11t51.5 -29t14 -39q0 -63 -126 -63q0 30 -9.5 55.5t-36.5 25.5q-25 0 -35.5 -26.5t-10.5 -93.5v-462q0 -41 21 -54.5t46 -13.5h51v-57h-385z" />
    <glyph glyph-name="uni0180" unicode="&#x180;" horiz-adv-x="663" 
d="M414 -10q-58 0 -95 24.5t-59 63.5h-9l-33 -78h-202v57h7q17 0 34.5 5t28.5 19.5t11 45.5v448h-80v55h80v9q0 40 -22.5 52t-54.5 12h-4v57h256v-130h149v-55h-149v-19q0 -18 -1.5 -40.5t-3.5 -41t-3 -27.5h7q21 31 56.5 51.5t92.5 20.5q97 0 148 -64t51 -199
q0 -136 -52.5 -201t-152.5 -65zM362 69q43 0 62 49.5t19 138.5q0 90 -19.5 137t-62.5 47q-53 0 -71 -46.5t-18 -138.5q0 -88 18.5 -137.5t71.5 -49.5z" />
    <glyph glyph-name="uni0181" unicode="&#x181;" horiz-adv-x="855" 
d="M181 0v57h47q21 0 33 13.5t12 46.5v444q0 53 -14 74.5t-56 21.5q-36 0 -59 -20.5t-23 -75.5q0 -24 7.5 -41.5t21.5 -34.5q-12 -10 -26.5 -16t-34.5 -6q-41 0 -60.5 28.5t-19.5 68.5q0 69 48.5 111.5t160.5 42.5h274q148 0 224.5 -42t76.5 -136q0 -68 -40.5 -103.5
t-99.5 -51.5v-5q75 -16 122 -59.5t47 -119.5q0 -197 -300 -197h-341zM454 406h32q62 0 89.5 29t27.5 96q0 66 -29 92t-90 26h-30v-243zM454 65h58q59 0 88 30t29 105q0 72 -26.5 106.5t-88.5 34.5h-60v-276z" />
    <glyph glyph-name="uni0182" unicode="&#x182;" horiz-adv-x="670" 
d="M30 0v57h42q28 0 39 15.5t11 50.5v471q0 39 -12.5 51t-33.5 12h-46v57h558l5 -202h-74l-7 70q-4 33 -21 50t-62 17h-125v-244h73q95 0 153 -24.5t84 -69.5t26 -105t-29 -106.5t-91 -73t-161 -26.5h-329zM303 63h41q52 0 77 33.5t25 107.5q0 76 -26 107t-82 31h-35v-279z
" />
    <glyph glyph-name="uni0183" unicode="&#x183;" horiz-adv-x="663" 
d="M414 -10q-58 0 -95 24.5t-59 63.5h-9l-33 -78h-202v57h7q17 0 34.5 5t28.5 19.5t11 45.5v509q0 42 -23.5 54.5t-54.5 12.5h-3v57h547v-164h-65l-7 28q-11 38 -31.5 53.5t-63.5 15.5h-124v-99q0 -20 -1.5 -44t-3.5 -44t-3 -29h7q21 31 56.5 51.5t92.5 20.5q97 0 148 -66.5
t51 -211.5q0 -146 -52.5 -213.5t-152.5 -67.5zM362 69q43 0 62 52.5t19 150.5q0 100 -19.5 149.5t-62.5 49.5q-53 0 -71 -49.5t-18 -150.5q0 -97 18.5 -149.5t71.5 -52.5z" />
    <glyph glyph-name="uni0184" unicode="&#x184;" horiz-adv-x="696" 
d="M367 -10q-91 0 -146.5 27t-80.5 77t-25 120v384q0 37 -14.5 48t-36.5 11h-41v57h366v-57h-41q-25 0 -38.5 -12.5t-13.5 -52.5v-186h74q88 0 153 -20t100.5 -64t35.5 -116q0 -216 -292 -216zM380 47q44 0 64.5 35.5t20.5 117.5q0 76 -31 108t-100 32h-39v-149
q0 -76 19.5 -110t65.5 -34z" />
    <glyph glyph-name="uni0185" unicode="&#x185;" horiz-adv-x="667" 
d="M358 -10q-136 0 -198.5 70.5t-62.5 208.5v367q0 42 -23.5 54.5t-54.5 12.5h-3v57h256v-166q0 -20 -1.5 -44.5t-3.5 -45t-3 -27.5h7q22 32 57 52t92 20q97 0 148 -66.5t51 -211.5q0 -131 -64 -206t-197 -75zM359 52q44 0 63.5 52t19.5 168q0 100 -19 149.5t-63 49.5
q-52 0 -70 -49.5t-18 -150.5q0 -118 22 -168.5t65 -50.5z" />
    <glyph glyph-name="uni0186" unicode="&#x186;" horiz-adv-x="690" 
d="M276 -10q-86 0 -139 19t-77.5 49t-24.5 63q0 41 31.5 66.5t105.5 25.5q0 -39 9.5 -74.5t34 -58t69.5 -22.5q90 0 126.5 78t36.5 220q0 113 -18 177.5t-54 91t-89 26.5q-63 0 -92 -37t-28 -112q-71 0 -96.5 25.5t-25.5 63.5q0 65 67 99t175 34q176 0 264 -95t88 -268
q0 -108 -41 -191.5t-121.5 -131.5t-200.5 -48z" />
    <glyph glyph-name="uni0187" unicode="&#x187;" horiz-adv-x="690" 
d="M417 -10q-123 0 -203.5 46t-120 128.5t-39.5 193.5q0 108 40 190.5t119 129t196 46.5q59 0 95.5 -6.5t66.5 -19.5v46q0 35 13.5 66.5t41.5 51.5t72 20q42 0 67.5 -19.5t25.5 -49.5q0 -15 -4.5 -30t-12.5 -23q-14 8 -29 13t-32 5q-29 0 -47 -20t-18 -82v-51q0 -62 -35 -87
t-106 -25q0 33 -10 66t-33.5 55t-63.5 22q-88 0 -121.5 -78t-33.5 -220q0 -148 44.5 -215.5t155.5 -67.5q49 0 84.5 15.5t60.5 38.5t42 46q7 -7 11.5 -20t4.5 -25q0 -22 -11 -46.5t-37 -45.5t-70.5 -34.5t-112.5 -13.5z" />
    <glyph glyph-name="uni0188" unicode="&#x188;" horiz-adv-x="541" 
d="M300 -10q-76 0 -134 25.5t-90 86t-32 165.5q0 108 33.5 169.5t91 87.5t128.5 26q85 0 133 -20v75q0 65 31.5 110t98.5 45q43 0 65 -19.5t22 -49.5q0 -32 -17 -49q-12 7 -26 12t-31 5q-31 0 -49.5 -21t-18.5 -83v-111q0 -21 -10.5 -43t-41.5 -36.5t-93 -14.5q0 36 -5 66.5
t-17.5 49.5t-34.5 19q-25 0 -43.5 -19.5t-28.5 -66.5t-10 -131q0 -100 25 -149.5t81 -49.5q54 0 93.5 25t55.5 60q14 -8 20.5 -22t6.5 -27q0 -25 -20.5 -52t-65.5 -45t-117 -18z" />
    <glyph glyph-name="uni0189" unicode="&#x189;" horiz-adv-x="783" 
d="M24 0v57h48q20 0 32.5 13.5t12.5 45.5v225h-79v65h79v193q0 34 -14 46t-35 12h-44v57h340q170 0 267.5 -84.5t97.5 -254.5q0 -109 -41.5 -194t-122.5 -133t-201 -48h-340zM297 66h43q64 0 108 38t66 107.5t22 163.5q0 141 -49.5 207.5t-145.5 66.5h-44v-243h107v-65h-107
v-275z" />
    <glyph glyph-name="uni018A" unicode="&#x18a;" horiz-adv-x="939" 
d="M181 0v57h48q19 0 31.5 13.5t12.5 45.5v445q0 53 -14 74.5t-56 21.5q-36 0 -59 -20.5t-23 -75.5q0 -24 7.5 -41.5t21.5 -34.5q-12 -10 -26.5 -16t-34.5 -6q-41 0 -60.5 28.5t-19.5 68.5q0 69 48.5 111.5t160.5 42.5h302q171 0 268 -84.5t97 -254.5q0 -109 -41.5 -194
t-122.5 -133t-201 -48h-339zM454 66h43q64 0 107.5 38t66 107.5t22.5 163.5q0 141 -50 207.5t-145 66.5h-44v-583z" />
    <glyph glyph-name="uni018B" unicode="&#x18b;" horiz-adv-x="670" 
d="M300 0q-98 0 -159 25t-88.5 70t-27.5 106t26 106.5t83.5 71.5t152.5 26h74v244h-125q-45 0 -62 -17t-21 -50l-8 -70h-73l5 202h558v-57h-46q-21 0 -34 -12t-13 -51v-471q0 -35 11 -50.5t40 -15.5h42v-57h-335zM320 63h42v279h-33q-56 0 -83 -32t-27 -109
q0 -73 24.5 -105.5t76.5 -32.5z" />
    <glyph glyph-name="uni018C" unicode="&#x18c;" horiz-adv-x="663" 
d="M247 -10q-98 0 -151 66.5t-53 211.5t52 213t149 68q56 0 89.5 -20.5t55.5 -52.5h6q-1 8 -2 28t-2 44t-1 45v100h-123q-43 0 -64 -15.5t-31 -53.5l-7 -28h-65v164h465v-626q0 -46 20.5 -61.5t53.5 -15.5h8v-57h-207l-31 73h-8q-22 -37 -58.5 -60t-95.5 -23zM300 69
q52 0 71 50.5t19 150.5q0 99 -18.5 150t-70.5 51q-44 0 -62.5 -51t-18.5 -150t18 -150t62 -51z" />
    <glyph glyph-name="uni018D" unicode="&#x18d;" horiz-adv-x="628" 
d="M319 546q78 0 138 -26t93.5 -76t33.5 -122q0 -66 -25 -109.5t-70 -70.5t-106 -45q56 -41 87.5 -79.5t31.5 -97.5q0 -71 -60.5 -110t-157.5 -39q-76 0 -119 16t-60.5 39t-17.5 45q0 37 30 56t80 19q0 -50 20.5 -82.5t69.5 -32.5q38 0 57 20.5t19 48.5t-13 49.5t-42 42
t-77 49.5q-56 34 -98 69.5t-65.5 79t-23.5 102.5q0 124 75 189t200 65zM316 479q-42 0 -67 -40t-25 -116q0 -51 13 -84.5t36 -56.5t52 -45q19 10 37 29.5t30 56.5t12 99q0 76 -22.5 116.5t-65.5 40.5z" />
    <glyph glyph-name="uni018E" unicode="&#x18e;" horiz-adv-x="665" 
d="M639 0v57h-47q-21 0 -33.5 12.5t-12.5 41.5v487q0 38 14 48.5t33 10.5h46v57h-576l-3 -188h77l5 49q4 38 18 56t47 18h158v-244h-236v-64h236v-276h-188q-32 0 -47 20.5t-20 53.5l-8 49h-76l7 -188h606z" />
    <glyph glyph-name="uni018F" unicode="&#x18f;" horiz-adv-x="742" 
d="M357 -10q-108 0 -174.5 43.5t-97 124t-30.5 193.5v29h445q-4 98 -29.5 154.5t-70 80.5t-105.5 24t-113.5 -22.5t-95.5 -56.5q-4 7 -7.5 15.5t-3.5 22.5q0 27 21.5 50t58.5 40t83.5 27t95.5 10q171 0 262 -96t91 -267q0 -122 -42 -205t-116.5 -125t-171.5 -42zM366 59
q60 0 93.5 64t37.5 194h-251q2 -127 29 -192.5t91 -65.5z" />
    <glyph glyph-name="uni0190" unicode="&#x190;" horiz-adv-x="627" 
d="M332 -11q-81 0 -150.5 20.5t-111.5 66.5t-42 122q0 45 17.5 77t46.5 52.5t62.5 32t64.5 15.5q-44 7 -82 28t-61 56.5t-23 86.5q0 84 70 131t202 47q79 0 133.5 -19t82.5 -50t28 -65q0 -38 -19 -57t-52.5 -25.5t-74.5 -6.5q0 70 -21.5 114t-77.5 44q-52 0 -75 -32t-23 -88
q0 -74 36.5 -105.5t114.5 -31.5h92v-66h-95q-95 0 -135 -36.5t-40 -102.5q0 -45 20.5 -72t55.5 -39t76 -12q57 0 100.5 17.5t72 43t40.5 50.5q10 -7 17 -21t7 -32q0 -38 -27 -70.5t-84 -52.5t-145 -20z" />
    <glyph glyph-name="uni0191" unicode="&#x191;" horiz-adv-x="634" 
d="M-34 -240v57h9q68 0 105 50.5t37 163.5v571q0 32 -13.5 43.5t-32.5 11.5h-47v57h574l5 -188h-77l-5 50q-5 43 -23.5 58t-43.5 15h-157v-267h236v-63h-236v-257q0 -109 -31 -175.5t-97.5 -96.5t-172.5 -30h-30z" />
    <glyph glyph-name="florin" unicode="&#x192;" horiz-adv-x="559" 
d="M143 -240q-30 0 -58.5 4.5t-49.5 10.5v66q18 -6 33.5 -9.5t33.5 -3.5q22 0 37.5 14.5t23.5 51t8 100.5v380h-97v77h97v81q0 88 50 140t154 52q94 0 131.5 -29t37.5 -70q0 -29 -25 -50t-90 -21q-2 56 -11.5 82.5t-29.5 26.5q-42 0 -42 -115v-97h126v-77h-126v-380
q0 -90 -23.5 -141t-69 -72t-110.5 -21z" />
    <glyph glyph-name="uni0193" unicode="&#x193;" horiz-adv-x="791" 
d="M432 -10q-127 0 -211 46t-125.5 128.5t-41.5 193.5q0 108 43.5 190.5t129 129t210.5 46.5q61 0 106.5 -8t77.5 -21v43q0 59 31.5 101.5t96.5 42.5q42 0 67 -19.5t25 -50.5q0 -33 -17 -52q-14 8 -29 13t-31 5q-31 0 -48.5 -21t-17.5 -79v-52q0 -30 -12.5 -55t-43.5 -40.5
t-87 -15.5q0 67 -30 104t-91 37q-102 0 -145.5 -78t-43.5 -220t46 -219t156 -77q14 0 29 1.5t31 3.5v142q0 38 -15 55t-51 17h-17v57h330v-57h-11q-31 0 -43 -17.5t-12 -58.5v-158q-62 -29 -124 -43t-132 -14z" />
    <glyph glyph-name="uni0194" unicode="&#x194;" horiz-adv-x="707" 
d="M342 -240q-53 0 -83 20t-42.5 52.5t-12.5 69.5q0 27 7 58.5t24 75t49 105.5l-198 470q-12 26 -26 36t-33 10h-25v57h345v-57h-44q-17 0 -27 -7t-10 -21q0 -11 3 -23t7 -22l118 -289l127 282q5 13 9.5 28t4.5 24q0 28 -36 28h-51v57h259v-57h-27q-25 0 -37.5 -13.5
t-31.5 -56.5l-173 -384q34 -71 51.5 -122.5t23.5 -88t6 -63.5q0 -79 -46.5 -124t-130.5 -45zM329 -161q20 0 31.5 13.5t11.5 51.5q0 20 -7 51t-34 95q-25 -52 -34.5 -85t-9.5 -63q0 -63 42 -63z" />
    <glyph glyph-name="uni0195" unicode="&#x195;" horiz-adv-x="966" 
d="M646 -8q-128 0 -184 57t-56 187v86q0 64 -14.5 99.5t-49.5 35.5q-28 0 -43 -22.5t-20.5 -57.5t-5.5 -72v-183q0 -41 16.5 -53t49.5 -12h4v-57h-322v57h3q31 0 52 12t21 56v519q0 26 -12 38.5t-28 16.5t-27 4h-14v57h256v-150q0 -40 -2 -81t-4 -56h8q22 39 57 58t91 19
q79 0 119.5 -45.5t40.5 -146.5v-186q0 -55 14.5 -77t47.5 -22q30 0 48 21.5t18 83.5v230q0 46 -14 58.5t-48 12.5h-2v57h239v-304q0 -128 -58.5 -184t-180.5 -56z" />
    <glyph glyph-name="uni0196" unicode="&#x196;" horiz-adv-x="415" 
d="M280 -10q-84 0 -126 43.5t-42 152.5v408q0 41 -14 52t-33 11h-45v57h366v-57h-43q-19 0 -34 -11t-15 -52v-457q0 -75 52 -75q23 0 40 7v-62q-11 -5 -39 -11t-67 -6z" />
    <glyph glyph-name="uni0197" unicode="&#x197;" horiz-adv-x="415" 
d="M24 0v57h48q17 0 31 12t14 44v226h-104v66h104v193q0 34 -14 46.5t-31 12.5h-48v57h367v-57h-49q-20 0 -32 -12.5t-12 -46.5v-193h103v-66h-103v-225q0 -32 13 -44.5t31 -12.5h49v-57h-367z" />
    <glyph glyph-name="uni0198" unicode="&#x198;" horiz-adv-x="748" 
d="M24 0v57h43q20 0 35 11.5t15 43.5v491q0 31 -13.5 42.5t-33.5 11.5h-46v57h356v-57h-38q-20 0 -32 -12t-12 -44v-234l217 267q37 45 68 66t76 21q53 0 76.5 -24.5t23.5 -61.5t-21.5 -57t-42.5 -20q-5 26 -18 43.5t-41 17.5q-20 0 -39 -11.5t-43 -39.5l-108 -129l195 -297
q33 -49 56.5 -67t57.5 -18h5v-57h-77q-55 0 -92 6t-61.5 19.5t-43 35t-37.5 52.5l-119 200l-32 -24v-176q0 -32 14.5 -44t35.5 -12h32v-57h-356z" />
    <glyph glyph-name="uni0199" unicode="&#x199;" horiz-adv-x="657" 
d="M16 0v57h14q12 0 27.5 4.5t27.5 17.5t12 41v437q0 101 49 155.5t163 54.5q64 0 101 -12t52.5 -32t15.5 -43q0 -33 -26.5 -54t-95.5 -21q0 51 -9 78t-31 27t-33 -21t-11 -83v-229q0 -17 -1 -38t-2 -38t-2 -22l126 142q10 12 13 19.5t3 12.5q0 13 -14 21.5t-39 8.5v53h264
v-53q-34 0 -68 -19t-73 -63l-55 -64l133 -198q55 -82 96 -82h3v-57h-14q-59 0 -99.5 3.5t-68.5 14t-48.5 30t-40.5 51.5l-80 128l-33 -28v-77q0 -28 12 -42t27.5 -18.5t26.5 -4.5h16v-57h-338z" />
    <glyph glyph-name="uni019A" unicode="&#x19a;" horiz-adv-x="369" 
d="M19 0v57h11q25 0 46 13.5t21 54.5v232h-101v63h101v224q0 26 -12 38.5t-28 16.5t-27 4h-11v57h253v-340h101v-63h-101v-232q0 -41 21 -54.5t46 -13.5h11v-57h-331z" />
    <glyph glyph-name="uni019B" unicode="&#x19b;" horiz-adv-x="584" 
d="M-3 0l287 550q-4 14 -8 26t-9 22l-132 -77v73l101 58q-28 37 -68 37q-33 0 -52.5 -14.5t-31.5 -29.5q-8 10 -14.5 23.5t-6.5 33.5q0 34 28 51t67 17q94 0 142 -79l139 81v-73l-109 -64q9 -21 17.5 -45t15.5 -49l91 -311q22 -72 42.5 -109.5t41 -50.5t38.5 -13h5v-57h-25
q-42 0 -72 9.5t-52 41.5t-40 99q-25 89 -36.5 139t-13.5 67h-4q-3 -15 -12 -40.5t-20.5 -53.5t-22.5 -50l-103 -212h-183z" />
    <glyph glyph-name="uni019C" unicode="&#x19c;" horiz-adv-x="1199" 
d="M323 -10q-116 0 -163.5 60t-47.5 187v361q0 36 -14.5 47.5t-37.5 11.5h-39v57h345v-57h-28q-24 0 -37.5 -12t-13.5 -51v-368q0 -62 9.5 -96t29.5 -47.5t51 -13.5q61 0 90 50.5t29 129.5v349q0 36 -15 47.5t-38 11.5h-30v57h339v-57h-30q-24 0 -37.5 -12t-13.5 -51v-372
q0 -88 23 -120.5t68 -32.5q58 0 88 46t30 126v353q0 39 -14 51t-38 12h-29v57h345v-57h-38q-25 0 -38 -12t-13 -51v-472q0 -40 14 -52.5t34 -12.5h41v-57h-239l-18 71h-3q-32 -35 -72.5 -58t-105.5 -23q-78 0 -120.5 28t-65.5 74q-18 -26 -42 -49.5t-61 -38t-94 -14.5z" />
    <glyph glyph-name="uni019D" unicode="&#x19d;" horiz-adv-x="798" 
d="M10 -240v68h11q47 0 71.5 32t24.5 121v617q0 38 -15.5 48.5t-35.5 10.5h-42v57h238l351 -477v361q0 35 -14.5 47t-34.5 12h-43v57h265v-57h-43q-22 0 -36 -12.5t-14 -50.5v-594h-100l-396 541v-579q0 -84 -16.5 -127.5t-48.5 -59t-79 -15.5h-43z" />
    <glyph glyph-name="uni019E" unicode="&#x19e;" horiz-adv-x="676" 
d="M338 -240v57h8q34 0 49 13t15 58v434q0 64 -14.5 99.5t-52.5 35.5q-28 0 -44.5 -21t-23.5 -55.5t-7 -75.5v-183q0 -41 16.5 -53t49.5 -12h5v-57h-322v57h6q34 0 52 13.5t18 54.5v290q0 41 -17.5 52.5t-50.5 11.5h-3v57h229l13 -67h5q25 48 64.5 64.5t87.5 16.5
q77 0 120.5 -44.5t43.5 -147.5v-470q0 -44 14 -57.5t48 -13.5h4v-57h-313z" />
    <glyph glyph-name="uni019F" unicode="&#x19f;" horiz-adv-x="805" 
d="M403 -10q-117 0 -194.5 46t-116 129t-38.5 194t38.5 193t116 127.5t195.5 45.5q111 0 188.5 -45.5t118 -128t40.5 -193.5t-40.5 -193.5t-118.5 -128.5t-189 -46zM247 405h312q-5 119 -40.5 185t-114.5 66t-115.5 -66t-41.5 -185zM403 59q83 0 119 74t38 207h-314
q1 -133 37.5 -207t119.5 -74z" />
    <glyph glyph-name="Ohorn" unicode="&#x1a0;" horiz-adv-x="861" 
d="M403 -10q-117 0 -194.5 46t-116 129t-38.5 194t38.5 193t116 127.5t195.5 45.5q114 0 192 -47.5t117 -133.5q25 10 41.5 26t16.5 38q0 15 -8 24t-19 17.5t-19 21t-8 35.5q0 28 20 46t51 18q36 0 59.5 -26t23.5 -77q0 -58 -38 -102.5t-102 -67.5q20 -63 20 -139
q0 -111 -40.5 -193.5t-118.5 -128.5t-189 -46zM403 59q86 0 121.5 79t35.5 220t-35 219.5t-121 78.5t-122.5 -78.5t-36.5 -219.5t36.5 -220t121.5 -79z" />
    <glyph glyph-name="ohorn" unicode="&#x1a1;" horiz-adv-x="711" 
d="M312 -10q-124 0 -196 70t-72 211t69 210t202 69q90 0 153.5 -36t91.5 -108q22 8 38 23t16 37q0 15 -8.5 24t-19 17.5t-19 21t-8.5 35.5q0 28 20.5 46t51.5 18q35 0 59 -26t24 -77q0 -59 -39 -102.5t-100 -65.5q4 -19 6.5 -41t2.5 -45q0 -141 -69 -211t-203 -70zM314 57
q51 0 71.5 54.5t20.5 159.5t-21 158t-72 53t-71 -53t-20 -158t20.5 -159.5t71.5 -54.5z" />
    <glyph glyph-name="uni01A2" unicode="&#x1a2;" horiz-adv-x="1224" 
d="M825 -240v57h37q24 0 39.5 12.5t15.5 51.5v600q0 80 -22.5 125.5t-84.5 45.5q-67 0 -91.5 -52.5t-23.5 -141.5v-125q1 -165 -72.5 -254t-233.5 -89q-113 0 -187.5 46t-111 129t-36.5 194t36 193t109 127.5t184 45.5q101 0 161 -34t96 -81q28 51 78 82.5t130 31.5
q90 0 145.5 -24.5t81 -85t25.5 -168.5v-561q0 -41 12 -54.5t37 -13.5h43v-57h-367zM389 59q71 0 103 54.5t32 147.5v182q0 98 -32 155.5t-103 57.5q-79 0 -111.5 -78.5t-32.5 -219.5q0 -149 32.5 -224t111.5 -75z" />
    <glyph glyph-name="uni01A3" unicode="&#x1a3;" horiz-adv-x="981" 
d="M710 -240v564q0 72 -14 102.5t-55 30.5q-43 0 -58 -40t-14 -101v-45q1 -141 -66.5 -211t-197.5 -70q-121 0 -191 70t-70 211q0 279 265 279q79 0 137 -27.5t87 -88.5h3q17 54 58 85t114 31q92 0 135 -48t43 -164v-450q0 -46 14.5 -58.5t48.5 -12.5h3v-57h-242zM306 57
q47 0 66 54.5t19 159.5t-19.5 158t-65.5 53q-47 0 -65.5 -53t-18.5 -158t19 -159.5t65 -54.5z" />
    <glyph glyph-name="uni01A4" unicode="&#x1a4;" horiz-adv-x="808" 
d="M181 0v57h41q21 0 36 11t15 52v441q0 53 -14 74.5t-56 21.5q-36 0 -59 -20.5t-23 -75.5q0 -24 7.5 -41.5t21.5 -34.5q-12 -10 -26.5 -16t-34.5 -6q-41 0 -60.5 28.5t-19.5 68.5q0 69 48.5 111.5t160.5 42.5h292q145 -2 214 -56.5t69 -156.5q0 -63 -30.5 -115.5
t-98.5 -83.5t-182 -31h-28v-156q0 -38 15 -48t34 -10h65v-57h-387zM454 333h18q69 0 100 38t31 126q0 79 -27.5 116.5t-89.5 37.5h-32v-318z" />
    <glyph glyph-name="uni01A5" unicode="&#x1a5;" horiz-adv-x="658" 
d="M11 -240v57h13q26 0 46.5 12t20.5 53v675q0 101 49 155.5t164 54.5q64 0 100.5 -12t52 -32t15.5 -43q0 -33 -26.5 -54t-95.5 -21q0 51 -9 78t-31 27q-21 0 -32 -21t-11 -83v-30q0 -27 -1.5 -56.5t-5.5 -51.5h4q22 37 54 57.5t90 20.5q100 0 152.5 -68t52.5 -213
t-51 -211.5t-148 -66.5q-57 0 -91.5 19.5t-56.5 55.5h-6q1 -10 2.5 -30.5t3 -45.5t1.5 -46v-56q0 -42 20.5 -54.5t45.5 -12.5h24v-57h-346zM354 65q44 0 63.5 48.5t19.5 149.5q0 97 -19 150.5t-62 53.5q-52 0 -70.5 -53.5t-18.5 -148.5q0 -103 18 -151.5t69 -48.5z" />
    <glyph glyph-name="uni01A6" unicode="&#x1a6;" horiz-adv-x="728" 
d="M693 -120q-88 0 -142 17t-83 73l-109 216h-61v-71q0 -38 14 -48t36 -10h28v-57h-352v57h40q20 0 36.5 10t16.5 48v483q0 34 -11.5 46.5t-33.5 12.5h-48v57h367v-57h-47q-24 0 -35 -12t-11 -45v-14h70q155 0 221.5 -50t66.5 -139q0 -51 -18.5 -86.5t-50 -58t-68.5 -34.5
l114 -196q26 -45 47.5 -65t47.5 -20h6v-57h-41zM298 248h50q63 0 89.5 35.5t26.5 104.5q0 72 -29 103t-89 31h-48v-274z" />
    <glyph glyph-name="uni01A7" unicode="&#x1a7;" horiz-adv-x="603" 
d="M304 -10q-128 0 -195.5 58t-67.5 155q0 73 42.5 127.5t151.5 99.5q71 30 107.5 53.5t49.5 45.5t13 48q0 42 -25 62t-64 20q-42 0 -66 -21.5t-34.5 -54.5t-10.5 -69q-71 0 -103 25t-32 61q0 32 25 60t76.5 46t130.5 18q114 0 181 -49t67 -147q0 -44 -17.5 -85t-59.5 -77
t-115 -65q-88 -36 -129.5 -66.5t-41.5 -79.5q0 -43 30.5 -69t89.5 -26q80 0 136.5 30t88.5 98q16 -7 27.5 -22.5t11.5 -41.5q0 -32 -27.5 -63t-86.5 -51t-153 -20z" />
    <glyph glyph-name="uni01A8" unicode="&#x1a8;" horiz-adv-x="503" 
d="M255 -10q-108 0 -163 43t-55 122q0 65 44 105.5t109 66.5q58 23 89 38.5t42 31t11 36.5q0 30 -21.5 42.5t-51.5 12.5q-43 0 -70 -28t-27 -77q-55 0 -79.5 15.5t-24.5 51.5q0 22 20.5 45t63 38.5t108.5 15.5q102 0 159.5 -38.5t57.5 -122.5q0 -68 -45.5 -108.5
t-128.5 -67.5q-71 -24 -97 -46t-26 -54q0 -22 21 -40.5t68 -18.5q74 0 117.5 31t72.5 81q10 -8 17.5 -20.5t7.5 -34.5q0 -28 -21 -55.5t-69 -46t-129 -18.5z" />
    <glyph glyph-name="uni01A9" unicode="&#x1a9;" horiz-adv-x="647" 
d="M23 0v74l217 263l-195 329v48h518l6 -194h-68l-9 62q-4 33 -23.5 50t-64.5 17h-170l141 -247v-15l-217 -253h277q47 0 67.5 25t26.5 66l5 34h70l-13 -259h-568z" />
    <glyph glyph-name="uni01AA" unicode="&#x1aa;" horiz-adv-x="373" 
d="M323 -240q-77 0 -127 17t-74.5 61t-24.5 125v553q-25 -11 -58 -11q-53 0 -89.5 32.5t-36.5 92.5q0 66 45.5 100.5t120.5 34.5q71 0 113.5 -26t61 -84t18.5 -155v-580q0 -51 21 -75t55 -24q18 0 33 2t31 5v-52q-13 -6 -39 -11t-50 -5zM38 569q24 0 41.5 14.5t17.5 49.5
q0 34 -17.5 49.5t-41.5 15.5q-28 0 -43.5 -18.5t-15.5 -46.5q0 -30 16 -47t43 -17z" />
    <glyph glyph-name="uni01AB" unicode="&#x1ab;" horiz-adv-x="426" 
d="M254 -10q-73 0 -115.5 35.5t-42.5 123.5v315h-74v55q38 0 64.5 14.5t41.5 31.5q14 15 26 39.5t20 56.5h98v-125h126v-72h-126v-299q0 -43 13 -62.5t49 -19.5q20 0 38.5 2.5t34.5 6.5v-73q-17 -8 -56 -18.5t-97 -10.5zM287 -202q-36 0 -58.5 16.5t-22.5 46.5q0 12 4 25
t10 20q11 -8 24.5 -12t29.5 -4q63 0 63 76v91h71v-87q0 -90 -31 -131t-90 -41z" />
    <glyph glyph-name="uni01AC" unicode="&#x1ac;" horiz-adv-x="671" 
d="M152 0v57h37q25 0 41 11t16 54v527h-41q-23 0 -44 -6t-34.5 -24t-13.5 -55q0 -22 7.5 -40t23.5 -37q-13 -11 -26.5 -16.5t-33.5 -5.5q-38 0 -60 26t-22 74q0 67 51 108t158 41h449l5 -202h-73l-7 70q-4 33 -21 50t-62 17h-74v-529q0 -41 16 -52t41 -11h37v-57h-370z" />
    <glyph glyph-name="uni01AD" unicode="&#x1ad;" horiz-adv-x="426" 
d="M244 -10q-64 0 -106 35.5t-42 123.5v315h-74v55q48 0 78.5 21t47 53t23.5 64q22 110 132 110q54 0 75.5 -19.5t21.5 -44.5q0 -18 -10 -33.5t-25 -22.5q-10 18 -21.5 29t-29.5 11q-24 0 -33 -18.5t-9 -46.5v-86h126v-72h-126v-299q0 -43 13 -62.5t49 -19.5q20 0 38.5 2.5
t34.5 6.5v-73q-17 -8 -58 -18.5t-105 -10.5z" />
    <glyph glyph-name="uni01AE" unicode="&#x1ae;" horiz-adv-x="669" 
d="M471 -240q-75 0 -125.5 21t-76 69.5t-25.5 132.5v666h-74q-45 0 -62 -17t-21 -50l-8 -70h-73l5 202h647l5 -202h-73l-7 70q-4 33 -21 50t-62 17h-74v-720q0 -54 22 -76.5t58 -22.5q20 0 36 2t31 5v-60q-13 -7 -43 -12t-59 -5z" />
    <glyph glyph-name="Uhorn" unicode="&#x1af;" horiz-adv-x="856" 
d="M395 -10q-135 0 -210 53t-75 176v379q0 38 -11.5 48.5t-26.5 10.5h-55v57h366v-57h-54q-15 0 -26.5 -11t-11.5 -52v-381q0 -83 36 -115.5t103 -32.5q60 0 99.5 34.5t39.5 114.5v384q0 38 -11.5 48.5t-27.5 10.5h-53v57h172v-180q27 2 53 9.5t43 23t17 41.5q0 15 -8 24
t-19 17.5t-19 21t-8 35.5q0 28 20 46t51 18q36 0 60 -26t24 -77q0 -52 -29.5 -92t-78.5 -63.5t-106 -26.5v-269q0 -67 -26 -118t-81.5 -79.5t-146.5 -28.5z" />
    <glyph glyph-name="uhorn" unicode="&#x1b0;" horiz-adv-x="791" 
d="M257 -10q-85 0 -125.5 49t-40.5 150v218q0 43 -11.5 57.5t-49.5 14.5h-3v57h240v-310q0 -64 13.5 -103.5t50.5 -39.5q41 0 59 40t18 108v187q0 42 -17.5 51.5t-44.5 9.5h-4v57h241v-144q27 2 52.5 10t42 23.5t16.5 40.5q0 15 -8.5 24t-19 17.5t-19 21t-8.5 35.5
q0 28 20.5 46t51.5 18q36 0 59.5 -26t23.5 -77q0 -52 -29 -91.5t-77 -63.5t-105 -27v-224q0 -43 16.5 -52.5t44.5 -9.5h10v-57h-215l-26 67h-5q-26 -42 -63 -59.5t-88 -17.5z" />
    <glyph glyph-name="uni01B1" unicode="&#x1b1;" horiz-adv-x="830" 
d="M778 714l7 -210h-56l-8 33q-7 33 -30 47.5t-76 14.5h-104l3 -87q124 -20 187.5 -85.5t63.5 -167.5q0 -122 -86.5 -196t-265.5 -74q-112 0 -189.5 33.5t-118 94.5t-40.5 142q0 103 64 168.5t188 86.5l2 82h-102q-53 0 -76.5 -14.5t-31.5 -47.5l-8 -33h-56l7 213h334
l-7 -254q-64 -9 -90 -60.5t-26 -139.5q0 -96 34 -149t118 -53t119 53t35 149q0 88 -26 139.5t-89 60.5l-7 254h331z" />
    <glyph glyph-name="uni01B2" unicode="&#x1b2;" horiz-adv-x="772" 
d="M354 -10q-134 0 -189 65t-55 200v343q0 38 -17.5 48.5t-40.5 10.5h-35v57h366v-57h-34q-24 0 -41 -11t-17 -52v-416q0 -59 23 -86.5t67 -27.5q69 0 123.5 55t86 151.5t31.5 220.5q0 83 -30.5 115t-100.5 32q0 45 26 66t68 21q34 0 62 -17t45 -61.5t17 -125.5
q0 -109 -23.5 -205.5t-68.5 -169.5t-111 -114.5t-152 -41.5z" />
    <glyph glyph-name="uni01B3" unicode="&#x1b3;" horiz-adv-x="788" 
d="M166 0v57h41q29 0 46.5 11t17.5 54v118l-185 364q-15 29 -27.5 41t-43.5 12h-13v57h359v-57h-10q-31 0 -48.5 -13.5t-17.5 -37.5q0 -25 15 -55l74 -147q14 -29 23 -51t17 -45q10 27 24 58t30 66l54 115q24 51 45.5 90t52 61t79.5 22q44 0 68 -22.5t24 -56.5t-19.5 -51.5
t-41.5 -22.5q-1 19 -12.5 33.5t-33.5 14.5q-21 0 -36 -12.5t-30.5 -41.5t-40.5 -79l-123 -243v-118q0 -42 16.5 -53t39.5 -11h49v-57h-393z" />
    <glyph glyph-name="uni01B4" unicode="&#x1b4;" horiz-adv-x="651" 
d="M23 -240v62q70 0 112.5 21t66.5 59t40 89l-178 442q-10 24 -26.5 30t-34.5 7h-5v66h306v-57h-7q-56 0 -56 -35q0 -9 3.5 -20.5t6.5 -20.5l59 -169q12 -33 18.5 -58.5t8.5 -44.5q2 22 8 42l9 30l62 185q27 82 60.5 119.5t92.5 37.5q44 0 65.5 -22.5t21.5 -54.5
q0 -24 -10 -40t-20 -24q-10 15 -23.5 26.5t-37.5 11.5q-25 0 -44 -19t-35 -63l-133 -358q-27 -73 -50.5 -120t-54.5 -73.5t-79.5 -37.5t-125.5 -11h-20z" />
    <glyph glyph-name="uni01B5" unicode="&#x1b5;" horiz-adv-x="696" 
d="M44 0v54l180 285h-133v66h174l154 244h-189q-48 0 -63 -25.5t-19 -69.5l-5 -59h-80l5 219h558v-55l-161 -254h144v-66h-185l-174 -274h202q46 0 69.5 16t33 40.5t11.5 50.5l5 47h80l-5 -219h-602z" />
    <glyph glyph-name="uni01B6" unicode="&#x1b6;" horiz-adv-x="536" 
d="M8 0v42l142 202h-94v62h138l111 158h-123q-28 0 -43 -12.5t-25 -53.5l-8 -32h-67l13 170h451v-44l-132 -186h112v-62h-156l-121 -172h159q36 0 53 16.5t26 64.5l7 36h66l-5 -189h-504z" />
    <glyph glyph-name="uni01B7" unicode="&#x1b7;" horiz-adv-x="622" 
d="M292 -11q-76 0 -127 14t-80 37t-41.5 50.5t-12.5 54.5q0 52 34 73.5t83 21.5q0 -44 14 -86.5t45 -69.5t82 -27q65 0 100.5 33t35.5 118q0 70 -36.5 104t-102.5 34h-62v54l198 198h-182q-45 0 -62 -15.5t-21 -56.5l-4 -36h-74l8 224h463v-81l-219 -220q121 -2 193 -52.5
t72 -151.5q0 -77 -40 -125.5t-108.5 -71.5t-155.5 -23z" />
    <glyph glyph-name="uni01B8" unicode="&#x1b8;" horiz-adv-x="622" 
d="M323 -11q-90 0 -156.5 22.5t-103.5 70.5t-37 122q0 100 72 153.5t193 55.5l-218 220v81h462l8 -224h-74l-3 36q-4 41 -21.5 56.5t-62.5 15.5h-181l197 -198v-54h-62q-66 0 -102.5 -34t-36.5 -104q0 -85 36 -118t103 -33q52 0 86 22.5t55.5 59.5t33.5 78q34 -3 57 -20
t23 -60q0 -33 -26.5 -67.5t-85.5 -57.5t-156 -23z" />
    <glyph glyph-name="uni01B9" unicode="&#x1b9;" horiz-adv-x="609" 
d="M339 -240q-83 0 -146.5 25.5t-99.5 78t-36 133.5q0 97 61.5 157.5t168.5 70.5l-195 224v87h427l13 -212h-64l-7 31q-7 37 -21.5 51t-54.5 14h-164l181 -217v-44h-25q-73 0 -109 -45t-36 -119q0 -83 29 -127t94 -44q62 0 94.5 36.5t49.5 91.5q39 -4 56.5 -19.5t17.5 -45.5
q0 -31 -24.5 -60t-76.5 -48t-133 -19z" />
    <glyph glyph-name="uni01BA" unicode="&#x1ba;" horiz-adv-x="541" 
d="M238 -240q-103 0 -156 35t-53 96q0 51 32.5 82t123.5 47q81 14 111 40t30 66q0 38 -29 62.5t-99 24.5h-14v52l147 155h-140q-49 0 -66 -16t-24 -51l-7 -29h-61l13 212h417v-88l-170 -167q98 0 151 -30t53 -109q0 -62 -32.5 -96.5t-87.5 -52t-124 -28.5q-62 -10 -84.5 -26
t-22.5 -47q0 -28 24 -45.5t80 -17.5q62 0 107 23.5t74 61.5q11 -6 19 -17t8 -32q0 -52 -61 -78.5t-159 -26.5z" />
    <glyph glyph-name="uni01BB" unicode="&#x1bb;" horiz-adv-x="561" 
d="M31 0v112l135 143q20 21 37 40t31 36h-174v63h218q27 44 39 85t12 96q0 68 -20 94t-52 26q-44 0 -64 -41t-20 -137q-39 0 -71 8.5t-51 30.5t-19 61q0 38 24 70.5t75.5 52.5t133.5 20q120 0 180 -49t60 -136q0 -49 -19 -89t-64 -92h98v-63h-157q-31 -31 -70 -67.5
t-89 -80.5l-61 -61h223q25 0 48.5 16t33.5 51l10 36h66l-5 -225h-488z" />
    <glyph glyph-name="uni01BC" unicode="&#x1bc;" horiz-adv-x="582" 
d="M258 -10q-62 0 -111.5 14t-78.5 44.5t-29 78.5q0 49 28 69t76 21q-1 -81 26 -117t89 -36q58 0 84 44t26 117q0 63 -21 94t-56 40.5t-78 9.5h-101v231q0 37 -14.5 47t-36.5 10h-24v57h485l5 -188h-68l-8 50q-7 43 -23.5 58t-49.5 15h-90v-216h33q97 0 157 -49t60 -154
q0 -74 -27.5 -121t-70.5 -73t-91.5 -36t-90.5 -10z" />
    <glyph glyph-name="uni01BD" unicode="&#x1bd;" horiz-adv-x="518" 
d="M219 -10q-91 0 -140 31t-49 87q0 34 23 51.5t63 18.5q0 -56 21 -89.5t67 -33.5q52 0 74.5 29.5t22.5 81.5q0 42 -15 64t-40.5 30t-57.5 8h-102v150q0 36 -11 46.5t-42 10.5v61h427l2 -147h-55l-6 31q-5 28 -17.5 42t-42.5 14h-80v-148h30q53 0 94.5 -14t65 -48t23.5 -93
q0 -85 -63 -134t-192 -49z" />
    <glyph glyph-name="uni01BE" unicode="&#x1be;" horiz-adv-x="509" 
d="M244 -10q-78 0 -124 15.5t-66 42.5t-20 60q0 30 14.5 47t37 24t46.5 7q0 -133 111 -133q51 0 73.5 21t22.5 48q0 26 -14.5 44t-37.5 31t-48 25q-30 14 -56.5 32.5t-43.5 48t-17 76.5v85h-74v55q38 0 64.5 14.5t41.5 31.5q14 15 26 39.5t20 56.5h98v-125h126v-72h-126v-47
q0 -41 19.5 -60.5t49.5 -34.5q25 -12 48.5 -28t39.5 -44t16 -76q0 -86 -58 -135t-169 -49z" />
    <glyph glyph-name="uni01BF" unicode="&#x1bf;" horiz-adv-x="658" 
d="M11 -240v57h13q26 0 46.5 13t20.5 52v526q0 46 -17.5 58.5t-43.5 12.5h-5v57h205l21 -73h4q20 33 60 58t103 25q69 0 112.5 -26t64 -71t20.5 -100q0 -71 -22 -125.5t-59.5 -94.5t-83 -67.5t-93 -44t-90.5 -24.5v-108q0 -41 20.5 -54.5t45.5 -13.5h26v-57h-348zM267 59
q83 28 127.5 95.5t44.5 193.5q0 56 -19.5 86.5t-59.5 30.5q-52 0 -72.5 -50t-20.5 -128v-228z" />
    <glyph glyph-name="uni01C0" unicode="&#x1c0;" horiz-adv-x="381" 
d="M140 0v760h101v-760h-101z" />
    <glyph glyph-name="uni01C1" unicode="&#x1c1;" horiz-adv-x="607" 
d="M366 0v760h101v-760h-101zM140 0v760h101v-760h-101z" />
    <glyph glyph-name="uni01C2" unicode="&#x1c2;" horiz-adv-x="551" 
d="M225 0v237h-175v94h175v96h-175v94h175v239h101v-239h175v-94h-175v-96h175v-94h-175v-237h-101z" />
    <glyph glyph-name="uni01C3" unicode="&#x1c3;" horiz-adv-x="402" 
d="M152 233l-61 481h198l-60 -481h-77zM191 -9q-37 0 -62.5 19t-25.5 68q0 50 25.5 68.5t62.5 18.5q35 0 61.5 -18.5t26.5 -68.5q0 -49 -26.5 -68t-61.5 -19z" />
    <glyph glyph-name="uni01C4" unicode="&#x1c4;" horiz-adv-x="1479" 
d="M24 0v57h48q20 0 32.5 13.5t12.5 45.5v483q0 34 -14 46t-35 12h-44v57h340q170 0 267.5 -84.5t97.5 -254.5q0 -109 -41.5 -194t-122.5 -133t-201 -48h-340zM297 66h43q64 0 108 38t66 107.5t22 163.5q0 141 -49.5 207.5t-145.5 66.5h-44v-583zM827 0v54l375 595h-189
q-48 0 -63 -25.5t-19 -69.5l-5 -59h-80l5 219h558v-55l-376 -594h202q46 0 69.5 16t33 40.5t11.5 50.5l5 47h80l-5 -219h-602zM1074 771q-10 22 -31.5 49t-44 53t-38.5 45v13h81q12 -10 31.5 -26.5t40.5 -33.5t36 -29q15 12 36 29t41 33.5t32 26.5h81v-13q-15 -19 -38 -45
t-44 -53t-32 -49h-151z" />
    <glyph glyph-name="uni01C5" unicode="&#x1c5;" horiz-adv-x="1320" 
d="M24 0v57h48q20 0 32.5 13.5t12.5 45.5v483q0 34 -14 46t-35 12h-44v57h340q170 0 267.5 -84.5t97.5 -254.5q0 -109 -41.5 -194t-122.5 -133t-201 -48h-340zM297 66h43q64 0 108 38t66 107.5t22 163.5q0 141 -49.5 207.5t-145.5 66.5h-44v-583zM791 0v42l297 422h-123
q-28 0 -43 -12.5t-25 -53.5l-8 -32h-67l13 170h451v-44l-297 -420h159q36 0 53 16.5t26 64.5l7 36h66l-5 -189h-504zM986 606q-10 22 -31.5 49t-44 53t-38.5 45v13h81q12 -10 31.5 -26.5t40.5 -33.5t36 -29q15 12 36 29t41 33.5t32 26.5h81v-13q-15 -19 -38 -45t-44 -53
t-32 -49h-151z" />
    <glyph glyph-name="uni01C6" unicode="&#x1c6;" horiz-adv-x="1199" 
d="M246 -10q-98 0 -151 66.5t-53 210.5q0 145 53 213.5t149 68.5q56 0 89.5 -21t54.5 -52h6q-2 25 -3.5 57.5t-1.5 59.5v50q0 40 -23.5 50t-56.5 10h-8v57h264v-626q0 -46 21 -61.5t56 -15.5h6v-57h-208l-32 73h-7q-23 -38 -60 -60.5t-95 -22.5zM300 69q52 0 70.5 49.5
t18.5 151.5q0 97 -18.5 149t-70.5 52q-44 0 -62.5 -52.5t-18.5 -149.5q0 -101 18.5 -150.5t62.5 -49.5zM671 0v42l297 422h-123q-28 0 -43 -12.5t-25 -53.5l-8 -32h-67l13 170h451v-44l-297 -420h159q36 0 53 16.5t26 64.5l7 36h66l-5 -189h-504zM858 606q-10 22 -31.5 49
t-44 53t-38.5 45v13h81q12 -10 31.5 -26.5t40.5 -33.5t36 -29q15 12 36 29t41 33.5t32 26.5h81v-13q-15 -19 -38 -45t-44 -53t-32 -49h-151z" />
    <glyph glyph-name="uni01C7" unicode="&#x1c7;" horiz-adv-x="1039" 
d="M643 -240v62h21q28 0 56 17t47.5 56t19.5 104v602q0 32 -14 44t-30 12h-49v57h367v-57h-48q-17 0 -31 -12t-14 -46v-599q0 -68 -24 -114t-64.5 -74t-90.5 -40t-103 -12h-43zM24 0v57h48q17 0 31 12t14 44v486q0 34 -14.5 46t-34.5 12h-44v57h367v-57h-46q-24 0 -35 -11.5
t-11 -43.5v-537h181q31 0 50.5 20t30.5 66l19 75h57l-7 -226h-606z" />
    <glyph glyph-name="uni01C8" unicode="&#x1c8;" horiz-adv-x="1030" 
d="M24 0v57h48q17 0 31 12t14 44v486q0 34 -14.5 46t-34.5 12h-44v57h367v-57h-46q-24 0 -35 -11.5t-11 -43.5v-537h181q31 0 50.5 20t30.5 66l19 75h57l-7 -226h-606zM848 622q-41 0 -69 19t-28 57q0 40 28 58t69 18q39 0 68 -18t29 -58q0 -38 -29 -57t-68 -19zM644 -240
v68h7q55 0 84 37.5t29 138.5v409q0 43 -23.5 54.5t-55.5 11.5h-3v57h257v-544q0 -90 -35 -140.5t-97 -71t-142 -20.5h-21z" />
    <glyph glyph-name="uni01C9" unicode="&#x1c9;" horiz-adv-x="732" 
d="M550 622q-41 0 -69 19t-28 57q0 40 28 58t69 18q39 0 68 -18t29 -58q0 -38 -29 -57t-68 -19zM346 -240v68h7q55 0 84 37.5t29 138.5v409q0 43 -23.5 54.5t-55.5 11.5h-3v57h257v-544q0 -90 -35 -140.5t-97 -71t-142 -20.5h-21zM19 0v57h11q25 0 46 13.5t21 54.5v519
q0 26 -12 38.5t-28 16.5t-27 4h-11v57h253v-635q0 -41 21 -54.5t46 -13.5h11v-57h-331z" />
    <glyph glyph-name="uni01CA" unicode="&#x1ca;" horiz-adv-x="1171" 
d="M774 -240v62h21q28 0 56 17t47.5 56t19.5 104v602q0 32 -14 44t-30 12h-49v57h367v-57h-48q-17 0 -31 -12t-14 -46v-599q0 -68 -24 -114t-64.5 -74t-90.5 -40t-103 -12h-43zM24 0v57h37q25 0 40.5 11t15.5 52v478q0 38 -15.5 48.5t-35.5 10.5h-42v57h238l351 -477v361
q0 35 -14.5 47t-34.5 12h-43v57h265v-57h-43q-22 0 -36 -12.5t-14 -50.5v-594h-100l-396 541v-421q0 -41 13 -52t36 -11h43v-57h-265z" />
    <glyph glyph-name="uni01CB" unicode="&#x1cb;" horiz-adv-x="1161" 
d="M24 0v57h37q25 0 40.5 11t15.5 52v478q0 38 -15.5 48.5t-35.5 10.5h-42v57h238l351 -477v361q0 35 -14.5 47t-34.5 12h-43v57h265v-57h-43q-22 0 -36 -12.5t-14 -50.5v-594h-100l-396 541v-421q0 -41 13 -52t36 -11h43v-57h-265zM979 622q-41 0 -69 19t-28 57q0 40 28 58
t69 18q39 0 68 -18t29 -58q0 -38 -29 -57t-68 -19zM775 -240v68h7q55 0 84 37.5t29 138.5v409q0 43 -23.5 54.5t-55.5 11.5h-3v57h257v-544q0 -90 -35 -140.5t-97 -71t-142 -20.5h-21z" />
    <glyph glyph-name="uni01CC" unicode="&#x1cc;" horiz-adv-x="1039" 
d="M857 622q-41 0 -69 19t-28 57q0 40 28 58t69 18q39 0 68 -18t29 -58q0 -38 -29 -57t-68 -19zM653 -240v68h7q55 0 84 37.5t29 138.5v409q0 43 -23.5 54.5t-55.5 11.5h-3v57h257v-544q0 -90 -35 -140.5t-97 -71t-142 -20.5h-21zM17 0v57h3q34 0 53.5 12t19.5 56v290
q0 41 -17.5 52.5t-50.5 11.5h-3v57h229l13 -67h5q24 42 59.5 61.5t92.5 19.5q79 0 121.5 -45.5t42.5 -146.5v-230q0 -46 14 -58.5t48 -12.5h4v-57h-241v322q0 64 -14 99.5t-52 35.5q-29 0 -45.5 -21.5t-23.5 -56t-7 -74.5v-183q0 -41 17.5 -53t50.5 -12h3v-57h-322z" />
    <glyph glyph-name="uni01CD" unicode="&#x1cd;" horiz-adv-x="772" 
d="M6 0v57h9q26 0 45.5 13.5t36.5 57.5l214 586h161l207 -587q13 -38 33 -54t46 -16h14v-57h-352v57h40q15 0 28.5 7.5t13.5 27.5q0 14 -3.5 26.5t-6.5 19.5l-33 95h-234l-26 -78q-4 -12 -8.5 -30.5t-4.5 -31.5q0 -36 40 -36h46v-57h-266zM246 299h192l-55 179q-9 29 -19 64
t-17 69q-8 -32 -18.5 -66.5t-21.5 -64.5zM308 771q-10 22 -31.5 49t-44 53t-38.5 45v13h81q12 -10 31.5 -26.5t40.5 -33.5t36 -29q15 12 36 29t41 33.5t32 26.5h81v-13q-15 -19 -38 -45t-44 -53t-32 -49h-151z" />
    <glyph glyph-name="uni01CE" unicode="&#x1ce;" horiz-adv-x="614" 
d="M200 -10q-65 0 -111 40.5t-46 123.5q0 82 55 121t167 43l82 3v54q0 53 -12 81.5t-45 28.5q-30 0 -44.5 -29t-14.5 -79q-73 0 -109.5 15.5t-36.5 53.5t29.5 60.5t78.5 33t108 10.5q110 0 165.5 -37.5t55.5 -131.5v-253q0 -41 13 -56t47 -15h4v-57h-207l-23 62h-9
q-23 -26 -42 -42t-43.5 -23t-61.5 -7zM268 67q36 0 57.5 34t21.5 90v73l-37 -3q-50 -3 -69.5 -30.5t-19.5 -79.5q0 -84 47 -84zM229 606q-10 22 -31.5 49t-44 53t-38.5 45v13h81q12 -10 31.5 -26.5t40.5 -33.5t36 -29q15 12 36 29t41 33.5t32 26.5h81v-13q-15 -19 -38 -45
t-44 -53t-32 -49h-151z" />
    <glyph glyph-name="uni01CF" unicode="&#x1cf;" horiz-adv-x="415" 
d="M24 0v57h48q17 0 31 12t14 44v485q0 34 -14 46.5t-31 12.5h-48v57h367v-57h-49q-20 0 -32 -12.5t-12 -46.5v-484q0 -32 13 -44.5t31 -12.5h49v-57h-367zM132 771q-10 22 -31.5 49t-44 53t-38.5 45v13h81q12 -10 31.5 -26.5t40.5 -33.5t36 -29q15 12 36 29t41 33.5
t32 26.5h81v-13q-15 -19 -38 -45t-44 -53t-32 -49h-151z" />
    <glyph glyph-name="uni01D0" unicode="&#x1d0;" horiz-adv-x="365" 
d="M77 606q-10 22 -31.5 49t-44 53t-38.5 45v13h81q12 -10 31.5 -26.5t40.5 -33.5t36 -29q15 12 36 29t41 33.5t32 26.5h81v-13q-15 -19 -38 -45t-44 -53t-32 -49h-151zM14 0v57h12q26 0 46.5 14t20.5 56v288q0 38 -21 51t-46 13h-16v57h258v-411q0 -41 20.5 -54.5
t45.5 -13.5h12v-57h-332z" />
    <glyph glyph-name="uni01D1" unicode="&#x1d1;" horiz-adv-x="805" 
d="M403 -10q-117 0 -194.5 46t-116 129t-38.5 194t38.5 193t116 127.5t195.5 45.5q111 0 188.5 -45.5t118 -128t40.5 -193.5t-40.5 -193.5t-118.5 -128.5t-189 -46zM403 59q86 0 121.5 79t35.5 220t-35 219.5t-121 78.5t-122.5 -78.5t-36.5 -219.5t36.5 -220t121.5 -79z
M329 771q-10 22 -31.5 49t-44 53t-38.5 45v13h81q12 -10 31.5 -26.5t40.5 -33.5t36 -29q15 12 36 29t41 33.5t32 26.5h81v-13q-15 -19 -38 -45t-44 -53t-32 -49h-151z" />
    <glyph glyph-name="uni01D2" unicode="&#x1d2;" horiz-adv-x="628" 
d="M312 -10q-124 0 -196 70t-72 211t69 210t202 69q125 0 197 -69t72 -210t-69 -211t-203 -70zM314 57q51 0 71.5 54.5t20.5 159.5t-21 158t-72 53t-71 -53t-20 -158t20.5 -159.5t71.5 -54.5zM237 606q-10 22 -31.5 49t-44 53t-38.5 45v13h81q12 -10 31.5 -26.5t40.5 -33.5
t36 -29q15 12 36 29t41 33.5t32 26.5h81v-13q-15 -19 -38 -45t-44 -53t-32 -49h-151z" />
    <glyph glyph-name="uni01D3" unicode="&#x1d3;" horiz-adv-x="759" 
d="M392 -10q-85 0 -148.5 23t-98.5 73.5t-35 132.5v379q0 38 -17.5 48.5t-40.5 10.5h-35v57h366v-57h-34q-24 0 -41 -11t-17 -52v-384q0 -82 37.5 -113.5t104.5 -31.5q59 0 97.5 34.5t38.5 114.5v384q0 38 -16.5 48.5t-40.5 10.5h-35v57h266v-57h-36q-24 0 -41 -11t-17 -52
v-382q0 -67 -26 -117t-82.5 -77.5t-148.5 -27.5zM337 771q-10 22 -31.5 49t-44 53t-38.5 45v13h81q12 -10 31.5 -26.5t40.5 -33.5t36 -29q15 12 36 29t41 33.5t32 26.5h81v-13q-15 -19 -38 -45t-44 -53t-32 -49h-151z" />
    <glyph glyph-name="uni01D4" unicode="&#x1d4;" horiz-adv-x="680" 
d="M257 -10q-85 0 -125.5 49t-40.5 150v218q0 43 -11.5 57.5t-49.5 14.5h-3v57h240v-310q0 -64 13.5 -103.5t50.5 -39.5q41 0 59 40t18 108v187q0 42 -17.5 51.5t-44.5 9.5h-4v57h241v-417q0 -43 16.5 -52.5t44.5 -9.5h10v-57h-215l-26 67h-5q-26 -42 -63 -59.5t-88 -17.5z
M240 606q-10 22 -31.5 49t-44 53t-38.5 45v13h81q12 -10 31.5 -26.5t40.5 -33.5t36 -29q15 12 36 29t41 33.5t32 26.5h81v-13q-15 -19 -38 -45t-44 -53t-32 -49h-151z" />
    <glyph glyph-name="uni01D5" unicode="&#x1d5;" horiz-adv-x="759" 
d="M392 -10q-85 0 -148.5 23t-98.5 73.5t-35 132.5v379q0 38 -17.5 48.5t-40.5 10.5h-35v57h366v-57h-34q-24 0 -41 -11t-17 -52v-384q0 -82 37.5 -113.5t104.5 -31.5q59 0 97.5 34.5t38.5 114.5v384q0 38 -16.5 48.5t-40.5 10.5h-35v57h266v-57h-36q-24 0 -41 -11t-17 -52
v-382q0 -67 -26 -117t-82.5 -77.5t-148.5 -27.5zM261 942v85h294v-85h-294zM300 783q-24 0 -43.5 14.5t-19.5 49.5t19.5 50t43.5 15t44 -15t20 -50t-20 -49.5t-44 -14.5zM512 783q-25 0 -44.5 14.5t-19.5 49.5t19.5 50t44.5 15q23 0 43 -15t20 -50t-20 -49.5t-43 -14.5z" />
    <glyph glyph-name="uni01D6" unicode="&#x1d6;" horiz-adv-x="680" 
d="M257 -10q-85 0 -125.5 49t-40.5 150v218q0 43 -11.5 57.5t-49.5 14.5h-3v57h240v-310q0 -64 13.5 -103.5t50.5 -39.5q41 0 59 40t18 108v187q0 42 -17.5 51.5t-44.5 9.5h-4v57h241v-417q0 -43 16.5 -52.5t44.5 -9.5h10v-57h-215l-26 67h-5q-26 -42 -63 -59.5t-88 -17.5z
M177 777v85h294v-85h-294zM216 618q-24 0 -43.5 14.5t-19.5 49.5t19.5 50t43.5 15t44 -15t20 -50t-20 -49.5t-44 -14.5zM428 618q-25 0 -44.5 14.5t-19.5 49.5t19.5 50t44.5 15q23 0 43 -15t20 -50t-20 -49.5t-43 -14.5z" />
    <glyph glyph-name="uni01D7" unicode="&#x1d7;" horiz-adv-x="759" 
d="M392 -10q-85 0 -148.5 23t-98.5 73.5t-35 132.5v379q0 38 -17.5 48.5t-40.5 10.5h-35v57h366v-57h-34q-24 0 -41 -11t-17 -52v-384q0 -82 37.5 -113.5t104.5 -31.5q59 0 97.5 34.5t38.5 114.5v384q0 38 -16.5 48.5t-40.5 10.5h-35v57h266v-57h-36q-24 0 -41 -11t-17 -52
v-382q0 -67 -26 -117t-82.5 -77.5t-148.5 -27.5zM366 925v10q12 15 27.5 38.5t30 48.5t24.5 45h153v-9q-7 -10 -26.5 -28t-44.5 -38t-51 -38t-47 -29h-66zM300 786q-24 0 -43.5 15.5t-19.5 49.5q0 36 19.5 50t43.5 14t44 -14t20 -50q0 -34 -20 -49.5t-44 -15.5zM512 786
q-25 0 -44.5 15.5t-19.5 49.5q0 36 19.5 50t44.5 14q23 0 43 -14t20 -50q0 -34 -20 -49.5t-43 -15.5z" />
    <glyph glyph-name="uni01D8" unicode="&#x1d8;" horiz-adv-x="680" 
d="M257 -10q-85 0 -125.5 49t-40.5 150v218q0 43 -11.5 57.5t-49.5 14.5h-3v57h240v-310q0 -64 13.5 -103.5t50.5 -39.5q41 0 59 40t18 108v187q0 42 -17.5 51.5t-44.5 9.5h-4v57h241v-417q0 -43 16.5 -52.5t44.5 -9.5h10v-57h-215l-26 67h-5q-26 -42 -63 -59.5t-88 -17.5z
M283 760v10q12 15 27.5 38.5t30 48.5t24.5 45h153v-9q-7 -10 -26.5 -28t-44.5 -38t-51 -38t-47 -29h-66zM217 621q-24 0 -43.5 15.5t-19.5 49.5q0 36 19.5 50t43.5 14t44 -14t20 -50q0 -34 -20 -49.5t-44 -15.5zM429 621q-25 0 -44.5 15.5t-19.5 49.5q0 36 19.5 50t44.5 14
q23 0 43 -14t20 -50q0 -34 -20 -49.5t-43 -15.5z" />
    <glyph glyph-name="uni01D9" unicode="&#x1d9;" horiz-adv-x="759" 
d="M392 -10q-85 0 -148.5 23t-98.5 73.5t-35 132.5v379q0 38 -17.5 48.5t-40.5 10.5h-35v57h366v-57h-34q-24 0 -41 -11t-17 -52v-384q0 -82 37.5 -113.5t104.5 -31.5q59 0 97.5 34.5t38.5 114.5v384q0 38 -16.5 48.5t-40.5 10.5h-35v57h266v-57h-36q-24 0 -41 -11t-17 -52
v-382q0 -67 -26 -117t-82.5 -77.5t-148.5 -27.5zM337 932q-9 20 -26 44.5t-36 47.5t-33 38v10h71q17 -13 44.5 -35.5t45.5 -39.5q18 17 46.5 39.5t44.5 35.5h71v-10q-14 -15 -32.5 -38.5t-35.5 -48t-26 -43.5h-134zM300 782q-24 0 -43.5 15t-19.5 50t19.5 49.5t43.5 14.5
t44 -14.5t20 -49.5t-20 -50t-44 -15zM512 782q-25 0 -44.5 15t-19.5 50t19.5 49.5t44.5 14.5q23 0 43 -14.5t20 -49.5t-20 -50t-43 -15z" />
    <glyph glyph-name="uni01DA" unicode="&#x1da;" horiz-adv-x="680" 
d="M257 -10q-85 0 -125.5 49t-40.5 150v218q0 43 -11.5 57.5t-49.5 14.5h-3v57h240v-310q0 -64 13.5 -103.5t50.5 -39.5q41 0 59 40t18 108v187q0 42 -17.5 51.5t-44.5 9.5h-4v57h241v-417q0 -43 16.5 -52.5t44.5 -9.5h10v-57h-215l-26 67h-5q-26 -42 -63 -59.5t-88 -17.5z
M253 767q-9 20 -26 44.5t-36 47.5t-33 38v10h71q17 -13 44.5 -35.5t45.5 -39.5q18 17 46.5 39.5t44.5 35.5h71v-10q-14 -15 -32.5 -38.5t-35.5 -48t-26 -43.5h-134zM216 617q-24 0 -43.5 15t-19.5 50t19.5 49.5t43.5 14.5t44 -14.5t20 -49.5t-20 -50t-44 -15zM428 617
q-25 0 -44.5 15t-19.5 50t19.5 49.5t44.5 14.5q23 0 43 -14.5t20 -49.5t-20 -50t-43 -15z" />
    <glyph glyph-name="uni01DB" unicode="&#x1db;" horiz-adv-x="759" 
d="M392 -10q-85 0 -148.5 23t-98.5 73.5t-35 132.5v379q0 38 -17.5 48.5t-40.5 10.5h-35v57h366v-57h-34q-24 0 -41 -11t-17 -52v-384q0 -82 37.5 -113.5t104.5 -31.5q59 0 97.5 34.5t38.5 114.5v384q0 38 -16.5 48.5t-40.5 10.5h-35v57h266v-57h-36q-24 0 -41 -11t-17 -52
v-382q0 -67 -26 -117t-82.5 -77.5t-148.5 -27.5zM376 925q-21 11 -47 29t-51 38t-44 38t-27 28v9h153q10 -20 24.5 -45t30 -48.5t27.5 -38.5v-10h-66zM300 786q-24 0 -43.5 15.5t-19.5 49.5q0 36 19.5 50t43.5 14t44 -14t20 -50q0 -34 -20 -49.5t-44 -15.5zM512 786
q-25 0 -44.5 15.5t-19.5 49.5q0 36 19.5 50t44.5 14q23 0 43 -14t20 -50q0 -34 -20 -49.5t-43 -15.5z" />
    <glyph glyph-name="uni01DC" unicode="&#x1dc;" horiz-adv-x="680" 
d="M257 -10q-85 0 -125.5 49t-40.5 150v218q0 43 -11.5 57.5t-49.5 14.5h-3v57h240v-310q0 -64 13.5 -103.5t50.5 -39.5q41 0 59 40t18 108v187q0 42 -17.5 51.5t-44.5 9.5h-4v57h241v-417q0 -43 16.5 -52.5t44.5 -9.5h10v-57h-215l-26 67h-5q-26 -42 -63 -59.5t-88 -17.5z
M292 760q-21 11 -47 29t-51 38t-44 38t-27 28v9h153q10 -20 24.5 -45t30 -48.5t27.5 -38.5v-10h-66zM216 621q-24 0 -43.5 15.5t-19.5 49.5q0 36 19.5 50t43.5 14t44 -14t20 -50q0 -34 -20 -49.5t-44 -15.5zM428 621q-25 0 -44.5 15.5t-19.5 49.5q0 36 19.5 50t44.5 14
q23 0 43 -14t20 -50q0 -34 -20 -49.5t-43 -15.5z" />
    <glyph glyph-name="uni01DD" unicode="&#x1dd;" horiz-adv-x="586" 
d="M283 -10q-113 0 -178.5 61.5t-65.5 180.5v53h326q-3 97 -36 141t-92 44q-52 0 -87.5 -24t-52.5 -61q-31 18 -31 55q0 48 50 79t156 31q135 0 202.5 -72t67.5 -203q0 -141 -67.5 -213t-191.5 -72zM279 59q37 0 60 40.5t24 117.5h-150q0 -75 15.5 -116.5t50.5 -41.5z" />
    <glyph glyph-name="uni01DE" unicode="&#x1de;" horiz-adv-x="772" 
d="M6 0v57h9q26 0 45.5 13.5t36.5 57.5l214 586h161l207 -587q13 -38 33 -54t46 -16h14v-57h-352v57h40q15 0 28.5 7.5t13.5 27.5q0 14 -3.5 26.5t-6.5 19.5l-33 95h-234l-26 -78q-4 -12 -8.5 -30.5t-4.5 -31.5q0 -36 40 -36h46v-57h-266zM246 299h192l-55 179q-9 29 -19 64
t-17 69q-8 -32 -18.5 -66.5t-21.5 -64.5zM252 942v85h294v-85h-294zM291 783q-24 0 -43.5 14.5t-19.5 49.5t19.5 50t43.5 15t44 -15t20 -50t-20 -49.5t-44 -14.5zM503 783q-25 0 -44.5 14.5t-19.5 49.5t19.5 50t44.5 15q23 0 43 -15t20 -50t-20 -49.5t-43 -14.5z" />
    <glyph glyph-name="uni01DF" unicode="&#x1df;" horiz-adv-x="614" 
d="M200 -10q-65 0 -111 40.5t-46 123.5q0 82 55 121t167 43l82 3v54q0 53 -12 81.5t-45 28.5q-30 0 -44.5 -29t-14.5 -79q-73 0 -109.5 15.5t-36.5 53.5t29.5 60.5t78.5 33t108 10.5q110 0 165.5 -37.5t55.5 -131.5v-253q0 -41 13 -56t47 -15h4v-57h-207l-23 62h-9
q-23 -26 -42 -42t-43.5 -23t-61.5 -7zM268 67q36 0 57.5 34t21.5 90v73l-37 -3q-50 -3 -69.5 -30.5t-19.5 -79.5q0 -84 47 -84zM161 777v85h294v-85h-294zM200 618q-24 0 -43.5 14.5t-19.5 49.5t19.5 50t43.5 15t44 -15t20 -50t-20 -49.5t-44 -14.5zM412 618
q-25 0 -44.5 14.5t-19.5 49.5t19.5 50t44.5 15q23 0 43 -15t20 -50t-20 -49.5t-43 -14.5z" />
    <glyph glyph-name="uni01E0" unicode="&#x1e0;" horiz-adv-x="772" 
d="M6 0v57h9q26 0 45.5 13.5t36.5 57.5l214 586h161l207 -587q13 -38 33 -54t46 -16h14v-57h-352v57h40q15 0 28.5 7.5t13.5 27.5q0 14 -3.5 26.5t-6.5 19.5l-33 95h-234l-26 -78q-4 -12 -8.5 -30.5t-4.5 -31.5q0 -36 40 -36h46v-57h-266zM246 299h192l-55 179q-9 29 -19 64
t-17 69q-8 -32 -18.5 -66.5t-21.5 -64.5zM244 943v84h290v-84h-290zM389 762q-35 0 -61.5 18t-26.5 55q0 38 26.5 55.5t61.5 17.5q34 0 61.5 -17.5t27.5 -55.5q0 -37 -27.5 -55t-61.5 -18z" />
    <glyph glyph-name="uni01E1" unicode="&#x1e1;" horiz-adv-x="614" 
d="M200 -10q-65 0 -111 40.5t-46 123.5q0 82 55 121t167 43l82 3v54q0 53 -12 81.5t-45 28.5q-30 0 -44.5 -29t-14.5 -79q-73 0 -109.5 15.5t-36.5 53.5t29.5 60.5t78.5 33t108 10.5q110 0 165.5 -37.5t55.5 -131.5v-253q0 -41 13 -56t47 -15h4v-57h-207l-23 62h-9
q-23 -26 -42 -42t-43.5 -23t-61.5 -7zM268 67q36 0 57.5 34t21.5 90v73l-37 -3q-50 -3 -69.5 -30.5t-19.5 -79.5q0 -84 47 -84zM158 772v84h290v-84h-290zM303 591q-35 0 -61.5 18t-26.5 55q0 38 26.5 55.5t61.5 17.5q34 0 61.5 -17.5t27.5 -55.5q0 -37 -27.5 -55t-61.5 -18
z" />
    <glyph glyph-name="uni01E2" unicode="&#x1e2;" horiz-adv-x="1010" 
d="M0 0v57h10q26 0 46.5 19.5t42.5 59.5l278 516l-61 5v57h628l4 -188h-77l-5 49q-4 38 -18.5 56t-47.5 18h-158v-244h236v-64h-236v-276h188q32 0 47.5 20.5t20.5 53.5l8 49h76l-7 -188h-606v57h37q30 0 42.5 16t12.5 47v105h-230l-37 -76q-8 -16 -12 -30t-4 -23
q0 -39 59 -39h16v-57h-253zM265 289h196v360h-8zM538 763v87h290v-87h-290z" />
    <glyph glyph-name="uni01E3" unicode="&#x1e3;" horiz-adv-x="889" 
d="M208 -10q-70 0 -117.5 39t-47.5 125q0 82 55 121t167 43l82 3v54q0 48 -11 79t-44 31q-34 0 -47.5 -30.5t-13.5 -77.5q-77 0 -111.5 15.5t-34.5 53.5t29 60.5t76.5 33t104.5 10.5q55 0 95.5 -12.5t68.5 -40.5q29 25 68.5 39t89.5 14q105 0 169 -61t64 -180v-54h-326
q3 -97 36.5 -141t97.5 -44q51 0 84 25t50 62q16 -6 26 -19t10 -31q0 -29 -21.5 -56t-68 -44t-120.5 -17t-128 22.5t-88 64.5q-34 -45 -82 -66t-112 -21zM526 323h150q0 76 -16 117t-51 41q-36 0 -58.5 -40.5t-24.5 -117.5zM268 67q36 0 57.5 34t21.5 90v73l-37 -3
q-50 -3 -69.5 -30.5t-19.5 -79.5q0 -84 47 -84zM342 598v87h290v-87h-290z" />
    <glyph glyph-name="uni01E4" unicode="&#x1e4;" horiz-adv-x="791" 
d="M432 -10q-127 0 -211 46t-125.5 128.5t-41.5 193.5q0 108 43.5 190.5t129 129t210.5 46.5q130 0 195.5 -34t65.5 -84q0 -36 -35 -63.5t-108 -27.5q0 67 -30.5 104t-90.5 37q-102 0 -145.5 -78t-43.5 -220t46 -219t156 -77q14 0 29 1.5t31 3.5v81h-131v66h131v10
q0 36 -15 52.5t-51 16.5h-17v57h330v-57h-11q-31 0 -43 -17t-12 -56v-6h70v-66h-70v-101q-62 -29 -124 -43t-132 -14z" />
    <glyph glyph-name="uni01E5" unicode="&#x1e5;" horiz-adv-x="569" 
d="M238 -240q-245 0 -245 136q0 52 37 82t102 34q-29 11 -54.5 31.5t-25.5 57.5q0 34 27.5 59t71.5 48q-48 15 -80.5 53.5t-32.5 103.5q0 89 54 137t169 48q37 0 68 -7t56 -20q21 23 46.5 40.5t64.5 17.5q35 0 53.5 -18t18.5 -42q0 -25 -16 -43.5t-59 -18.5q0 24 -12.5 34.5
t-24.5 10.5q-10 0 -18.5 -3.5t-14.5 -6.5q23 -21 39.5 -53.5t16.5 -72.5q0 -80 -52.5 -130t-165.5 -50q-11 0 -30.5 1t-27.5 2q-11 -5 -22 -18t-11 -29t13 -23t32 -7h120q104 0 153.5 -39.5t49.5 -114.5q0 -8 -0.5 -15t-1.5 -14h49v-63h-69q-29 -52 -98.5 -80t-179.5 -28z
M259 251q41 0 53 32.5t12 81.5q0 50 -12.5 85.5t-53.5 35.5q-40 0 -53.5 -36t-13.5 -86q0 -48 14 -80.5t54 -32.5zM240 -176q112 0 148 44h-140v63h155q-7 39 -70 39h-126q-17 0 -35.5 -6t-31.5 -22t-13 -45q0 -39 31.5 -56t81.5 -17z" />
    <glyph glyph-name="uni01E6" unicode="&#x1e6;" horiz-adv-x="791" 
d="M432 -10q-127 0 -211 46t-125.5 128.5t-41.5 193.5q0 108 43.5 190.5t129 129t210.5 46.5q130 0 195.5 -34t65.5 -84q0 -36 -35 -63.5t-108 -27.5q0 67 -30.5 104t-90.5 37q-102 0 -145.5 -78t-43.5 -220t46 -219t156 -77q14 0 29 1.5t31 3.5v142q0 38 -15 55t-51 17h-17
v57h330v-57h-11q-31 0 -43 -17.5t-12 -58.5v-158q-62 -29 -124 -43t-132 -14zM355 771q-10 22 -31.5 49t-44 53t-38.5 45v13h81q12 -10 31.5 -26.5t40.5 -33.5t36 -29q15 12 36 29t41 33.5t32 26.5h81v-13q-15 -19 -38 -45t-44 -53t-32 -49h-151z" />
    <glyph glyph-name="uni01E7" unicode="&#x1e7;" horiz-adv-x="569" 
d="M238 -236q-245 0 -245 134q0 50 37 80t102 34q-29 11 -54.5 31.5t-25.5 57.5q0 34 27.5 59t71.5 48q-48 15 -80.5 53.5t-32.5 103.5q0 89 54 137t169 48q37 0 68 -7t56 -20q25 28 50 43t61 15q35 0 53.5 -18t18.5 -42q0 -25 -16 -43.5t-59 -18.5q0 24 -12.5 34.5
t-24.5 10.5q-10 0 -18.5 -3t-14.5 -7q23 -21 39.5 -53.5t16.5 -72.5q0 -80 -52.5 -130t-165.5 -50q-11 0 -30 1t-28 2q-12 -4 -22.5 -17.5t-10.5 -29.5t13 -23t32 -7h120q104 0 153.5 -39.5t49.5 -114.5q0 -92 -74 -144t-226 -52zM259 251q41 0 53 32.5t12 81.5
q0 50 -12.5 85.5t-53.5 35.5q-40 0 -53.5 -36t-13.5 -86q0 -48 14 -80.5t54 -32.5zM240 -172q163 0 163 90q0 24 -17.5 38t-55.5 14h-123q-17 0 -35.5 -6t-31.5 -21.5t-13 -44.5q0 -37 31.5 -53.5t81.5 -16.5zM182 606q-10 22 -31.5 49t-44 53t-38.5 45v13h81
q12 -10 31.5 -26.5t40.5 -33.5t36 -29q15 12 36 29t41 33.5t32 26.5h81v-13q-15 -19 -38 -45t-44 -53t-32 -49h-151z" />
    <glyph glyph-name="uni01E8" unicode="&#x1e8;" horiz-adv-x="748" 
d="M24 0v57h43q20 0 35 11.5t15 43.5v491q0 31 -13.5 42.5t-33.5 11.5h-46v57h356v-57h-38q-20 0 -32 -12t-12 -44v-239l143 158q31 34 45.5 58t14.5 47q0 18 -13.5 25.5t-45.5 7.5v56h288v-56q-43 0 -78.5 -24.5t-69.5 -61.5l-132 -140l191 -290q32 -49 56 -67t58 -18h5
v-57h-77q-55 0 -92 6t-61.5 19.5t-43 35t-37.5 52.5l-119 200l-32 -24v-176q0 -32 14.5 -44t35.5 -12h32v-57h-356zM320 771q-10 22 -31.5 49t-44 53t-38.5 45v13h81q12 -10 31.5 -26.5t40.5 -33.5t36 -29q15 12 36 29t41 33.5t32 26.5h81v-13q-15 -19 -38 -45t-44 -53
t-32 -49h-151z" />
    <glyph glyph-name="uni01E9" unicode="&#x1e9;" horiz-adv-x="657" 
d="M16 0v57h14q12 0 27.5 4.5t27.5 17.5t12 41v524q0 26 -12 38.5t-28 16.5t-27 4h-14v57h256v-383q0 -17 -1 -38t-2 -38t-2 -22l126 142q10 12 13 19.5t3 12.5q0 13 -14 21.5t-39 8.5v53h264v-53q-34 0 -68 -19t-73 -63l-55 -64l133 -198q55 -82 96 -82h3v-57h-14
q-59 0 -99.5 3.5t-68.5 14t-48.5 30t-40.5 51.5l-80 128l-33 -28v-77q0 -28 12 -42t27.5 -18.5t26.5 -4.5h16v-57h-338zM274 796q-10 22 -31.5 49t-44 53t-38.5 45v13h81q12 -10 31.5 -26.5t40.5 -33.5t36 -29q15 12 36 29t41 33.5t32 26.5h81v-13q-15 -19 -38 -45t-44 -53
t-32 -49h-151z" />
    <glyph glyph-name="uni01EA" unicode="&#x1ea;" horiz-adv-x="805" 
d="M403 -10q-117 0 -194.5 46t-116 129t-38.5 194t38.5 193t116 127.5t195.5 45.5q111 0 188.5 -45.5t118 -128t40.5 -193.5t-40.5 -193.5t-118.5 -128.5t-189 -46zM403 59q86 0 121.5 79t35.5 220t-35 219.5t-121 78.5t-122.5 -78.5t-36.5 -219.5t36.5 -220t121.5 -79z
M432 -240q-77 0 -115.5 26.5t-38.5 83.5q0 31 17 58t43.5 46t57.5 26h85q-21 -6 -42.5 -21.5t-36 -39t-14.5 -54.5q0 -25 19.5 -37t49.5 -12q14 0 29.5 2t33.5 6v-68q-16 -8 -44 -12t-44 -4z" />
    <glyph glyph-name="uni01EB" unicode="&#x1eb;" horiz-adv-x="628" 
d="M312 -10q-124 0 -196 70t-72 211t69 210t202 69q125 0 197 -69t72 -210t-69 -211t-203 -70zM314 57q51 0 71.5 54.5t20.5 159.5t-21 158t-72 53t-71 -53t-20 -158t20.5 -159.5t71.5 -54.5zM332 -240q-77 0 -115.5 26.5t-38.5 83.5q0 31 17 58t43.5 46t57.5 26h85
q-21 -6 -42.5 -21.5t-36 -39t-14.5 -54.5q0 -25 19.5 -37t49.5 -12q14 0 29.5 2t33.5 6v-68q-16 -8 -44 -12t-44 -4z" />
    <glyph glyph-name="uni01EC" unicode="&#x1ec;" horiz-adv-x="805" 
d="M403 -10q-117 0 -194.5 46t-116 129t-38.5 194t38.5 193t116 127.5t195.5 45.5q111 0 188.5 -45.5t118 -128t40.5 -193.5t-40.5 -193.5t-118.5 -128.5t-189 -46zM403 59q86 0 121.5 79t35.5 220t-35 219.5t-121 78.5t-122.5 -78.5t-36.5 -219.5t36.5 -220t121.5 -79z
M432 -240q-77 0 -115.5 26.5t-38.5 83.5q0 31 17 58t43.5 46t57.5 26h85q-21 -6 -42.5 -21.5t-36 -39t-14.5 -54.5q0 -25 19.5 -37t49.5 -12q14 0 29.5 2t33.5 6v-68q-16 -8 -44 -12t-44 -4zM254 767v87h290v-87h-290z" />
    <glyph glyph-name="uni01ED" unicode="&#x1ed;" horiz-adv-x="628" 
d="M312 -10q-124 0 -196 70t-72 211t69 210t202 69q125 0 197 -69t72 -210t-69 -211t-203 -70zM314 57q51 0 71.5 54.5t20.5 159.5t-21 158t-72 53t-71 -53t-20 -158t20.5 -159.5t71.5 -54.5zM171 602v87h290v-87h-290zM330 -240q-76 0 -115 26.5t-39 83.5q0 31 17 58t44 46
t57 26h85q-21 -6 -42.5 -21.5t-36 -39t-14.5 -54.5q0 -25 19.5 -37t49.5 -12q13 0 29 2t34 6v-68q-16 -8 -44 -12t-44 -4z" />
    <glyph glyph-name="uni01EE" unicode="&#x1ee;" horiz-adv-x="622" 
d="M240 771q-10 22 -31.5 49t-44 53t-38.5 45v13h81q12 -10 31.5 -26.5t40.5 -33.5t36 -29q15 12 36 29t41 33.5t32 26.5h81v-13q-15 -19 -38 -45t-44 -53t-32 -49h-151zM292 -11q-76 0 -127 14t-80 37t-41.5 50.5t-12.5 54.5q0 52 34 73.5t83 21.5q0 -44 14 -86.5t45 -69.5
t82 -27q65 0 100.5 33t35.5 118q0 70 -36.5 104t-102.5 34h-62v54l198 198h-182q-45 0 -62 -15.5t-21 -56.5l-4 -36h-74l8 224h463v-81l-219 -220q121 -2 193 -52.5t72 -151.5q0 -77 -40 -125.5t-108.5 -71.5t-155.5 -23z" />
    <glyph glyph-name="uni01EF" unicode="&#x1ef;" horiz-adv-x="564" 
d="M203 606q-10 22 -31.5 49t-44 53t-38.5 45v13h81q12 -10 31.5 -26.5t40.5 -33.5t36 -29q15 12 36 29t41 33.5t32 26.5h81v-13q-15 -19 -38 -45t-44 -53t-32 -49h-151zM243 -240q-85 0 -134.5 19t-70.5 48t-21 57q0 38 25 58t84 20q0 -35 12 -67.5t37.5 -53.5t66.5 -21
q30 0 55 17t40.5 55t15.5 103q0 85 -38.5 124.5t-105.5 39.5h-36v41l212 220h-197q-35 0 -47 -14t-22 -48l-9 -36h-61l14 214h449v-87l-220 -225q67 -4 121 -28t85.5 -71t31.5 -122q0 -65 -24 -111.5t-65.5 -75.5t-92.5 -42.5t-105 -13.5z" />
    <glyph glyph-name="uni01F0" unicode="&#x1f0;" horiz-adv-x="363" 
d="M-16 -240v68h6q52 0 79.5 37.5t27.5 138.5v409q0 43 -23.5 54.5t-55.5 11.5h-3v57h257v-544q0 -90 -34.5 -140.5t-94.5 -71t-138 -20.5h-21zM88 606q-10 22 -31.5 49t-44 53t-38.5 45v13h81q12 -10 31.5 -26.5t40.5 -33.5t36 -29q15 12 36 29t41 33.5t32 26.5h81v-13
q-15 -19 -38 -45t-44 -53t-32 -49h-151z" />
    <glyph glyph-name="uni01F1" unicode="&#x1f1;" horiz-adv-x="1479" 
d="M24 0v57h48q20 0 32.5 13.5t12.5 45.5v483q0 34 -14 46t-35 12h-44v57h340q170 0 267.5 -84.5t97.5 -254.5q0 -109 -41.5 -194t-122.5 -133t-201 -48h-340zM297 66h43q64 0 108 38t66 107.5t22 163.5q0 141 -49.5 207.5t-145.5 66.5h-44v-583zM827 0v54l375 595h-189
q-48 0 -63 -25.5t-19 -69.5l-5 -59h-80l5 219h558v-55l-376 -594h202q46 0 69.5 16t33 40.5t11.5 50.5l5 47h80l-5 -219h-602z" />
    <glyph glyph-name="uni01F2" unicode="&#x1f2;" horiz-adv-x="1320" 
d="M24 0v57h48q20 0 32.5 13.5t12.5 45.5v483q0 34 -14 46t-35 12h-44v57h340q170 0 267.5 -84.5t97.5 -254.5q0 -109 -41.5 -194t-122.5 -133t-201 -48h-340zM297 66h43q64 0 108 38t66 107.5t22 163.5q0 141 -49.5 207.5t-145.5 66.5h-44v-583zM791 0v42l297 422h-123
q-28 0 -43 -12.5t-25 -53.5l-8 -32h-67l13 170h451v-44l-297 -420h159q36 0 53 16.5t26 64.5l7 36h66l-5 -189h-504z" />
    <glyph glyph-name="uni01F3" unicode="&#x1f3;" horiz-adv-x="1199" 
d="M246 -10q-98 0 -151 66.5t-53 210.5q0 145 53 213.5t149 68.5q56 0 89.5 -21t54.5 -52h6q-2 25 -3.5 57.5t-1.5 59.5v50q0 40 -23.5 50t-56.5 10h-8v57h264v-626q0 -46 21 -61.5t56 -15.5h6v-57h-208l-32 73h-7q-23 -38 -60 -60.5t-95 -22.5zM300 69q52 0 70.5 49.5
t18.5 151.5q0 97 -18.5 149t-70.5 52q-44 0 -62.5 -52.5t-18.5 -149.5q0 -101 18.5 -150.5t62.5 -49.5zM671 0v42l297 422h-123q-28 0 -43 -12.5t-25 -53.5l-8 -32h-67l13 170h451v-44l-297 -420h159q36 0 53 16.5t26 64.5l7 36h66l-5 -189h-504z" />
    <glyph glyph-name="uni01F4" unicode="&#x1f4;" horiz-adv-x="791" 
d="M432 -10q-127 0 -211 46t-125.5 128.5t-41.5 193.5q0 108 43.5 190.5t129 129t210.5 46.5q130 0 195.5 -34t65.5 -84q0 -36 -35 -63.5t-108 -27.5q0 67 -30.5 104t-90.5 37q-102 0 -145.5 -78t-43.5 -220t46 -219t156 -77q14 0 29 1.5t31 3.5v142q0 38 -15 55t-51 17h-17
v57h330v-57h-11q-31 0 -43 -17.5t-12 -58.5v-158q-62 -29 -124 -43t-132 -14zM308 766v13q14 19 34 45t38 53t29 49h177v-10q-9 -13 -31.5 -33t-51.5 -42t-59.5 -41.5t-55.5 -33.5h-80z" />
    <glyph glyph-name="uni01F5" unicode="&#x1f5;" horiz-adv-x="569" 
d="M238 -236q-245 0 -245 134q0 50 37 80t102 34q-29 11 -54.5 31.5t-25.5 57.5q0 34 27.5 59t71.5 48q-48 15 -80.5 53.5t-32.5 103.5q0 89 54 137t169 48q37 0 68 -7t56 -20q25 28 50 43t61 15q35 0 53.5 -18t18.5 -42q0 -25 -16 -43.5t-59 -18.5q0 24 -12.5 34.5
t-24.5 10.5q-10 0 -18.5 -3t-14.5 -7q23 -21 39.5 -53.5t16.5 -72.5q0 -80 -52.5 -130t-165.5 -50q-11 0 -30 1t-28 2q-12 -4 -22.5 -17.5t-10.5 -29.5t13 -23t32 -7h120q104 0 153.5 -39.5t49.5 -114.5q0 -92 -74 -144t-226 -52zM259 251q41 0 53 32.5t12 81.5
q0 50 -12.5 85.5t-53.5 35.5q-40 0 -53.5 -36t-13.5 -86q0 -48 14 -80.5t54 -32.5zM240 -172q163 0 163 90q0 24 -17.5 38t-55.5 14h-123q-17 0 -35.5 -6t-31.5 -21.5t-13 -44.5q0 -37 31.5 -53.5t81.5 -16.5zM157 606v13q14 19 34 45t38 53t29 49h177v-10q-9 -13 -31.5 -33
t-51.5 -42t-59.5 -41.5t-55.5 -33.5h-80z" />
    <glyph glyph-name="uni01F6" unicode="&#x1f6;" horiz-adv-x="1175" 
d="M805 -10q-138 0 -205.5 53t-67.5 153v144h-234v-226q0 -30 11.5 -43.5t30.5 -13.5h40v-57h-356v57h48q19 0 32 13.5t13 43.5v486q0 33 -15 45t-35 12h-43v57h356v-57h-40q-19 0 -30.5 -12t-11.5 -44v-196h234v194q0 34 -12 46t-34 12h-36v57h356v-57h-48q-20 0 -32.5 -12
t-12.5 -46v-415q0 -68 22.5 -97t68.5 -29t66 29t20 90v110q0 39 -13 50.5t-39 11.5h-42v57h364v-57h-39q-25 0 -37.5 -13t-12.5 -51v-96q0 -90 -67 -144.5t-199 -54.5z" />
    <glyph glyph-name="uni01F7" unicode="&#x1f7;" horiz-adv-x="745" 
d="M14 -240v57h11q11 0 27 4.5t28 17.5t12 41v718q0 30 -8 42.5t-22 14.5t-31 2h-4v57h204l19 -105h6q22 47 66.5 81t125.5 34q85 0 137 -34.5t75.5 -94t23.5 -134.5q0 -102 -25 -176t-68 -126t-97 -85.5t-113 -52.5t-116 -29v-112q0 -28 11.5 -41t27.5 -17.5t27 -4.5h26
v-57h-343zM265 57q132 38 190 138t58 270q0 95 -25 137.5t-81 42.5q-55 0 -86 -36t-43.5 -100.5t-12.5 -151.5v-300z" />
    <glyph glyph-name="uni01F8" unicode="&#x1f8;" horiz-adv-x="798" 
d="M24 0v57h37q25 0 40.5 11t15.5 52v478q0 38 -15.5 48.5t-35.5 10.5h-42v57h238l351 -477v361q0 35 -14.5 47t-34.5 12h-43v57h265v-57h-43q-22 0 -36 -12.5t-14 -50.5v-594h-100l-396 541v-421q0 -41 13 -52t36 -11h43v-57h-265zM418 766q-25 14 -55.5 33.5t-59.5 41.5
t-51.5 42t-31.5 33v10h177q11 -22 29 -49t38 -53t34 -45v-13h-80z" />
    <glyph glyph-name="uni01F9" unicode="&#x1f9;" horiz-adv-x="676" 
d="M17 0v57h3q34 0 53.5 12t19.5 56v290q0 41 -17.5 52.5t-50.5 11.5h-3v57h229l13 -67h5q24 42 59.5 61.5t92.5 19.5q79 0 121.5 -45.5t42.5 -146.5v-230q0 -46 14 -58.5t48 -12.5h4v-57h-241v322q0 64 -14 99.5t-52 35.5q-29 0 -45.5 -21.5t-23.5 -56t-7 -74.5v-183
q0 -41 17.5 -53t50.5 -12h3v-57h-322zM352 606q-25 14 -55.5 33.5t-59.5 41.5t-51.5 42t-31.5 33v10h177q11 -22 29 -49t38 -53t34 -45v-13h-80z" />
    <glyph glyph-name="Aringacute" unicode="&#x1fa;" horiz-adv-x="772" 
d="M313 830v10q15 16 34 36.5t37 42t29 39.5h178v-8q-9 -10 -31.5 -26t-52 -33.5t-59.5 -33.5t-55 -27h-80zM6 0v57h9q26 0 45.5 12.5t36.5 51.5l203 492q-14 16 -21.5 35.5t-7.5 45.5q0 53 35 81t85 28t85 -28t35 -81q0 -26 -7.5 -45.5t-20.5 -33.5l191 -485
q17 -41 36.5 -57t42.5 -16h19v-57h-352v57h46q9 0 22.5 9t13.5 26q0 13 -3 23.5l-5 17.5l-29 76h-240l-23 -60q-4 -11 -10 -28t-6 -30q0 -15 13 -24.5t24 -9.5h49v-57h-266zM391 644q25 0 40.5 12t15.5 38q0 28 -16.5 39.5t-39.5 11.5t-39.5 -11.5t-16.5 -39.5t13.5 -39
t42.5 -11zM249 274h188l-48 136q-6 17 -13 42.5t-14.5 52.5t-12.5 48q-5 -19 -14 -45l-18 -52t-16 -44z" />
    <glyph glyph-name="aringacute" unicode="&#x1fb;" horiz-adv-x="614" 
d="M231 830v10q15 16 34.5 36.5t38 42t28.5 39.5h178v-8q-9 -10 -31.5 -26t-52 -33.5t-59.5 -33.5t-55 -27h-81zM311 585q-50 0 -85 28t-35 81t35 81t85 28t85 -28t35 -81t-35 -81t-85 -28zM311 642q23 0 39.5 12t16.5 40t-16.5 39.5t-39.5 11.5t-40 -11.5t-17 -39.5t17 -40
t40 -12zM200 -10q-65 0 -111 40.5t-46 123.5q0 82 55 121t167 43l82 3v54q0 48 -8.5 79t-41.5 31q-30 0 -43.5 -30.5t-13.5 -77.5q-76 0 -115.5 15.5t-39.5 53.5t29.5 60.5t78.5 33t108 10.5q110 0 165.5 -37.5t55.5 -131.5v-253q0 -41 13 -56t47 -15h4v-57h-207l-23 62h-9
q-23 -26 -42 -42t-43.5 -23t-61.5 -7zM268 67q36 0 57.5 34t21.5 90v73l-37 -3q-50 -3 -69.5 -30.5t-19.5 -79.5q0 -84 47 -84z" />
    <glyph glyph-name="AEacute" unicode="&#x1fc;" horiz-adv-x="1010" 
d="M0 0v57h10q26 0 46.5 19.5t42.5 59.5l278 516l-61 5v57h628l4 -188h-77l-5 49q-4 38 -18.5 56t-47.5 18h-158v-244h236v-64h-236v-276h188q32 0 47.5 20.5t20.5 53.5l8 49h76l-7 -188h-606v57h37q30 0 42.5 16t12.5 47v105h-230l-37 -76q-8 -16 -12 -30t-4 -23
q0 -39 59 -39h16v-57h-253zM265 289h196v360h-8zM554 771v13q14 19 34 45t38 53t29 49h177v-10q-9 -13 -31.5 -33t-51.5 -42t-59.5 -41.5t-55.5 -33.5h-80z" />
    <glyph glyph-name="aeacute" unicode="&#x1fd;" horiz-adv-x="889" 
d="M208 -10q-70 0 -117.5 39t-47.5 125q0 82 55 121t167 43l82 3v54q0 48 -11 79t-44 31q-34 0 -47.5 -30.5t-13.5 -77.5q-77 0 -111.5 15.5t-34.5 53.5t29 60.5t76.5 33t104.5 10.5q55 0 95.5 -12.5t68.5 -40.5q29 25 68.5 39t89.5 14q105 0 169 -61t64 -180v-54h-326
q3 -97 36.5 -141t97.5 -44q51 0 84 25t50 62q16 -6 26 -19t10 -31q0 -29 -21.5 -56t-68 -44t-120.5 -17t-128 22.5t-88 64.5q-34 -45 -82 -66t-112 -21zM526 323h150q0 76 -16 117t-51 41q-36 0 -58.5 -40.5t-24.5 -117.5zM268 67q36 0 57.5 34t21.5 90v73l-37 -3
q-50 -3 -69.5 -30.5t-19.5 -79.5q0 -84 47 -84zM408 606v13q14 19 34 45t38 53t29 49h177v-10q-9 -13 -31.5 -33t-51.5 -42t-59.5 -41.5t-55.5 -33.5h-80z" />
    <glyph glyph-name="Oslashacute" unicode="&#x1fe;" horiz-adv-x="805" 
d="M328 771v13q14 19 34 45t38 53t29 49h177v-10q-9 -13 -31.5 -33t-51.5 -42t-59.5 -41.5t-55.5 -33.5h-80zM154 -40l44 82q-72 46 -108 128t-36 189q0 111 38.5 193t116 127.5t195.5 45.5q40 0 76.5 -6.5t68.5 -18.5l28 55h75l-45 -84q70 -47 107 -127t37 -186
q0 -111 -40.5 -193.5t-118.5 -128.5t-189 -46q-42 0 -77.5 6t-67.5 17l-28 -53h-76zM267 171l234 442q-17 20 -41 31.5t-56 11.5q-86 0 -122.5 -78.5t-36.5 -219.5q0 -115 22 -187zM403 59q86 0 121.5 79t35.5 220q0 114 -21 186l-234 -443q18 -20 42 -31t56 -11z" />
    <glyph glyph-name="oslashacute" unicode="&#x1ff;" horiz-adv-x="628" 
d="M253 606v13q14 19 34 45t38 53t29 49h177v-10q-9 -13 -31.5 -33t-51.5 -42t-59.5 -41.5t-55.5 -33.5h-80zM89 -40l48 80q-45 34 -69 92t-24 139q0 141 69 210t202 69q71 0 124 -21l30 47h75l-50 -81q43 -35 66.5 -90.5t23.5 -133.5q0 -141 -69 -211t-203 -70
q-66 0 -117 18l-30 -48h-76zM225 181l158 257q-11 22 -28 33t-42 11q-51 0 -71.5 -53t-20.5 -158q0 -25 1 -48t3 -42zM314 57q51 0 71.5 54t20.5 158q0 20 -1 39.5t-3 38.5l-154 -250q22 -40 66 -40z" />
    <glyph glyph-name="uni0200" unicode="&#x200;" horiz-adv-x="772" 
d="M6 0v57h9q26 0 45.5 13.5t36.5 57.5l214 586h161l207 -587q13 -38 33 -54t46 -16h14v-57h-352v57h40q15 0 28.5 7.5t13.5 27.5q0 14 -3.5 26.5t-6.5 19.5l-33 95h-234l-26 -78q-4 -12 -8.5 -30.5t-4.5 -31.5q0 -36 40 -36h46v-57h-266zM246 299h192l-55 179q-9 29 -19 64
t-17 69q-8 -32 -18.5 -66.5t-21.5 -64.5zM455 771q-17 14 -39 33.5t-43.5 41.5t-39 42t-25.5 33v10h139q16 -34 40 -73.5t45 -73.5v-13h-77zM259 771q-17 14 -39 33.5t-43.5 41.5t-39 42t-25.5 33v10h139q16 -34 40 -73.5t45 -73.5v-13h-77z" />
    <glyph glyph-name="uni0201" unicode="&#x201;" horiz-adv-x="614" 
d="M200 -10q-65 0 -111 40.5t-46 123.5q0 82 55 121t167 43l82 3v54q0 53 -12 81.5t-45 28.5q-30 0 -44.5 -29t-14.5 -79q-73 0 -109.5 15.5t-36.5 53.5t29.5 60.5t78.5 33t108 10.5q110 0 165.5 -37.5t55.5 -131.5v-253q0 -41 13 -56t47 -15h4v-57h-207l-23 62h-9
q-23 -26 -42 -42t-43.5 -23t-61.5 -7zM268 67q36 0 57.5 34t21.5 90v73l-37 -3q-50 -3 -69.5 -30.5t-19.5 -79.5q0 -84 47 -84zM394 606q-17 14 -39 33.5t-43.5 41.5t-39 42t-25.5 33v10h139q16 -34 40 -73.5t45 -73.5v-13h-77zM198 606q-17 14 -39 33.5t-43.5 41.5t-39 42
t-25.5 33v10h139q16 -34 40 -73.5t45 -73.5v-13h-77z" />
    <glyph glyph-name="uni0202" unicode="&#x202;" horiz-adv-x="772" 
d="M6 0v57h9q26 0 45.5 13.5t36.5 57.5l214 586h161l207 -587q13 -38 33 -54t46 -16h14v-57h-352v57h40q15 0 28.5 7.5t13.5 27.5q0 14 -3.5 26.5t-6.5 19.5l-33 95h-234l-26 -78q-4 -12 -8.5 -30.5t-4.5 -31.5q0 -36 40 -36h46v-57h-266zM246 299h192l-55 179q-9 29 -19 64
t-17 69q-8 -32 -18.5 -66.5t-21.5 -64.5zM218 771q1 38 20 76t56.5 63.5t91.5 25.5t91.5 -25.5t56.5 -63.5t20 -76h-74q-8 36 -32.5 52t-61.5 16t-61.5 -16t-32.5 -52h-74z" />
    <glyph glyph-name="uni0203" unicode="&#x203;" horiz-adv-x="614" 
d="M200 -10q-65 0 -111 40.5t-46 123.5q0 82 55 121t167 43l82 3v54q0 53 -12 81.5t-45 28.5q-30 0 -44.5 -29t-14.5 -79q-73 0 -109.5 15.5t-36.5 53.5t29.5 60.5t78.5 33t108 10.5q110 0 165.5 -37.5t55.5 -131.5v-253q0 -41 13 -56t47 -15h4v-57h-207l-23 62h-9
q-23 -26 -42 -42t-43.5 -23t-61.5 -7zM268 67q36 0 57.5 34t21.5 90v73l-37 -3q-50 -3 -69.5 -30.5t-19.5 -79.5q0 -84 47 -84zM142 606q1 38 20 76t56.5 63.5t91.5 25.5t91.5 -25.5t56.5 -63.5t20 -76h-74q-8 36 -32.5 52t-61.5 16t-61.5 -16t-32.5 -52h-74z" />
    <glyph glyph-name="uni0204" unicode="&#x204;" horiz-adv-x="665" 
d="M24 0v57h47q21 0 33.5 12.5t12.5 41.5v487q0 38 -14 48.5t-33 10.5h-46v57h576l3 -188h-77l-5 49q-4 38 -18 56t-47 18h-158v-244h236v-64h-236v-276h188q32 0 47 20.5t20 53.5l8 49h76l-7 -188h-606zM415 771q-17 14 -39 33.5t-43.5 41.5t-39 42t-25.5 33v10h139
q16 -34 40 -73.5t45 -73.5v-13h-77zM219 771q-17 14 -39 33.5t-43.5 41.5t-39 42t-25.5 33v10h139q16 -34 40 -73.5t45 -73.5v-13h-77z" />
    <glyph glyph-name="uni0205" unicode="&#x205;" horiz-adv-x="586" 
d="M314 -10q-136 0 -203 72.5t-67 203.5q0 141 67.5 212.5t190.5 71.5q114 0 179.5 -61t65.5 -180v-54h-326q2 -97 36 -141t97 -44q52 0 85 25t49 62q36 -13 36 -50q0 -29 -21.5 -56t-68 -44t-120.5 -17zM223 323h150q0 76 -16 117t-51 41q-37 0 -59.5 -40.5t-23.5 -117.5z
M390 606q-17 14 -39 33.5t-43.5 41.5t-39 42t-25.5 33v10h139q16 -34 40 -73.5t45 -73.5v-13h-77zM194 606q-17 14 -39 33.5t-43.5 41.5t-39 42t-25.5 33v10h139q16 -34 40 -73.5t45 -73.5v-13h-77z" />
    <glyph glyph-name="uni0206" unicode="&#x206;" horiz-adv-x="665" 
d="M24 0v57h47q21 0 33.5 12.5t12.5 41.5v487q0 38 -14 48.5t-33 10.5h-46v57h576l3 -188h-77l-5 49q-4 38 -18 56t-47 18h-158v-244h236v-64h-236v-276h188q32 0 47 20.5t20 53.5l8 49h76l-7 -188h-606zM161 771q1 38 20 76t56.5 63.5t91.5 25.5t91.5 -25.5t56.5 -63.5
t20 -76h-74q-8 36 -32.5 52t-61.5 16t-61.5 -16t-32.5 -52h-74z" />
    <glyph glyph-name="uni0207" unicode="&#x207;" horiz-adv-x="586" 
d="M314 -10q-136 0 -203 72.5t-67 203.5q0 141 67.5 212.5t190.5 71.5q114 0 179.5 -61t65.5 -180v-54h-326q2 -97 36 -141t97 -44q52 0 85 25t49 62q36 -13 36 -50q0 -29 -21.5 -56t-68 -44t-120.5 -17zM223 323h150q0 76 -16 117t-51 41q-37 0 -59.5 -40.5t-23.5 -117.5z
M134 606q1 38 20 76t56.5 63.5t91.5 25.5t91.5 -25.5t56.5 -63.5t20 -76h-74q-8 36 -32.5 52t-61.5 16t-61.5 -16t-32.5 -52h-74z" />
    <glyph glyph-name="uni0208" unicode="&#x208;" horiz-adv-x="415" 
d="M24 0v57h48q17 0 31 12t14 44v485q0 34 -14 46.5t-31 12.5h-48v57h367v-57h-49q-20 0 -32 -12.5t-12 -46.5v-484q0 -32 13 -44.5t31 -12.5h49v-57h-367zM272 771q-17 14 -39 33.5t-43.5 41.5t-39 42t-25.5 33v10h139q16 -34 40 -73.5t45 -73.5v-13h-77zM76 771
q-17 14 -39 33.5t-43.5 41.5t-39 42t-25.5 33v10h139q16 -34 40 -73.5t45 -73.5v-13h-77z" />
    <glyph glyph-name="uni0209" unicode="&#x209;" horiz-adv-x="365" 
d="M14 0v57h12q26 0 46.5 14t20.5 56v288q0 38 -21 51t-46 13h-16v57h258v-411q0 -41 20.5 -54.5t45.5 -13.5h12v-57h-332zM238 606q-17 14 -39 33.5t-43.5 41.5t-39 42t-25.5 33v10h139q16 -34 40 -73.5t45 -73.5v-13h-77zM42 606q-17 14 -39 33.5t-43.5 41.5t-39 42
t-25.5 33v10h139q16 -34 40 -73.5t45 -73.5v-13h-77z" />
    <glyph glyph-name="uni020A" unicode="&#x20a;" horiz-adv-x="415" 
d="M24 0v57h48q17 0 31 12t14 44v485q0 34 -14 46.5t-31 12.5h-48v57h367v-57h-49q-20 0 -32 -12.5t-12 -46.5v-484q0 -32 13 -44.5t31 -12.5h49v-57h-367zM39 771q1 38 20 76t56.5 63.5t91.5 25.5t91.5 -25.5t56.5 -63.5t20 -76h-74q-8 36 -32.5 52t-61.5 16t-61.5 -16
t-32.5 -52h-74z" />
    <glyph glyph-name="uni020B" unicode="&#x20b;" horiz-adv-x="365" 
d="M14 0v57h12q26 0 46.5 14t20.5 56v288q0 38 -21 51t-46 13h-16v57h258v-411q0 -41 20.5 -54.5t45.5 -13.5h12v-57h-332zM5 606q1 38 20 76t56.5 63.5t91.5 25.5t91.5 -25.5t56.5 -63.5t20 -76h-74q-8 36 -32.5 52t-61.5 16t-61.5 -16t-32.5 -52h-74z" />
    <glyph glyph-name="uni020C" unicode="&#x20c;" horiz-adv-x="805" 
d="M403 -10q-117 0 -194.5 46t-116 129t-38.5 194t38.5 193t116 127.5t195.5 45.5q111 0 188.5 -45.5t118 -128t40.5 -193.5t-40.5 -193.5t-118.5 -128.5t-189 -46zM403 59q86 0 121.5 79t35.5 220t-35 219.5t-121 78.5t-122.5 -78.5t-36.5 -219.5t36.5 -220t121.5 -79z
M481 771q-17 14 -39 33.5t-43.5 41.5t-39 42t-25.5 33v10h139q16 -34 40 -73.5t45 -73.5v-13h-77zM285 771q-17 14 -39 33.5t-43.5 41.5t-39 42t-25.5 33v10h139q16 -34 40 -73.5t45 -73.5v-13h-77z" />
    <glyph glyph-name="uni020D" unicode="&#x20d;" horiz-adv-x="628" 
d="M312 -10q-124 0 -196 70t-72 211t69 210t202 69q125 0 197 -69t72 -210t-69 -211t-203 -70zM314 57q51 0 71.5 54.5t20.5 159.5t-21 158t-72 53t-71 -53t-20 -158t20.5 -159.5t71.5 -54.5zM395 606q-17 14 -39 33.5t-43.5 41.5t-39 42t-25.5 33v10h139q16 -34 40 -73.5
t45 -73.5v-13h-77zM199 606q-17 14 -39 33.5t-43.5 41.5t-39 42t-25.5 33v10h139q16 -34 40 -73.5t45 -73.5v-13h-77z" />
    <glyph glyph-name="uni020E" unicode="&#x20e;" horiz-adv-x="805" 
d="M403 -10q-117 0 -194.5 46t-116 129t-38.5 194t38.5 193t116 127.5t195.5 45.5q111 0 188.5 -45.5t118 -128t40.5 -193.5t-40.5 -193.5t-118.5 -128.5t-189 -46zM403 59q86 0 121.5 79t35.5 220t-35 219.5t-121 78.5t-122.5 -78.5t-36.5 -219.5t36.5 -220t121.5 -79z
M234 771q1 38 20 76t56.5 63.5t91.5 25.5t91.5 -25.5t56.5 -63.5t20 -76h-74q-8 36 -32.5 52t-61.5 16t-61.5 -16t-32.5 -52h-74z" />
    <glyph glyph-name="uni020F" unicode="&#x20f;" horiz-adv-x="628" 
d="M312 -10q-124 0 -196 70t-72 211t69 210t202 69q125 0 197 -69t72 -210t-69 -211t-203 -70zM314 57q51 0 71.5 54.5t20.5 159.5t-21 158t-72 53t-71 -53t-20 -158t20.5 -159.5t71.5 -54.5zM145 606q1 38 20 76t56.5 63.5t91.5 25.5t91.5 -25.5t56.5 -63.5t20 -76h-74
q-8 36 -32.5 52t-61.5 16t-61.5 -16t-32.5 -52h-74z" />
    <glyph glyph-name="uni0210" unicode="&#x210;" horiz-adv-x="728" 
d="M24 0v57h40q20 0 36.5 10t16.5 48v483q0 38 -18 48.5t-35 10.5h-40v57h344q104 0 167.5 -22.5t92 -64.5t28.5 -100q0 -55 -19.5 -92.5t-51 -60t-68.5 -33.5l116 -199q26 -45 47.5 -65t47.5 -20h6v-57h-41q-88 0 -142 17t-83 73l-112 218h-58v-193q0 -38 14 -48t36 -10h32
v-57h-356zM298 370h50q63 0 89.5 36t26.5 108q0 74 -29 105.5t-89 31.5h-48v-281zM435 771q-17 14 -39 33.5t-43.5 41.5t-39 42t-25.5 33v10h139q16 -34 40 -73.5t45 -73.5v-13h-77zM239 771q-17 14 -39 33.5t-43.5 41.5t-39 42t-25.5 33v10h139q16 -34 40 -73.5t45 -73.5
v-13h-77z" />
    <glyph glyph-name="uni0211" unicode="&#x211;" horiz-adv-x="544" 
d="M15 0v57h4q34 0 53.5 12.5t19.5 59.5v282q0 44 -17 56t-50 12h-3v57h219l20 -86h5q23 52 57 75.5t94 23.5q59 0 85.5 -25.5t26.5 -65.5q0 -52 -37.5 -76.5t-101.5 -24.5q0 41 -9 63t-37 22t-45 -26t-24 -63t-7 -68v-161q0 -44 18 -55.5t47 -11.5h34v-57h-352zM374 606
q-17 14 -39 33.5t-43.5 41.5t-39 42t-25.5 33v10h139q16 -34 40 -73.5t45 -73.5v-13h-77zM178 606q-17 14 -39 33.5t-43.5 41.5t-39 42t-25.5 33v10h139q16 -34 40 -73.5t45 -73.5v-13h-77z" />
    <glyph glyph-name="uni0212" unicode="&#x212;" horiz-adv-x="728" 
d="M24 0v57h40q20 0 36.5 10t16.5 48v483q0 38 -18 48.5t-35 10.5h-40v57h344q104 0 167.5 -22.5t92 -64.5t28.5 -100q0 -55 -19.5 -92.5t-51 -60t-68.5 -33.5l116 -199q26 -45 47.5 -65t47.5 -20h6v-57h-41q-88 0 -142 17t-83 73l-112 218h-58v-193q0 -38 14 -48t36 -10h32
v-57h-356zM298 370h50q63 0 89.5 36t26.5 108q0 74 -29 105.5t-89 31.5h-48v-281zM193 771q1 38 20 76t56.5 63.5t91.5 25.5t91.5 -25.5t56.5 -63.5t20 -76h-74q-8 36 -32.5 52t-61.5 16t-61.5 -16t-32.5 -52h-74z" />
    <glyph glyph-name="uni0213" unicode="&#x213;" horiz-adv-x="544" 
d="M15 0v57h4q34 0 53.5 12.5t19.5 59.5v282q0 44 -17 56t-50 12h-3v57h219l20 -86h5q23 52 57 75.5t94 23.5q59 0 85.5 -25.5t26.5 -65.5q0 -52 -37.5 -76.5t-101.5 -24.5q0 41 -9 63t-37 22t-45 -26t-24 -63t-7 -68v-161q0 -44 18 -55.5t47 -11.5h34v-57h-352zM106 606
q1 38 20 76t56.5 63.5t91.5 25.5t91.5 -25.5t56.5 -63.5t20 -76h-74q-8 36 -32.5 52t-61.5 16t-61.5 -16t-32.5 -52h-74z" />
    </font>
</defs>
</svg>
